<svg width="350" height="350" viewBox="0 0 350 350" fill="none" xmlns="http://www.w3.org/2000/svg">
<path d="M350 267.678H0V267.853H350V267.678Z" fill="#EBEBEB"/>
<path d="M314.931 278.946H291.746V279.121H314.931V278.946Z" fill="#EBEBEB"/>
<path d="M231.855 280.845H225.77V281.02H231.855V280.845Z" fill="#EBEBEB"/>
<path d="M291.044 272.446H277.609V272.621H291.044V272.446Z" fill="#EBEBEB"/>
<path d="M66.9558 273.622H36.7207V273.797H66.9558V273.622Z" fill="#EBEBEB"/>
<path d="M77.6226 273.622H73.1895V273.797H77.6226V273.622Z" fill="#EBEBEB"/>
<path d="M157.603 276.578H92.0293V276.753H157.603V276.578Z" fill="#EBEBEB"/>
<path d="M165.909 236.46H30.7397C28.5368 236.46 26.7441 234.667 26.7441 232.464V42.4619C26.7441 40.259 28.5368 38.4663 30.7397 38.4663H165.909C168.111 38.4663 169.904 40.259 169.904 42.4619V232.464C169.904 234.667 168.111 236.46 165.909 236.46ZM30.7397 38.642C28.6327 38.642 26.9191 40.3556 26.9191 42.4626V232.465C26.9191 234.572 28.6327 236.286 30.7397 236.286H165.909C168.015 236.286 169.729 234.572 169.729 232.465V42.4619C169.729 40.3556 168.015 38.6413 165.909 38.6413L30.7397 38.642Z" fill="#EBEBEB"/>
<path d="M317.318 236.46H182.149C179.946 236.46 178.154 234.667 178.154 232.464V42.4619C178.154 40.259 179.947 38.4663 182.149 38.4663H317.318C319.521 38.4663 321.313 40.259 321.313 42.4619V232.464C321.314 234.667 319.521 236.46 317.318 236.46ZM182.149 38.642C180.043 38.642 178.329 40.3556 178.329 42.4626V232.465C178.329 234.572 180.043 236.286 182.149 236.286H317.318C319.425 236.286 321.138 234.572 321.138 232.465V42.4619C321.138 40.3556 319.425 38.6413 317.318 38.6413L182.149 38.642Z" fill="#EBEBEB"/>
<path d="M322.848 112.492H199.445V235.271H322.848V112.492Z" fill="#F0F0F0"/>
<path d="M318.485 118.187H203.807V151.602H318.485V118.187Z" fill="#E0E0E0"/>
<path d="M210.321 123.597H203.807V151.603H210.321V123.597Z" fill="#EBEBEB"/>
<path d="M241.821 123.597H235.307V151.603H241.821V123.597Z" fill="#EBEBEB"/>
<path d="M277.584 122.912L271.164 124.018L275.919 151.618L282.339 150.511L277.584 122.912Z" fill="#EBEBEB"/>
<path d="M218.393 127.287H211.879V151.602H218.393V127.287Z" fill="#EBEBEB"/>
<path d="M233.366 127.287H226.852V151.602H233.366V127.287Z" fill="#EBEBEB"/>
<path d="M271.161 127.287H264.646V151.602H271.161V127.287Z" fill="#EBEBEB"/>
<path d="M250.379 126.455L244.02 127.868L249.293 151.603L255.653 150.191L250.379 126.455Z" fill="#EBEBEB"/>
<path d="M224.027 122.207H220.77V151.602H224.027V122.207Z" fill="#EBEBEB"/>
<path d="M262.775 122.207H259.518V151.602H262.775V122.207Z" fill="#EBEBEB"/>
<path d="M203.806 190.308H318.484V156.893H203.806V190.308Z" fill="#E0E0E0"/>
<path d="M311.97 190.308H318.484V162.302H311.97V190.308Z" fill="#EBEBEB"/>
<path d="M280.47 190.308H286.984V162.302H280.47V190.308Z" fill="#EBEBEB"/>
<path d="M239.94 189.207L246.359 190.313L251.115 162.713L244.695 161.607L239.94 189.207Z" fill="#EBEBEB"/>
<path d="M303.9 190.308H310.414V165.993H303.9V190.308Z" fill="#EBEBEB"/>
<path d="M288.925 190.308H295.439V165.993H288.925V190.308Z" fill="#EBEBEB"/>
<path d="M251.13 190.308H257.645V165.993H251.13V190.308Z" fill="#EBEBEB"/>
<path d="M266.639 188.895L272.998 190.308L278.272 166.572L271.913 165.159L266.639 188.895Z" fill="#EBEBEB"/>
<path d="M298.266 190.308H301.523V160.912H298.266V190.308Z" fill="#EBEBEB"/>
<path d="M259.518 190.308H262.775V160.912H259.518V190.308Z" fill="#EBEBEB"/>
<path d="M210.321 162.303H203.807V190.308H210.321V162.303Z" fill="#EBEBEB"/>
<path d="M218.393 165.993H211.879V190.307H218.393V165.993Z" fill="#EBEBEB"/>
<path d="M233.366 165.993H226.852V190.307H233.366V165.993Z" fill="#EBEBEB"/>
<path d="M224.027 160.912H220.77V190.307H224.027V160.912Z" fill="#EBEBEB"/>
<path d="M318.485 195.599H203.807V229.013H318.485V195.599Z" fill="#E0E0E0"/>
<path d="M276.141 201.008H269.627V229.014H276.141V201.008Z" fill="#EBEBEB"/>
<path d="M311.902 200.327L305.482 201.433L310.238 229.032L316.658 227.926L311.902 200.327Z" fill="#EBEBEB"/>
<path d="M252.714 204.698H246.199V229.013H252.714V204.698Z" fill="#EBEBEB"/>
<path d="M267.688 204.698H261.174V229.013H267.688V204.698Z" fill="#EBEBEB"/>
<path d="M305.484 204.698H298.969V229.013H305.484V204.698Z" fill="#EBEBEB"/>
<path d="M284.699 203.867L278.34 205.28L283.614 229.016L289.973 227.603L284.699 203.867Z" fill="#EBEBEB"/>
<path d="M258.347 199.618H255.09V229.014H258.347V199.618Z" fill="#EBEBEB"/>
<path d="M297.095 199.618H293.838V229.014H297.095V199.618Z" fill="#EBEBEB"/>
<path d="M236.955 200.324L230.535 201.43L235.291 229.029L241.71 227.923L236.955 200.324Z" fill="#EBEBEB"/>
<path d="M230.536 204.698H224.021V229.013H230.536V204.698Z" fill="#EBEBEB"/>
<path d="M209.752 203.867L203.393 205.28L208.666 229.016L215.026 227.603L209.752 203.867Z" fill="#EBEBEB"/>
<path d="M222.148 199.618H218.891V229.014H222.148V199.618Z" fill="#EBEBEB"/>
<path d="M26.2364 235.271L149.639 235.271L149.639 112.492L26.2364 112.492L26.2364 235.271Z" fill="#F0F0F0"/>
<path d="M30.5991 151.602H145.277V118.188L30.5991 118.188V151.602Z" fill="#E0E0E0"/>
<path d="M138.763 151.602H145.277V123.596H138.763V151.602Z" fill="#EBEBEB"/>
<path d="M107.263 151.602H113.777V123.596H107.263V151.602Z" fill="#EBEBEB"/>
<path d="M66.7404 150.495L73.1602 151.601L77.9155 124.002L71.4958 122.896L66.7404 150.495Z" fill="#EBEBEB"/>
<path d="M130.691 151.602H137.205V127.288H130.691V151.602Z" fill="#EBEBEB"/>
<path d="M115.718 151.602H122.232V127.288H115.718V151.602Z" fill="#EBEBEB"/>
<path d="M77.9233 151.602H84.4375V127.288H77.9233V151.602Z" fill="#EBEBEB"/>
<path d="M93.4319 150.189L99.791 151.602L105.065 127.866L98.7057 126.453L93.4319 150.189Z" fill="#EBEBEB"/>
<path d="M125.057 151.602H128.314V122.206H125.057V151.602Z" fill="#EBEBEB"/>
<path d="M86.3093 151.602H89.5664V122.206H86.3093V151.602Z" fill="#EBEBEB"/>
<path d="M145.276 156.893H30.5977V190.308H145.276V156.893Z" fill="#E0E0E0"/>
<path d="M37.1119 162.303H30.5977V190.308H37.1119V162.303Z" fill="#EBEBEB"/>
<path d="M68.6119 162.303H62.0977V190.308H68.6119V162.303Z" fill="#EBEBEB"/>
<path d="M104.369 161.612L97.9492 162.718L102.705 190.317L109.124 189.211L104.369 161.612Z" fill="#EBEBEB"/>
<path d="M45.1841 165.993H38.6699V190.308H45.1841V165.993Z" fill="#EBEBEB"/>
<path d="M60.1594 165.993H53.6445V190.308H60.1594V165.993Z" fill="#EBEBEB"/>
<path d="M97.9517 165.993H91.4375V190.308H97.9517V165.993Z" fill="#EBEBEB"/>
<path d="M77.1697 165.16L70.8105 166.573L76.0844 190.309L82.4435 188.896L77.1697 165.16Z" fill="#EBEBEB"/>
<path d="M50.8176 160.912H47.5605V190.308H50.8176V160.912Z" fill="#EBEBEB"/>
<path d="M89.5657 160.912H86.3086V190.308H89.5657V160.912Z" fill="#EBEBEB"/>
<path d="M138.761 190.308H145.275V162.302H138.761V190.308Z" fill="#EBEBEB"/>
<path d="M130.691 190.308H137.205V165.993H130.691V190.308Z" fill="#EBEBEB"/>
<path d="M115.716 190.308H122.23V165.993H115.716V190.308Z" fill="#EBEBEB"/>
<path d="M125.057 190.308H128.314V160.912H125.057V190.308Z" fill="#EBEBEB"/>
<path d="M30.5991 229.014H145.277V195.599H30.5991V229.014Z" fill="#E0E0E0"/>
<path d="M72.9409 229.013H79.4551V201.008H72.9409V229.013Z" fill="#EBEBEB"/>
<path d="M32.4162 227.903L38.8359 229.009L43.5913 201.41L37.1715 200.304L32.4162 227.903Z" fill="#EBEBEB"/>
<path d="M96.3699 229.014H102.885V204.699H96.3699V229.014Z" fill="#EBEBEB"/>
<path d="M81.396 229.014H87.9102V204.699H81.396V229.014Z" fill="#EBEBEB"/>
<path d="M43.6003 229.014H50.1152V204.699H43.6003V229.014Z" fill="#EBEBEB"/>
<path d="M59.1096 227.6L65.4688 229.012L70.7426 205.277L64.3834 203.864L59.1096 227.6Z" fill="#EBEBEB"/>
<path d="M90.737 229.013H93.9941V199.617H90.737V229.013Z" fill="#EBEBEB"/>
<path d="M51.989 229.013H55.2461L55.2461 199.617H51.989V229.013Z" fill="#EBEBEB"/>
<path d="M107.362 227.906L113.781 229.012L118.537 201.413L112.117 200.307L107.362 227.906Z" fill="#EBEBEB"/>
<path d="M118.548 229.014H125.062V204.699H118.548V229.014Z" fill="#EBEBEB"/>
<path d="M134.057 227.6L140.416 229.013L145.69 205.277L139.331 203.864L134.057 227.6Z" fill="#EBEBEB"/>
<path d="M126.934 229.013H130.191V199.617H126.934V229.013Z" fill="#EBEBEB"/>
<path d="M176.425 83.4797C184.48 83.4797 191.01 76.9497 191.01 68.8945C191.01 60.8393 184.48 54.3093 176.425 54.3093C168.37 54.3093 161.84 60.8393 161.84 68.8945C161.84 76.9497 168.37 83.4797 176.425 83.4797Z" fill="#E0E0E0"/>
<path d="M176.425 81.1557C183.197 81.1557 188.686 75.6662 188.686 68.8945C188.686 62.1228 183.197 56.6333 176.425 56.6333C169.654 56.6333 164.164 62.1228 164.164 68.8945C164.164 75.6662 169.654 81.1557 176.425 81.1557Z" fill="#EBEBEB"/>
<path d="M176.424 69.5945C176.407 69.5945 176.39 69.5938 176.372 69.5924C176.158 69.577 175.963 69.4636 175.844 69.2858L170.77 61.7587C170.554 61.4381 170.639 61.0027 170.959 60.7871C171.28 60.5701 171.715 60.6555 171.931 60.9761L176.507 67.7661L179.701 64.278C179.962 63.9931 180.405 63.9735 180.69 64.2339C180.975 64.495 180.994 64.9381 180.734 65.223L176.941 69.3663C176.808 69.5126 176.62 69.5945 176.424 69.5945Z" fill="#E0E0E0"/>
<path d="M175 299.293C249.957 299.293 310.722 295.744 310.722 291.367C310.722 286.989 249.957 283.44 175 283.44C100.042 283.44 39.2773 286.989 39.2773 291.367C39.2773 295.744 100.042 299.293 175 299.293Z" fill="#F5F5F5"/>
<path d="M212.801 193.302L208.811 228.915H235.481L238.631 193.302H212.801Z" fill="#EE7C7D"/>
<path opacity="0.3" d="M212.801 193.302L208.811 228.915H232.381L235.531 193.302H212.801Z" fill="white"/>
<path opacity="0.1" d="M235.531 193.302L232.381 228.915H235.48L238.63 193.302H235.531Z" fill="white"/>
<path d="M247.555 200.523H205.86C204.558 200.523 203.521 199.434 203.583 198.134L206.101 145.565C206.159 144.35 207.161 143.395 208.378 143.395H250.29L247.555 200.523Z" fill="#EE7C7D"/>
<path opacity="0.2" d="M246.826 143.395L244.09 200.523H247.555L250.291 143.395H246.826Z" fill="white"/>
<path opacity="0.1" d="M243.007 145.839L240.517 197.833C240.447 199.297 241.615 200.523 243.081 200.523H244.089L246.825 143.395H245.571C244.201 143.395 243.073 144.471 243.007 145.839Z" fill="black"/>
<path d="M205.27 230.191L205.596 241.09L207.081 290.391H211.982L213.459 241.09L213.784 230.191H205.27Z" fill="#EE7C7D"/>
<path opacity="0.4" d="M205.27 230.191L205.596 241.09L207.081 290.391H211.982L213.459 241.09L213.784 230.191H205.27Z" fill="white"/>
<path opacity="0.2" d="M205.27 230.191L205.596 241.391H213.459L213.784 230.191H205.27Z" fill="black"/>
<path d="M178.654 290.216L183.182 230.961H190.583L184.245 290.216H178.654Z" fill="#EE7C7D"/>
<path opacity="0.5" d="M184.257 290.216H178.662L182.77 236.281L183.178 230.891H190.58L190.008 236.281L184.257 290.216Z" fill="white"/>
<path opacity="0.2" d="M190.581 230.891L190.009 236.491H182.771L183.179 230.891H190.581Z" fill="black"/>
<path d="M234.811 290.216L228.473 230.961H235.873L240.401 290.216H234.811Z" fill="#EE7C7D"/>
<path opacity="0.5" d="M234.797 290.216L229.045 236.281L228.475 230.891H235.876L236.283 236.281L240.392 290.216H234.797Z" fill="white"/>
<path opacity="0.2" d="M228.475 230.891L229.045 236.491H236.283L235.876 230.891H228.475Z" fill="black"/>
<path d="M182.717 224.824H236.34C238.272 224.824 239.84 226.391 239.84 228.324V233.006H179.217V228.324C179.217 226.391 180.784 224.824 182.717 224.824Z" fill="#EE7C7D"/>
<path d="M177.72 228.916H241.336C242.114 228.916 242.744 229.546 242.744 230.323V231.599C242.744 232.376 242.113 233.006 241.336 233.006H177.72C176.942 233.006 176.312 232.376 176.312 231.599V230.323C176.312 229.546 176.942 228.916 177.72 228.916Z" fill="#EE7C7D"/>
<path opacity="0.6" d="M177.72 228.916H241.336C242.114 228.916 242.744 229.546 242.744 230.323V231.599C242.744 232.376 242.113 233.006 241.336 233.006H177.72C176.942 233.006 176.312 232.376 176.312 231.599V230.323C176.312 229.546 176.942 228.916 177.72 228.916Z" fill="white"/>
<path opacity="0.1" d="M230.108 224.824H219.857L199.586 224.009L199.911 225.352L184.232 225.476L183.424 225.701L184.23 233.008H202.382L201.074 226.426C208.104 226.373 225.96 227.998 230.108 224.824Z" fill="black"/>
<path d="M188.733 168.495C188.733 168.495 168.862 172.727 167.731 172.879C166.599 173.031 161.286 171.499 160.269 171.623C159.251 171.748 157.569 176.566 157.473 177.635C157.378 178.705 165.808 179.499 166.552 179.206C167.297 178.914 168.871 177.657 168.871 177.657L189.65 175.472L188.733 168.495Z" fill="#E6AE76"/>
<path d="M227.532 141.375L216.495 141.926L214.012 144.845L228.07 144.537L227.532 141.375Z" fill="#EE7C7D"/>
<path d="M206.109 159.318C206.109 159.318 205.913 159.85 205.556 160.725C205.192 161.635 204.653 162.916 203.988 164.358C202.378 167.865 200.04 172.31 197.597 174.711C196.876 175.418 196.148 175.95 195.427 176.223C192.823 177.224 186.415 177.695 180.584 177.639C174.844 177.59 169.646 178.112 169.646 178.112V171.93L188.819 167.473C188.819 167.473 198.927 149.368 204.905 146.666L206.109 159.318Z" fill="#263238"/>
<path opacity="0.2" d="M205.557 160.725C205.193 161.635 204.654 162.916 203.989 164.358C202.379 167.865 200.041 172.31 197.598 174.711C195.113 165.555 204.304 156.84 204.304 156.84L205.557 160.725Z" fill="black"/>
<path d="M203.079 286.213L197.503 285.448L196.73 272.193L202.299 272.964L203.079 286.213Z" fill="#E6AE76"/>
<path opacity="0.2" d="M202.298 272.964L196.729 272.2L197.172 279.777L202.733 280.265L202.298 272.964Z" fill="black"/>
<path d="M202.855 208.29L204.215 199.767L235.477 197.897C235.477 197.897 238.802 215.633 236.247 220.358C231.688 228.794 207.115 224.536 199.924 225.366C204.222 242.943 203.802 277.292 203.802 277.292L193.533 278.076C193.533 278.076 185.632 241.062 184.034 223.476C182.956 211.609 192.789 211.904 202.855 208.29Z" fill="#EE7C7D"/>
<path d="M190.216 281.264L184.603 281.677L181.086 268.873L186.693 268.468L190.216 281.264Z" fill="#E6AE76"/>
<path d="M183.842 281.868C183.842 281.862 183.748 281.858 183.747 281.852L183.646 281.847V281.845L183.746 281.844C183.726 281.76 183.461 280.188 182.779 279.815C182.596 279.72 182.406 279.711 182.216 279.79C181.995 279.859 181.863 280.069 181.876 280.3C181.901 280.65 182.277 281.089 182.705 281.439C182.117 281.314 181.45 281.244 181.131 281.481C180.996 281.586 180.926 281.751 180.942 281.922C180.921 282.191 181.059 282.449 181.294 282.583C181.647 282.714 182.037 282.708 182.386 282.566C182.864 282.42 183.324 282.222 183.759 281.976C183.775 281.978 183.793 281.978 183.807 281.97C183.818 281.959 183.815 281.94 183.822 281.926C183.834 281.91 183.84 281.89 183.842 281.868ZM182.157 280.301C182.147 280.225 182.17 280.123 182.345 280.052L182.405 280.03C182.507 280.001 182.616 280.015 182.706 280.07C183.115 280.288 183.397 281.137 183.529 281.653C183.49 281.641 183.45 281.629 183.403 281.615C182.849 281.31 182.205 280.68 182.157 280.301ZM181.421 282.355C181.279 282.261 181.197 282.1 181.205 281.931C181.195 281.847 181.231 281.765 181.298 281.714C181.614 281.477 182.641 281.679 183.382 281.903C182.466 282.365 181.746 282.533 181.421 282.355Z" fill="#EE7C7D"/>
<path opacity="0.2" d="M186.692 268.468L181.086 268.88L183.098 276.198L188.639 275.517L186.692 268.468Z" fill="black"/>
<path d="M179.185 275.295L189.069 272.39C189.069 272.39 183.168 239.084 177.183 227.534C177.631 227.387 178.226 227.198 178.961 226.981C180.284 226.582 182.041 226.085 184.106 225.511C198.47 221.528 227.583 214.059 227.583 214.059L214.283 201.648C214.283 201.648 161.307 209.726 160.208 223.684C159.683 230.397 179.185 275.295 179.185 275.295Z" fill="#EE7C7D"/>
<path opacity="0.2" d="M178.96 226.981C180.283 226.582 182.169 226.049 184.234 225.475C183.821 222.087 183.685 218.238 185.316 216.257C188.557 212.309 196.894 209.992 201.64 209.152C205.609 208.452 218.944 207.059 218.944 207.059C218.944 207.059 201.64 205.4 183.951 210.559C175.208 213.114 176.909 221.661 178.96 226.981Z" fill="black"/>
<path d="M237.213 206.805C239.297 205.206 237.296 190.294 238.367 175.625C239.997 153.299 238.366 146.125 236.719 145.429C233.683 144.902 230.612 144.598 227.532 144.519C223.023 144.356 218.509 144.453 214.012 144.811C210.933 145.191 207.888 145.81 204.906 146.665C204.906 146.665 197.539 170.11 202.245 203.887L237.213 206.805Z" fill="#263238"/>
<path opacity="0.1" d="M237.213 206.805C239.297 205.206 237.296 190.294 238.367 175.625C239.997 153.299 238.366 146.125 236.719 145.429C233.683 144.902 230.612 144.598 227.532 144.519C223.023 144.356 218.509 144.453 214.012 144.811C210.933 145.191 207.888 145.81 204.906 146.665C204.906 146.665 197.539 170.11 202.245 203.887L237.213 206.805Z" fill="white"/>
<path d="M225.869 129.364C225.108 133.73 224.429 141.715 227.533 144.554C227.533 144.554 224.158 148.721 217.727 149.004C212.152 149.25 214.013 144.845 214.013 144.845C218.841 143.583 218.637 139.983 217.721 136.623L225.869 129.364Z" fill="#E6AE76"/>
<path opacity="0.2" d="M222.547 132.324L217.727 136.622C217.951 137.404 218.107 138.204 218.195 139.012C220.042 138.707 224.024 134.756 224.18 132.814C224.276 132.028 222.742 133.091 222.547 132.324Z" fill="black"/>
<path d="M215.284 118.059C217.697 119.697 216.598 122.472 211.138 126.815C208.921 123.938 208.553 118.354 210.316 116.95C212.079 115.546 213.18 116.641 215.284 118.059Z" fill="#263238"/>
<path d="M225.664 122.556C225.403 128.456 225.545 131.916 222.626 134.994C218.228 139.617 210.908 137.045 209.401 131.184C208.054 125.92 208.704 117.154 214.43 114.715C218.513 112.951 223.253 114.832 225.017 118.915C225.512 120.063 225.734 121.309 225.664 122.556Z" fill="#E6AE76"/>
<path d="M216.892 124.322C216.9 124.801 216.65 125.194 216.337 125.198C216.025 125.201 215.768 124.822 215.76 124.343C215.752 123.864 215.995 123.472 216.307 123.462C216.618 123.451 216.851 123.85 216.892 124.322Z" fill="#263238"/>
<path d="M211.441 124.422C211.448 124.901 211.199 125.294 210.886 125.298C210.573 125.301 210.31 124.924 210.301 124.438C210.292 123.952 210.543 123.565 210.855 123.561C211.168 123.558 211.433 123.942 211.441 124.422Z" fill="#263238"/>
<path d="M213.223 124.617C212.676 126.093 211.928 127.486 211 128.758C211.88 129.535 213.302 129.146 213.302 129.146L213.223 124.617Z" fill="#D08245"/>
<path d="M218.352 122.576C218.414 122.583 218.477 122.568 218.531 122.534C218.654 122.439 218.678 122.263 218.585 122.138C218.043 121.408 217.179 120.989 216.27 121.014C216.121 121.021 216.005 121.148 216.012 121.298C216.012 121.305 216.013 121.312 216.013 121.318C216.032 121.47 216.165 121.582 216.318 121.574C217.034 121.566 217.711 121.903 218.134 122.48C218.19 122.543 218.27 122.577 218.352 122.576Z" fill="#263238"/>
<path d="M208.928 122.625C209.037 122.622 209.135 122.559 209.182 122.461C209.465 121.801 210.047 121.318 210.746 121.159C210.9 121.136 211.006 120.993 210.985 120.838C210.962 120.687 210.822 120.581 210.67 120.598C209.781 120.786 209.037 121.391 208.673 122.224C208.608 122.363 208.667 122.529 208.806 122.595C208.807 122.596 208.809 122.597 208.809 122.597C208.848 122.614 208.888 122.624 208.928 122.625Z" fill="#263238"/>
<path d="M223.229 117.373C220.491 118.364 220.879 121.328 225.109 126.872C227.965 124.625 229.692 119.295 228.318 117.512C226.944 115.728 225.622 116.512 223.229 117.373Z" fill="#263238"/>
<path d="M228.552 127.221C228.166 128.656 227.227 129.88 225.94 130.624C224.228 131.591 222.904 130.171 222.984 128.311C223.057 126.634 224.042 124.109 225.947 123.906C227.852 123.703 229.018 125.46 228.552 127.221Z" fill="#E6AE76"/>
<path d="M217.726 130.124C217.726 130.124 216.703 132.058 213.848 131.965" stroke="#263238" stroke-width="0.5263" stroke-miterlimit="10" stroke-linecap="round" stroke-linejoin="round"/>
<path d="M217.242 116.437C217.242 116.437 218.123 122.345 223.81 122.719C229.498 123.094 229.323 119.694 229.323 119.694C229.323 119.694 230.786 116.936 229.323 114.054C228.008 111.462 221.042 112.264 217.726 111.634C203.649 107.904 203.761 112.158 206.573 117.931C206.573 117.931 205.649 120.134 209.061 121.796C209.061 121.796 209.711 115.818 217.242 116.437Z" fill="#263238"/>
<path d="M207.565 172.268C207.565 172.268 187.254 171.805 186.117 171.693C184.98 171.579 180.164 168.863 179.146 168.75C178.127 168.636 175.38 172.937 175.04 173.956C174.7 174.974 182.72 177.69 183.512 177.577C184.304 177.464 186.125 176.604 186.125 176.604L206.848 179.268L207.565 172.268Z" fill="#E6AE76"/>
<path opacity="0.2" d="M238.974 164.134C238.974 164.134 238.967 164.134 238.974 164.141C235.957 169.034 231.736 174.256 227.529 174.011C223.126 173.752 227.564 164.764 232.296 156.938C232.478 157.316 232.639 157.68 232.765 158.037C233.836 161.033 237.105 157.344 238.771 152.521C239.016 155.342 239.114 159.136 238.974 164.134Z" fill="black"/>
<path d="M184.051 281.107L190.131 279.41C190.34 279.341 190.566 279.455 190.634 279.665C190.635 279.667 190.636 279.669 190.636 279.671L192.276 284.403C192.423 284.927 192.12 285.472 191.597 285.624C189.467 286.182 188.421 286.342 185.74 287.067C184.096 287.521 180.892 288.574 178.548 288.84C176.204 289.107 176.003 286.783 176.972 286.464C179.267 285.695 182.014 283.303 183.206 281.679C183.416 281.4 183.714 281.198 184.051 281.107Z" fill="#263238"/>
<path d="M196.947 285.458V285.457C196.947 285.455 196.947 285.454 196.947 285.452C196.947 285.354 196.852 283.765 196.266 283.259C196.107 283.128 195.843 283.074 195.641 283.112C195.411 283.133 195.198 283.309 195.163 283.537C195.113 283.886 195.37 284.392 195.717 284.822C195.168 284.577 194.52 284.37 194.158 284.535C194.004 284.609 193.896 284.757 193.876 284.926C193.8 285.186 193.878 285.466 194.081 285.646C194.399 285.847 194.78 285.922 195.151 285.856C195.649 285.814 196.139 285.715 196.616 285.566C196.632 285.572 196.648 285.576 196.664 285.571C196.677 285.562 196.678 285.544 196.688 285.531C196.704 285.517 196.823 285.499 196.829 285.478C196.83 285.473 196.947 285.47 196.947 285.464V285.458ZM195.398 283.594C195.404 283.517 195.448 283.422 195.633 283.389L195.697 283.38C195.803 283.373 195.906 283.41 195.983 283.482C196.337 283.78 196.437 284.669 196.458 285.202C196.422 285.181 196.385 285.161 196.342 285.137C195.865 284.725 195.366 283.974 195.398 283.594ZM194.25 285.45C194.131 285.328 194.085 285.153 194.128 284.99C194.136 284.906 194.187 284.833 194.263 284.797C194.622 284.631 195.584 285.043 196.262 285.416C195.27 285.676 194.532 285.691 194.25 285.45Z" fill="#EE7C7D"/>
<path d="M197.082 284.776L203.382 284.383C203.601 284.36 203.798 284.519 203.822 284.738C203.822 284.74 203.823 284.742 203.823 284.744L204.441 289.714C204.474 290.257 204.065 290.727 203.522 290.767C201.322 290.869 200.267 290.807 197.492 290.959C195.791 291.06 192.437 291.422 190.089 291.194C187.741 290.967 188.029 288.652 189.043 288.541C191.447 288.268 194.632 286.501 196.137 285.16C196.4 284.931 196.734 284.796 197.082 284.776Z" fill="#263238"/>
<path d="M236.721 145.429C236.721 145.429 232.049 147.36 228.845 153.019C225.641 158.677 220.073 170.66 217.728 171.253C215.383 171.845 187.464 170.644 187.464 170.644L186.361 177.836C186.361 177.836 217.562 183.078 223.221 180.181C228.879 177.283 247.1 149.171 236.721 145.429Z" fill="#263238"/>
<path opacity="0.3" d="M214.012 144.845C210.019 147.599 208.62 158.621 208.62 158.621C207.885 163.241 208.069 164.658 211.001 165.236C218.322 166.912 221.64 163.269 222.27 159.566C222.27 159.566 224.511 147.391 228.071 144.536L218.07 149.013L214.012 144.845Z" fill="white"/>
<path d="M214.012 144.845C210.019 147.599 208.62 158.621 208.62 158.621C207.885 163.241 208.069 164.658 211.001 165.236C218.322 166.912 221.64 163.269 222.27 159.566C222.27 159.566 224.511 147.391 228.071 144.536L218.07 149.013L214.012 144.845Z" fill="#EE7C7D"/>
<path opacity="0.5" d="M214.012 144.845C210.019 147.599 208.62 158.621 208.62 158.621C207.885 163.241 208.069 164.658 211.001 165.236C218.322 166.912 221.64 163.269 222.27 159.566C222.27 159.566 224.511 147.391 228.071 144.536L218.07 149.013L214.012 144.845Z" fill="white"/>
<path d="M218.07 149.014L219.859 144.052L227.533 141.375L228.071 144.537L218.07 149.014Z" fill="#EE7C7D"/>
<path opacity="0.05" d="M218.07 149.014L219.859 144.052L227.533 141.375L228.071 144.537L218.07 149.014Z" fill="white"/>
<path d="M219.857 144.052L222.006 149.014L228.07 144.537L227.532 141.375L219.857 144.052Z" fill="#EE7C7D"/>
<path opacity="0.2" d="M219.857 144.052L222.006 149.014L228.07 144.537L227.532 141.375L219.857 144.052Z" fill="white"/>
<path d="M218.069 149.014L216.011 144.039L216.495 141.926L214.012 144.845L218.069 149.014Z" fill="#EE7C7D"/>
<path opacity="0.05" d="M218.069 149.014L216.011 144.039L216.495 141.926L214.012 144.845L218.069 149.014Z" fill="white"/>
<path d="M216.011 144.039L213.848 149.486L214.012 144.845L216.495 141.926L216.011 144.039Z" fill="#EE7C7D"/>
<path opacity="0.2" d="M216.011 144.039L213.848 149.486L214.012 144.845L216.495 141.926L216.011 144.039Z" fill="white"/>
<path d="M90.6025 150.486L89.0625 150.816L91.7851 163.535L93.3251 163.205L90.6025 150.486Z" fill="#EE7C7D"/>
<path opacity="0.3" d="M90.6025 150.486L89.0625 150.816L91.7851 163.535L93.3251 163.205L90.6025 150.486Z" fill="white"/>
<path d="M95.8445 149.25H94.2695V162.258H95.8445V149.25Z" fill="#EE7C7D"/>
<path opacity="0.3" d="M95.8445 149.25H94.2695V162.258H95.8445V149.25Z" fill="white"/>
<path d="M102.997 152.252L101.498 151.768L97.5033 164.148L99.0022 164.632L102.997 152.252Z" fill="#EE7C7D"/>
<path opacity="0.3" d="M102.997 152.252L101.498 151.768L97.5033 164.148L99.0022 164.632L102.997 152.252Z" fill="white"/>
<path d="M99.1515 179.268H92.5365C91.3122 179.268 90.3203 178.276 90.3203 177.052V162.258H101.368V177.052C101.368 178.276 100.376 179.268 99.1515 179.268Z" fill="#EE7C7D"/>
<path opacity="0.1" d="M99.1515 179.268H92.5365C91.3122 179.268 90.3203 178.276 90.3203 177.052V162.258H101.368V177.052C101.368 178.276 100.376 179.268 99.1515 179.268Z" fill="white"/>
<path d="M245.604 253.849L244.502 255.897V257.892L246.864 258.732L250.014 258.417L249.332 256.002L245.604 253.849Z" fill="#EE7C7D"/>
<path opacity="0.3" d="M245.604 253.849L244.502 255.897V257.892L246.864 258.732L250.014 258.417L249.332 256.002L245.604 253.849Z" fill="white"/>
<path opacity="0.3" d="M245.08 255.739L246.655 256.291V258.102L246.235 256.921L245.5 257.209L245.868 256.579L245.08 255.739Z" fill="#263238"/>
<path opacity="0.3" d="M247.809 256.291H248.951L249.699 258.102L248.754 256.921L247.809 256.291Z" fill="#263238"/>
<path d="M241.693 260.228L239.33 258.465L240.8 255.871L243.95 255.136L245.735 256.553L245.42 260.228H241.693Z" fill="#EE7C7D"/>
<path opacity="0.2" d="M241.693 260.228L239.33 258.465L240.8 255.871L243.95 255.136L245.735 256.553L245.42 260.228H241.693Z" fill="white"/>
<path opacity="0.3" d="M239.803 258.338L241.85 257.682L243.845 258.338L245.105 259.966L243.163 258.732L241.798 259.126V258.128L239.803 258.338Z" fill="#263238"/>
<path opacity="0.3" d="M241.43 256.291L242.532 257.131H243.687L244.79 256.711H243.11L241.43 256.291Z" fill="#263238"/>
<path d="M251.136 254.624L249.404 257.091L251.136 259.769L252.659 259.401L254.706 259.454L255.547 257.196L252.475 254.624H251.136Z" fill="#EE7C7D"/>
<path opacity="0.2" d="M251.136 254.624L249.404 257.091L251.136 259.769L252.659 259.401L254.706 259.454L255.547 257.196L252.475 254.624H251.136Z" fill="white"/>
<path opacity="0.3" d="M249.98 256.868H251.818L251.346 259.191L251.241 257.459L249.98 256.868Z" fill="#263238"/>
<path opacity="0.3" d="M252.305 258.929L252.475 256.868L254.969 257.459L253.637 257.774L254.235 258.929L252.974 257.459L252.305 258.929Z" fill="#263238"/>
<path opacity="0.3" d="M250.9 255.963L251.819 255.411L252.974 255.963L254.181 256.869L251.819 255.963H250.9Z" fill="#263238"/>
<path d="M252.541 255.556L253.912 259.704L256.321 260.229L259.681 259.546L261.361 257.289L259.786 253.876L254.904 253.509L252.541 255.556Z" fill="#EE7C7D"/>
<path opacity="0.1" d="M252.541 255.556L253.912 259.704L256.321 260.229L259.681 259.546L261.361 257.289L259.786 253.876L254.904 253.509L252.541 255.556Z" fill="white"/>
<path opacity="0.3" d="M254.318 258.831L255.776 257.177L257.79 257.256L258.059 258.929L257.429 257.846L256.005 257.709L254.318 258.831Z" fill="#263238"/>
<path opacity="0.3" d="M258.369 257.079L260.207 256.783L261.033 257.177L259.701 259.185L260.561 257.374L260.069 257.177L258.369 257.079Z" fill="#263238"/>
<path opacity="0.3" d="M254.221 257.847L252.961 255.7L254.693 254.617L258.06 255.444L255.061 255.129L253.65 255.956L254.221 257.847Z" fill="#263238"/>
<path opacity="0.3" d="M256.189 253.948L259.287 254.224L260.521 256.232L259.064 254.617L256.189 253.948Z" fill="#263238"/>
<path d="M259.164 291.291H241.521C239.714 291.291 238.25 289.827 238.25 288.02V259.562H262.435V288.02C262.435 289.827 260.971 291.291 259.164 291.291Z" fill="#EE7C7D"/>
<path opacity="0.3" d="M259.164 291.291H241.521C239.714 291.291 238.25 289.827 238.25 288.02V259.562H262.435V288.02C262.435 289.827 260.971 291.291 259.164 291.291Z" fill="white"/>
<path d="M262.785 259.894H237.9V258.938C237.9 258.446 238.299 258.048 238.79 258.048H261.895C262.386 258.048 262.785 258.446 262.785 258.938V259.894H262.785Z" fill="#EE7C7D"/>
<path opacity="0.4" d="M262.785 259.894H237.9V258.938C237.9 258.446 238.299 258.048 238.79 258.048H261.895C262.386 258.048 262.785 258.446 262.785 258.938V259.894H262.785Z" fill="white"/>
<path d="M124.433 196.918H115.715V291.367H124.433V196.918Z" fill="#EE7C7D"/>
<path opacity="0.4" d="M124.433 196.866H119.914V291.317H124.433V196.866Z" fill="black"/>
<path d="M270.39 196.866H265.871V291.317H270.39V196.866Z" fill="#EE7C7D"/>
<path d="M73.1305 196.866H68.6113V291.317H73.1305V196.866Z" fill="#EE7C7D"/>
<path d="M275.035 291.291H270.516V196.892H198.484V291.291H190.214V196.892H68.9162V291.291H64.7715V179.268H275.035V291.291Z" fill="#EE7C7D"/>
<path opacity="0.1" d="M275.035 291.291H270.516V196.892H198.483V291.291H194.01V184.766H275.035V291.291Z" fill="white"/>
<path opacity="0.3" d="M275.035 179.268H194.01V184.766H275.035V179.268Z" fill="black"/>
<path opacity="0.1" d="M194.064 179.268H64.7715V184.766H194.064V179.268Z" fill="black"/>
<path opacity="0.4" d="M194.064 291.291L190.088 291.194L190.214 196.892H68.9162V291.291H64.7715V184.766H194.064V291.291Z" fill="white"/>
<path opacity="0.4" d="M73.1305 196.866H68.6113V291.317H73.1305V196.866Z" fill="black"/>
<path opacity="0.4" d="M270.39 196.866H265.871V291.317H270.39V196.866Z" fill="black"/>
<path d="M134.74 176.468V178.32C134.74 178.875 135.696 179.268 136.244 179.268H179.5C180.055 179.268 180.94 178.875 180.94 178.32V176.468H134.74Z" fill="#263238"/>
<path opacity="0.6" d="M134.74 176.468V178.32C134.74 178.875 135.696 179.268 136.244 179.268H179.5C180.055 179.268 180.94 178.875 180.94 178.32V176.468H134.74Z" fill="white"/>
<path opacity="0.2" d="M134.74 176.468V178.32C134.74 178.875 135.696 179.268 136.244 179.268H164.774C165.329 179.268 166.24 178.875 166.24 178.32V176.468H134.74Z" fill="black"/>
<path d="M127.803 153.727L132.952 177.162C133.12 177.932 133.869 178.568 134.624 178.568H162.752C163.501 178.568 163.983 177.769 163.809 176.999L158.666 153.815C158.492 153.053 157.75 152.667 156.994 152.667H128.866C128.111 152.668 127.636 152.965 127.803 153.727Z" fill="#263238"/>
<path opacity="0.6" d="M127.803 153.727L132.952 177.162C133.12 177.932 133.869 178.568 134.624 178.568H162.752C163.501 178.568 163.983 177.769 163.809 176.999L158.666 153.815C158.492 153.053 157.75 152.667 156.994 152.667H128.866C128.111 152.668 127.636 152.965 127.803 153.727Z" fill="white"/>
<path opacity="0.4" d="M127.803 153.727L132.952 177.162C133.12 177.932 133.869 178.568 134.624 178.568H161.796C162.552 178.568 163.026 177.769 162.859 176.999L157.709 153.815C157.542 153.053 156.793 152.667 156.037 152.667H128.865C128.111 152.668 127.636 152.965 127.803 153.727Z" fill="white"/>
<path opacity="0.2" d="M144.351 168.747C143.042 168.747 141.698 167.34 141.355 165.611C141.019 163.875 141.803 162.468 143.119 162.468C143.364 162.468 143.609 162.517 143.847 162.608C144.155 163.959 145.072 165.093 146.08 165.471C146.094 165.52 146.108 165.562 146.115 165.611C146.458 167.34 145.667 168.747 144.351 168.747Z" fill="black"/>
<path d="M246.931 108.344L258.302 96.3533C262.683 98.7137 267.846 99.7042 273.137 98.8397C285.872 96.7593 294.51 84.748 292.429 72.0122C290.349 59.2764 278.338 50.6384 265.602 52.7195C252.866 54.7999 244.229 66.8112 246.309 79.547C247.194 84.965 249.881 89.6368 253.652 93.0619L246.931 108.344Z" fill="#7CC5EE"/>
<path opacity="0.7" d="M246.931 108.344L258.302 96.3533C262.683 98.7137 267.846 99.7042 273.137 98.8397C285.872 96.7593 294.51 84.748 292.429 72.0122C290.349 59.2764 278.338 50.6384 265.602 52.7195C252.866 54.7999 244.229 66.8112 246.309 79.547C247.194 84.965 249.881 89.6368 253.652 93.0619L246.931 108.344Z" fill="white"/>
<path d="M249.826 60.1899L271.242 43L293.246 60.1899L273.574 79.6485L249.826 60.1899Z" fill="#7CC5EE"/>
<path d="M291.289 50.9023H251.322V74.521H291.289V50.9023Z" fill="#7CC5EE"/>
<path opacity="0.5" d="M291.289 50.9023H251.322V74.521H291.289V50.9023Z" fill="white"/>
<path d="M289.273 56.3237H257.879V57.0804H289.273V56.3237Z" fill="white"/>
<path d="M289.272 58.5933H253.213V59.476H289.272V58.5933Z" fill="white"/>
<path d="M289.272 60.9885H253.213V61.8712H289.272V60.9885Z" fill="white"/>
<path d="M289.272 63.2581H253.213V64.1408H289.272V63.2581Z" fill="white"/>
<path d="M289.272 65.6113H253.213V66.494H289.272V65.6113Z" fill="white"/>
<path d="M289.336 67.6709H253.277V68.5536H289.336V67.6709Z" fill="white"/>
<path d="M289.336 69.9402H253.277V70.8229H289.336V69.9402Z" fill="white"/>
<path d="M289.272 71.7056H253.213V72.5883H289.272V71.7056Z" fill="white"/>
<path d="M293.246 85.658H249.826V60.1899L271.536 74.563L293.246 60.1899V85.658Z" fill="#7CC5EE"/>
<path opacity="0.2" d="M293.246 85.658H249.826V60.1899L271.536 74.563L293.246 60.1899V85.658Z" fill="white"/>
<path d="M200.912 98.8244L194.64 81.7353C199.113 78.5664 202.616 73.9548 204.351 68.3093C208.528 54.7209 200.898 40.3191 187.309 36.1429C173.721 31.966 159.319 39.596 155.143 53.1844C150.966 66.7728 158.596 81.1746 172.184 85.3508C177.966 87.1274 183.891 86.7613 189.117 84.7145L200.912 98.8244Z" fill="#F39C5D"/>
<path opacity="0.7" d="M200.912 98.8244L194.64 81.7353C199.113 78.5664 202.616 73.9548 204.351 68.3093C208.528 54.7209 200.898 40.3191 187.309 36.1429C173.721 31.966 159.319 39.596 155.143 53.1844C150.966 66.7728 158.596 81.1746 172.184 85.3508C177.966 87.1274 183.891 86.7613 189.117 84.7145L200.912 98.8244Z" fill="white"/>
<path d="M198.288 35.1531H163.266V80.3605H198.288V35.1531Z" fill="#F39C5D"/>
<path opacity="0.4" d="M198.288 37.5652H163.266V80.3604H198.288V37.5652Z" fill="white"/>
<path opacity="0.7" d="M181.312 40.4241H168.715C167.778 40.4241 167.018 41.1843 167.018 42.1216V44.6234C167.018 45.5607 167.778 46.3209 168.715 46.3209H169.166C168.89 47.24 168.176 47.8665 167.018 48.1969C168.633 48.1262 169.687 47.4955 170.198 46.3209H181.312C182.25 46.3209 183.01 45.5607 183.01 44.6234V42.1216C183.01 41.1843 182.25 40.4241 181.312 40.4241Z" fill="white"/>
<path opacity="0.7" d="M181.58 56.3274H168.447C167.657 56.3274 167.018 56.9672 167.018 57.7568V59.0077C167.018 59.7973 167.657 60.4371 168.447 60.4371H169.198C168.952 61.4283 168.23 62.101 167.018 62.4475C168.693 62.3747 169.764 61.6978 170.251 60.4371H181.58C182.37 60.4371 183.01 59.7973 183.01 59.0077V57.7568C183.01 56.9672 182.37 56.3274 181.58 56.3274Z" fill="white"/>
<path opacity="0.7" d="M193.083 63.7424H185.579C184.777 63.7424 184.127 64.3927 184.127 65.1942V65.8641C184.127 66.6663 184.777 67.3159 185.579 67.3159H190.855C191.343 68.5759 192.414 69.2535 194.089 69.3263C192.876 68.9798 192.153 68.3071 191.908 67.3159H193.083C193.886 67.3159 194.535 66.6656 194.535 65.8641V65.1942C194.535 64.3927 193.885 63.7424 193.083 63.7424Z" fill="white"/>
<path opacity="0.7" d="M193.106 47.3926H175.148C174.359 47.3926 173.719 48.0324 173.719 48.822V52.1274C173.719 52.917 174.359 53.5568 175.148 53.5568H190.803C191.264 54.9057 192.354 55.6253 194.089 55.7009C192.823 55.3397 192.094 54.6201 191.882 53.5568H193.106C193.896 53.5568 194.535 52.917 194.535 52.1274V48.822C194.535 48.0331 193.896 47.3926 193.106 47.3926Z" fill="white"/>
<path opacity="0.8" d="M194.586 77.8888H166.967C166.271 77.8888 165.707 77.3246 165.707 76.6288V76.0513C165.707 75.3555 166.271 74.7913 166.967 74.7913H194.586C195.281 74.7913 195.846 75.3555 195.846 76.0513V76.6288C195.845 77.3246 195.281 77.8888 194.586 77.8888Z" fill="white"/>
<path d="M148.032 113.74L131.672 107.4C132.226 102.145 131.12 96.6735 128.139 91.8239C120.965 80.15 105.685 76.5016 94.0114 83.6759C82.3375 90.8502 78.6891 106.13 85.8634 117.804C93.0377 129.478 108.317 133.125 119.991 125.951C124.958 122.899 128.465 118.377 130.311 113.293L148.032 113.74Z" fill="#A3A6E9"/>
<path opacity="0.7" d="M148.032 113.74L131.672 107.4C132.226 102.145 131.12 96.6735 128.139 91.8239C120.965 80.15 105.685 76.5016 94.0114 83.6759C82.3375 90.8502 78.6891 106.13 85.8634 117.804C93.0377 129.478 108.317 133.125 119.991 125.951C124.958 122.899 128.465 118.377 130.311 113.293L148.032 113.74Z" fill="white"/>
<path d="M131.465 111.514H82V112.589H131.465V111.514Z" fill="#A3A6E9"/>
<path opacity="0.3" d="M131.465 111.514H82V112.589H131.465V111.514Z" fill="black"/>
<path d="M94.2576 102.265H88.666V111.513H94.2576V102.265Z" fill="#A3A6E9"/>
<path opacity="0.4" d="M94.2576 102.265H88.666V111.513H94.2576V102.265Z" fill="white"/>
<path d="M104.152 97.104H98.5605V111.514H104.152V97.104Z" fill="#A3A6E9"/>
<path opacity="0.4" d="M104.152 97.104H98.5605V111.514H104.152V97.104Z" fill="white"/>
<path d="M114.474 91.9424H108.883V111.514H114.474V91.9424Z" fill="#A3A6E9"/>
<path opacity="0.4" d="M114.474 91.9424H108.883V111.514H114.474V91.9424Z" fill="white"/>
<path d="M124.799 86.9954H119.207V111.513H124.799V86.9954Z" fill="#A3A6E9"/>
<path opacity="0.2" d="M124.799 86.9954H119.207V111.513H124.799V86.9954Z" fill="#263238"/>
</svg>
