<svg width="48" height="48" viewBox="0 0 48 48" fill="none" xmlns="http://www.w3.org/2000/svg">
<path fill-rule="evenodd" clip-rule="evenodd" d="M43.867 13.9741C43.867 10.2486 40.8368 7.21888 37.1149 7.21888C33.3878 7.21888 30.3575 10.2486 30.3575 13.9741C30.3575 15.8749 31.1515 17.5932 32.4156 18.8221V18.0173C32.4156 16.157 33.5067 14.5456 35.0786 13.7851C34.5114 13.2461 34.1549 12.4854 34.1549 11.6433C34.1549 10.0121 35.4837 8.6849 37.1149 8.6849C38.7463 8.6849 40.075 10.0121 40.075 11.6433C40.075 12.4854 39.7185 13.246 39.1513 13.7851C40.7232 14.5456 41.8089 16.157 41.8089 18.0173V18.8221C43.0785 17.5932 43.867 15.875 43.867 13.9741ZM38.7895 11.6433C38.7895 12.5681 38.0387 13.32 37.1149 13.32C36.1912 13.32 35.435 12.5681 35.435 11.6433C35.435 10.7186 36.1912 9.96669 37.1149 9.96669C38.0388 9.96669 38.7895 10.7186 38.7895 11.6433ZM37.115 20.7289C35.8672 20.7289 34.7005 20.3891 33.7013 19.7981V18.0173C33.7013 16.1337 35.2299 14.6023 37.115 14.6023C38.9948 14.6023 40.5289 16.1336 40.5289 18.0173V19.7981C39.5242 20.3891 38.3574 20.7289 37.115 20.7289ZM28.4887 21.5332C28.4887 19.0582 26.4738 17.0454 23.9999 17.0454C21.526 17.0454 19.5111 19.0581 19.5111 21.5332C19.5111 24.0077 21.526 26.0203 23.9999 26.0203C26.4738 26.0203 28.4887 24.0077 28.4887 21.5332ZM23.9999 29.909C20.2728 29.909 17.2425 32.9393 17.2425 36.6637C17.2425 38.5645 18.0365 40.2839 19.3005 41.5122V40.7073C19.3005 38.8475 20.3916 37.2357 21.9636 36.4757C21.3964 35.9367 21.0398 35.1761 21.0398 34.3335C21.0398 32.7017 22.3687 31.3745 23.9999 31.3745C25.6312 31.3745 26.96 32.7017 26.96 34.3335C26.96 35.1762 26.6034 35.9367 26.0364 36.4757C27.6083 37.2358 28.6939 38.8476 28.6939 40.7073V41.5122C29.9633 40.2833 30.752 38.5645 30.752 36.6637C30.752 32.9392 27.7216 29.909 23.9999 29.909ZM23.9999 36.0101C23.0763 36.0101 22.32 35.2576 22.32 34.3334C22.32 33.4081 23.0763 32.6562 23.9999 32.6562C24.9236 32.6562 25.6744 33.4081 25.6744 34.3334C25.6744 35.2576 24.9236 36.0101 23.9999 36.0101ZM23.9999 43.4194C22.7522 43.4194 21.5854 43.0791 20.586 42.4887V40.7072C20.586 38.8242 22.1147 37.2918 23.9999 37.2918C25.8797 37.2918 27.4138 38.8243 27.4138 40.7072V42.4887C26.3797 43.099 25.2007 43.4205 23.9999 43.4194ZM17.6368 13.9482C17.6368 10.2227 14.6065 7.19239 10.8848 7.19239C7.15766 7.19239 4.12733 10.2226 4.12733 13.9482C4.12733 15.849 4.92134 17.5678 6.18538 18.7962V17.9913C6.18538 16.131 7.27651 14.5203 8.84832 13.7597C8.28115 13.2201 7.9247 12.4596 7.9247 11.618C7.9247 9.98618 9.25354 8.65898 10.8848 8.65898C12.516 8.65898 13.8448 9.98618 13.8448 11.618C13.8448 12.4596 13.4883 13.2201 12.9211 13.7597C14.493 14.5203 15.5787 16.131 15.5787 17.9913V18.7962C16.8482 17.5678 17.6368 15.849 17.6368 13.9482ZM12.5593 11.618C12.5593 12.5417 11.8085 13.2946 10.8848 13.2946C9.96106 13.2946 9.20486 12.5416 9.20486 11.618C9.20486 10.6932 9.96106 9.94135 10.8848 9.94135C11.8085 9.94135 12.5593 10.6932 12.5593 11.618ZM10.8848 20.7034C9.63696 20.7034 8.47027 20.3631 7.47091 19.7727V17.9912C7.47091 16.1077 8.99962 14.5763 10.8848 14.5763C12.7699 14.5763 14.2986 16.1077 14.2986 17.9912V19.7727C13.2939 20.3632 12.1271 20.7034 10.8848 20.7034ZM45.1526 13.9741C45.1526 18.4051 41.5444 22.0107 37.115 22.0107C34.3711 22.0107 31.9457 20.6285 30.4927 18.5239L29.2827 19.2213C30.8406 22.7454 28.5119 26.8354 24.6427 27.2659V28.6525C28.7749 28.9804 32.0375 32.4477 32.0375 36.6636C32.0375 41.0962 28.4292 44.7018 23.9999 44.7018C19.5652 44.7018 15.9623 41.0962 15.9623 36.6636C15.9623 32.4477 19.2249 28.9798 23.3571 28.6525V27.2659C19.478 26.8344 17.1515 22.719 18.7225 19.2094L17.5018 18.5045C16.0487 20.6063 13.6234 21.9853 10.8848 21.9853C6.45005 21.9853 2.84717 18.3797 2.84717 13.9482C2.84717 9.51616 6.45005 5.9106 10.8848 5.9106C15.3141 5.9106 18.9224 9.51616 18.9224 13.9482C18.9229 15.1407 18.6572 16.3183 18.1445 17.395L19.3652 18.102C21.686 14.9778 26.3416 14.992 28.6398 18.1123L29.8498 17.4139C29.3529 16.3703 29.0773 15.2041 29.0773 13.9741C29.0773 9.54208 32.6802 5.93709 37.1149 5.93709C41.5444 5.93709 45.1526 9.54208 45.1526 13.9741ZM25.2801 21.1443C27.1052 21.964 26.7557 24.0492 24.6427 24.456V24.5937C24.6427 24.9476 24.351 25.2343 23.9999 25.2343C23.6434 25.2343 23.3571 24.9475 23.3571 24.5937V24.4695C22.8547 24.4031 22.3686 24.2669 21.9094 24.058C21.5907 23.9116 21.4449 23.5313 21.5907 23.2093C21.7365 22.8869 22.12 22.7443 22.4388 22.8906C23.092 23.1887 24.0774 23.3814 24.7668 23.0878C25.1017 22.9436 25.1611 22.7929 25.1773 22.7026C25.1611 22.6194 25.1017 22.4715 24.7614 22.3186C24.21 22.0806 23.4308 22.2592 22.7412 21.9178C21.7958 21.4814 21.5797 20.8419 21.5636 20.3827C21.5495 19.5821 22.2104 18.8371 23.357 18.6136V18.4727C23.357 18.3884 23.3736 18.3049 23.4059 18.227C23.4382 18.1491 23.4856 18.0784 23.5453 18.0188C23.605 17.9593 23.6759 17.9122 23.7539 17.8801C23.8319 17.8481 23.9155 17.8317 23.9998 17.8321C24.3509 17.8321 24.6426 18.1183 24.6426 18.4727V18.5975C25.1666 18.665 25.6419 18.8017 26.0902 19.0129C26.4089 19.1652 26.544 19.5471 26.3927 19.8669C26.2415 20.1867 25.858 20.3222 25.5393 20.171C25.0963 19.9609 24.594 19.8496 24.0052 19.8318C23.7243 19.8351 23.4758 19.8843 23.2652 19.9756C23.2598 19.9772 23.2544 19.9778 23.2544 19.9799C22.6516 20.2294 22.7752 20.5334 23.2652 20.7496C23.8088 20.9891 24.3469 20.7718 25.2801 21.1443ZM15.7733 6.65604C15.8805 6.65582 15.9862 6.6297 16.0812 6.57991C16.4436 6.38487 16.813 6.2029 17.1885 6.03434C17.5126 5.89015 17.6531 5.51037 17.5126 5.18733C17.3668 4.86487 16.9886 4.71904 16.6645 4.86487C16.2594 5.04314 15.8597 5.24138 15.4708 5.45095C14.886 5.76477 15.1165 6.65604 15.7733 6.65604ZM23.1194 4.6002L24.405 4.5786C24.7507 4.5786 25.037 4.30317 25.0478 3.952C25.0495 3.86752 25.0345 3.78355 25.0036 3.70491C24.9727 3.62627 24.9265 3.55451 24.8678 3.49376C24.809 3.43301 24.7389 3.38448 24.6613 3.35094C24.5838 3.3174 24.5004 3.29953 24.4159 3.29834L23.087 3.31994C22.736 3.33616 22.4658 3.63866 22.482 3.99511C22.4983 4.33552 22.7845 4.6002 23.1194 4.6002ZM26.8466 4.80544C27.2517 4.87562 27.6568 4.95664 28.0566 5.05927C28.3962 5.13674 28.7486 4.93696 28.8344 4.58935C28.9154 4.24365 28.7047 3.89796 28.3644 3.81146C27.9333 3.70853 27.4992 3.61848 27.0627 3.54141C26.7116 3.48736 26.382 3.71968 26.3226 4.07076C26.2632 4.41655 26.5009 4.7514 26.8466 4.80544ZM30.4063 5.8193C30.7868 5.97519 31.1615 6.14474 31.5298 6.32762C31.6818 6.4033 31.8577 6.41548 32.0188 6.36149C32.1798 6.3075 32.3128 6.19176 32.3886 6.03972C32.5452 5.72263 32.4156 5.337 32.1023 5.17975C31.7035 4.98354 31.2982 4.80103 30.8869 4.63255C30.5628 4.49748 30.1847 4.65415 30.0551 4.98362C29.92 5.3105 30.0767 5.6848 30.4063 5.8193ZM19.3329 5.22084C19.3923 5.22084 19.4463 5.21325 19.5058 5.19703C19.9018 5.08612 20.3018 4.98974 20.7049 4.90807C21.056 4.83789 21.2774 4.50295 21.2073 4.15188C21.1908 4.06985 21.1582 3.9919 21.1115 3.92248C21.0648 3.85306 21.0049 3.79356 20.9351 3.74738C20.8654 3.7012 20.7872 3.66926 20.705 3.65338C20.6229 3.63751 20.5384 3.63802 20.4564 3.65488C20.0244 3.74128 19.5868 3.84391 19.1601 3.96276C18.4447 4.16455 18.5998 5.22084 19.3329 5.22084ZM34.4034 34.9362C34.0791 35.1882 33.7457 35.4283 33.4041 35.6562C32.871 36.0094 33.1261 36.831 33.7551 36.831C33.8819 36.8318 34.006 36.7948 34.1117 36.7247C34.4806 36.479 34.8409 36.2206 35.192 35.9501C35.4729 35.7329 35.5214 35.3305 35.3054 35.0501C35.0894 34.7709 34.6843 34.7196 34.4034 34.9362ZM39.9455 28.9885C39.6323 28.8275 39.2433 28.9534 39.0867 29.2694L38.4871 30.3497C38.2263 30.7829 38.5432 31.3214 39.0326 31.3214C39.2487 31.3214 39.4594 31.2112 39.5836 31.0119L40.2264 29.8506C40.2651 29.7757 40.2885 29.6938 40.2953 29.6097C40.3021 29.5256 40.2922 29.4411 40.266 29.3609C40.2399 29.2807 40.1981 29.2065 40.1431 29.1426C40.0881 29.0786 40.0209 29.0263 39.9455 28.9885ZM37.9576 32.277C37.6876 32.0512 37.2825 32.0896 37.061 32.3634C36.7967 32.6791 36.5229 32.9868 36.24 33.286C35.8427 33.6999 36.1451 34.3701 36.6992 34.3701C36.8721 34.3701 37.0395 34.3042 37.1637 34.1724C37.4714 33.8527 37.7669 33.5216 38.0496 33.1796C38.271 32.9057 38.2332 32.5017 37.9576 32.277ZM41.566 21.5288C41.2203 21.5196 40.9178 21.7973 40.9069 22.1511C40.8961 22.5605 40.8691 22.9748 40.8259 23.3827C40.7888 23.7581 41.0885 24.0897 41.4633 24.0897C41.7874 24.0897 42.0683 23.844 42.1006 23.515C42.1492 23.0759 42.1763 22.6297 42.1925 22.1889C42.2033 21.8351 41.9224 21.5402 41.566 21.5288ZM41.1716 25.3494C40.8313 25.2614 40.4802 25.4677 40.3937 25.8107C40.2902 26.2089 40.1732 26.6035 40.0427 26.9936C39.9012 27.4149 40.216 27.8395 40.6476 27.8395C40.7822 27.8397 40.9134 27.7977 41.0229 27.7196C41.1323 27.6414 41.2146 27.5309 41.258 27.4036C41.3985 26.9849 41.5227 26.5565 41.6362 26.1293C41.7227 25.7869 41.5173 25.4369 41.1716 25.3494ZM6.63907 24.5645C6.99014 24.517 7.23869 24.194 7.19002 23.8434C7.13059 23.4366 7.09277 23.0235 7.06579 22.6145C7.04419 22.2612 6.73632 21.9922 6.38515 22.0144C6.03408 22.0366 5.76394 22.3406 5.78554 22.6939C5.81251 23.1336 5.85581 23.5792 5.91514 24.0168C5.9664 24.373 6.30566 24.618 6.63907 24.5645ZM8.09213 27.4279C7.94664 27.0427 7.8169 26.6516 7.70323 26.2558C7.60061 25.916 7.24406 25.7211 6.90384 25.8198C6.82297 25.8432 6.74755 25.8824 6.68195 25.9352C6.61634 25.9879 6.56187 26.0531 6.52167 26.1271C6.48148 26.2011 6.45637 26.2823 6.4478 26.366C6.43922 26.4497 6.44737 26.5343 6.47174 26.6149C6.59679 27.0397 6.73551 27.4603 6.88771 27.8762C7.01088 28.2076 7.38269 28.3747 7.71418 28.2521C8.04355 28.1285 8.21635 27.759 8.09213 27.4279ZM15.0062 35.868C14.6568 35.6504 14.3145 35.4216 13.9799 35.182C13.699 34.974 13.2939 35.0382 13.0886 35.3245C12.878 35.6108 12.9428 36.0116 13.2291 36.219C13.5886 36.4799 13.958 36.727 14.3364 36.9596C14.6343 37.1438 15.0322 37.0545 15.2169 36.7505C15.4005 36.4492 15.3086 36.0543 15.0062 35.868ZM9.58838 30.4669C9.4262 30.2045 9.26953 29.9386 9.11846 29.6696C8.95104 29.3601 8.56205 29.2472 8.2488 29.4179C7.94093 29.5892 7.82746 29.9786 8.00035 30.2886L8.68099 31.4284C8.87107 31.722 9.27014 31.8094 9.56688 31.6163C9.864 31.423 9.9504 31.0265 9.7559 30.7288C9.70186 30.643 9.64243 30.5549 9.58838 30.4669ZM12.0948 33.5912C11.8013 33.3031 11.5185 33.0043 11.2467 32.6957C11.0144 32.4299 10.6092 32.4045 10.3446 32.6384C10.0799 32.8729 10.0529 33.278 10.2852 33.5432C10.5786 33.8765 10.8849 34.1982 11.2035 34.5075C11.3232 34.6249 11.4841 34.6906 11.6518 34.6906C12.2079 34.6904 12.5121 33.9989 12.0948 33.5912Z" fill="url(#paint0_linear_134_1407)" stroke="url(#paint1_linear_134_1407)" stroke-width="0.5"/>
<defs>
<linearGradient id="paint0_linear_134_1407" x1="3.20875" y1="31.1661" x2="45.8758" y2="31.1661" gradientUnits="userSpaceOnUse">
<stop stop-color="#841524"/>
<stop offset="1" stop-color="#E83A3D"/>
</linearGradient>
<linearGradient id="paint1_linear_134_1407" x1="3.20875" y1="31.1661" x2="45.8758" y2="31.1661" gradientUnits="userSpaceOnUse">
<stop stop-color="#841524"/>
<stop offset="1" stop-color="#E83A3D"/>
</linearGradient>
</defs>
</svg>
