<svg width="48" height="48" viewBox="0 0 48 48" fill="none" xmlns="http://www.w3.org/2000/svg">
<g clip-path="url(#clip0_134_1434)">
<path d="M24 38.4844C16.0134 38.4844 9.51562 31.9866 9.51562 24C9.51562 16.0134 16.0134 9.51562 24 9.51562C31.9866 9.51562 38.4844 16.0134 38.4844 24C38.4844 31.9866 31.9866 38.4844 24 38.4844ZM24 12.3281C20.9055 12.3316 17.9387 13.5624 15.7506 15.7506C13.5624 17.9387 12.3316 20.9055 12.3281 24C12.3316 27.0945 13.5624 30.0613 15.7506 32.2494C17.9387 34.4376 20.9055 35.6684 24 35.6719C27.0945 35.6684 30.0613 34.4376 32.2494 32.2494C34.4376 30.0613 35.6684 27.0945 35.6719 24C35.6684 20.9055 34.4376 17.9387 32.2494 15.7506C30.0613 13.5624 27.0945 12.3316 24 12.3281Z" fill="url(#paint0_linear_134_1434)"/>
<path d="M25.4063 31.7606H22.5938V29.8734C21.78 29.6662 20.9644 29.2687 20.0981 28.6659L21.705 26.3578C22.5881 26.9718 23.2669 27.2353 23.9719 27.2353H23.9906C24.6985 27.2353 24.9572 26.7665 25.036 26.5631C25.1087 26.3582 25.0979 26.1329 25.006 25.9359C24.9407 25.7958 24.8478 25.6704 24.7327 25.5673C24.6177 25.4642 24.4829 25.3855 24.3366 25.3359C23.0391 24.8334 22.2 24.4772 21.4753 23.7806C21.0598 23.3818 20.7514 22.8848 20.5784 22.3355C20.4053 21.7861 20.3734 21.2021 20.4853 20.6371C20.6065 20.0764 20.8615 19.5533 21.2286 19.1126C21.5958 18.6718 22.0642 18.3264 22.5938 18.1059V16.2412H25.4063V18.0075C26.2256 18.2732 26.9701 18.7298 27.5785 19.3397L25.59 21.3281C25.2385 20.9765 24.4528 20.444 23.7403 20.6775C23.6184 20.7183 23.5086 20.7888 23.4209 20.8828C23.3331 20.9768 23.2702 21.0912 23.2378 21.2156C23.2234 21.314 23.2328 21.4145 23.2655 21.5085C23.2981 21.6025 23.353 21.6873 23.4253 21.7556C23.7581 22.0762 24.2935 22.305 25.3519 22.7147C25.8432 22.8984 26.2931 23.1779 26.6755 23.5369C27.0579 23.896 27.3651 24.3274 27.5794 24.8062C27.9703 25.6875 27.9972 26.6876 27.6544 27.5887C27.46 28.0974 27.1584 28.5583 26.7702 28.9402C26.382 29.3221 25.9162 29.6161 25.4044 29.8022L25.4063 31.7606Z" fill="url(#paint1_linear_134_1434)"/>
<path d="M2.33353 34.3351C0.740179 31.0122 -0.0586705 27.3643 9.26764e-05 23.6795C0.0337805 20.5268 0.692362 17.412 1.93773 14.5154C3.18309 11.6188 4.99051 8.99799 7.25541 6.80452C9.50879 4.59934 12.177 2.86274 15.1057 1.69513C18.0343 0.527514 21.1654 -0.0479461 24.3179 0.00201938C27.7379 0.0487771 31.1085 0.825556 34.2041 2.28036C37.2996 3.73517 40.0487 5.83443 42.2673 8.43764L40.1251 10.2583C38.1667 7.96051 35.7401 6.10759 33.0077 4.82352C30.2753 3.53945 27.3001 2.85386 24.2813 2.81264C12.5963 2.65514 2.96822 12.0339 2.81259 23.7189C2.76157 26.9711 3.46767 30.1906 4.87509 33.123L2.33353 34.3351Z" fill="url(#paint2_linear_134_1434)"/>
<path d="M24.0085 48.0001H23.6795C20.2603 47.9535 16.8904 47.1773 13.7954 45.7233C10.7004 44.2693 7.95162 42.1712 5.73291 39.5691L7.87322 37.7438C9.83197 40.0415 12.2589 41.8942 14.9917 43.178C17.7244 44.4617 20.6999 45.1469 23.7188 45.1876H24.0095C29.5314 45.2012 34.8373 43.0436 38.7826 39.1801C40.7823 37.2436 42.3781 34.9297 43.4775 32.3723C44.577 29.8149 45.1582 27.0649 45.1876 24.2813C45.2386 21.0291 44.5325 17.8096 43.1251 14.8773L45.6629 13.6651C47.2576 16.9877 48.0577 20.6357 48.0001 24.3207C47.9664 27.4735 47.3078 30.5883 46.0625 33.4848C44.8171 36.3814 43.0097 39.0023 40.7448 41.1957C36.2749 45.5718 30.264 48.0157 24.0085 48.0001ZM43.1692 11.4376L35.7629 11.3438L35.8004 8.53134L40.3942 8.59228L40.456 3.99854L43.2685 4.03603L43.1692 11.4376Z" fill="url(#paint3_linear_134_1434)"/>
<path d="M7.54398 44.0004L4.73242 43.9629L4.83086 36.5576L12.2362 36.6561L12.1987 39.4686L7.60586 39.4076L7.54398 44.0004Z" fill="url(#paint4_linear_134_1434)"/>
</g>
<defs>
<linearGradient id="paint0_linear_134_1434" x1="9.76322" y1="29.0138" x2="38.9796" y2="29.0138" gradientUnits="userSpaceOnUse">
<stop stop-color="#841524"/>
<stop offset="1" stop-color="#E83A3D"/>
</linearGradient>
<linearGradient id="paint1_linear_134_1434" x1="20.1648" y1="26.6869" x2="28.0266" y2="26.6869" gradientUnits="userSpaceOnUse">
<stop stop-color="#841524"/>
<stop offset="1" stop-color="#E83A3D"/>
</linearGradient>
<linearGradient id="paint2_linear_134_1434" x1="0.358354" y1="23.1099" x2="42.9898" y2="23.1099" gradientUnits="userSpaceOnUse">
<stop stop-color="#841524"/>
<stop offset="1" stop-color="#E83A3D"/>
</linearGradient>
<linearGradient id="paint3_linear_134_1434" x1="6.09419" y1="33.615" x2="48.7256" y2="33.615" gradientUnits="userSpaceOnUse">
<stop stop-color="#841524"/>
<stop offset="1" stop-color="#E83A3D"/>
</linearGradient>
<linearGradient id="paint4_linear_134_1434" x1="4.79656" y1="41.5672" x2="12.3644" y2="41.5672" gradientUnits="userSpaceOnUse">
<stop stop-color="#841524"/>
<stop offset="1" stop-color="#E83A3D"/>
</linearGradient>
<clipPath id="clip0_134_1434">
<rect width="48" height="48" fill="white"/>
</clipPath>
</defs>
</svg>
