<svg width="20" height="21" viewBox="0 0 20 21" fill="none" xmlns="http://www.w3.org/2000/svg">
<path d="M15 3.83341H14.1667V3.00008C14.1667 2.77907 14.0789 2.56711 13.9226 2.41083C13.7663 2.25455 13.5543 2.16675 13.3333 2.16675C13.1123 2.16675 12.9004 2.25455 12.7441 2.41083C12.5878 2.56711 12.5 2.77907 12.5 3.00008V3.83341H7.5V3.00008C7.5 2.77907 7.4122 2.56711 7.25592 2.41083C7.09964 2.25455 6.88768 2.16675 6.66667 2.16675C6.44565 2.16675 6.23369 2.25455 6.07741 2.41083C5.92113 2.56711 5.83333 2.77907 5.83333 3.00008V3.83341H5C4.33696 3.83341 3.70107 4.09681 3.23223 4.56565C2.76339 5.03449 2.5 5.67037 2.5 6.33341V16.3334C2.5 16.9965 2.76339 17.6323 3.23223 18.1012C3.70107 18.57 4.33696 18.8334 5 18.8334H15C15.663 18.8334 16.2989 18.57 16.7678 18.1012C17.2366 17.6323 17.5 16.9965 17.5 16.3334V6.33341C17.5 5.67037 17.2366 5.03449 16.7678 4.56565C16.2989 4.09681 15.663 3.83341 15 3.83341ZM5 5.50008H5.83333V6.33341C5.83333 6.55443 5.92113 6.76639 6.07741 6.92267C6.23369 7.07895 6.44565 7.16675 6.66667 7.16675C6.88768 7.16675 7.09964 7.07895 7.25592 6.92267C7.4122 6.76639 7.5 6.55443 7.5 6.33341V5.50008H12.5V6.33341C12.5 6.55443 12.5878 6.76639 12.7441 6.92267C12.9004 7.07895 13.1123 7.16675 13.3333 7.16675C13.5543 7.16675 13.7663 7.07895 13.9226 6.92267C14.0789 6.76639 14.1667 6.55443 14.1667 6.33341V5.50008H15C15.221 5.50008 15.433 5.58788 15.5893 5.74416C15.7455 5.90044 15.8333 6.1124 15.8333 6.33341V9.66675H4.16667V6.33341C4.16667 6.1124 4.25446 5.90044 4.41074 5.74416C4.56702 5.58788 4.77899 5.50008 5 5.50008ZM15 17.1667H5C4.77899 17.1667 4.56702 17.079 4.41074 16.9227C4.25446 16.7664 4.16667 16.5544 4.16667 16.3334V11.3334H15.8333V16.3334C15.8333 16.5544 15.7455 16.7664 15.5893 16.9227C15.433 17.079 15.221 17.1667 15 17.1667Z" fill="white"/>
<path d="M6.66732 14.6667C7.12756 14.6667 7.50065 14.2936 7.50065 13.8333C7.50065 13.3731 7.12756 13 6.66732 13C6.20708 13 5.83398 13.3731 5.83398 13.8333C5.83398 14.2936 6.20708 14.6667 6.66732 14.6667Z" fill="white"/>
<path d="M13.3327 13H9.99935C9.77834 13 9.56637 13.0878 9.41009 13.2441C9.25381 13.4004 9.16602 13.6123 9.16602 13.8333C9.16602 14.0543 9.25381 14.2663 9.41009 14.4226C9.56637 14.5789 9.77834 14.6667 9.99935 14.6667H13.3327C13.5537 14.6667 13.7657 14.5789 13.9219 14.4226C14.0782 14.2663 14.166 14.0543 14.166 13.8333C14.166 13.6123 14.0782 13.4004 13.9219 13.2441C13.7657 13.0878 13.5537 13 13.3327 13Z" fill="white"/>
</svg>
