<svg width="48" height="48" viewBox="0 0 48 48" fill="none" xmlns="http://www.w3.org/2000/svg">
<path d="M35.667 19.8132C36.5342 19.2674 37.1548 18.4283 37.4215 17.4331C37.7018 16.3867 37.558 15.2938 37.0163 14.3557C35.9249 12.4652 33.5307 11.7863 31.6154 12.7957L27.9733 6.48735C27.4916 5.65302 26.711 5.05547 25.7754 4.80475C24.8396 4.55402 23.8648 4.68122 23.0306 5.16302C22.1963 5.64473 21.5987 6.42529 21.348 7.36084C21.1591 8.06584 21.185 8.79306 21.4152 9.46566C19.6852 13.8252 16.0239 18.2713 11.0529 22.0642C10.9752 22.0118 10.8895 21.9726 10.7991 21.9481C10.6907 21.919 10.5776 21.9116 10.4663 21.9262C10.355 21.9409 10.2476 21.9773 10.1504 22.0335L5.50294 24.7168C3.93941 25.6195 2.81938 27.083 2.34921 28.8377C1.87904 30.5923 2.1172 32.4198 3.02001 33.9834C4.27511 36.1573 6.55979 37.3739 8.90611 37.3739C10.0561 37.3739 11.221 37.0815 12.2865 36.4664L12.5526 36.3128L17.6779 43.0046C18.032 43.4669 18.5257 43.739 19.106 43.7915C19.1719 43.7975 19.2371 43.8004 19.3017 43.8004C19.8059 43.8004 20.2693 43.6202 20.6517 43.2733L22.0632 41.9925C22.8487 41.2796 22.9566 40.1056 22.3141 39.2616L17.4949 32.9298C23.219 30.5628 28.8479 29.6352 33.452 30.3119C34.1495 31.1101 35.1541 31.5482 36.1816 31.5482C36.8147 31.5483 37.4367 31.3814 37.9847 31.0641C39.7125 30.0666 40.3067 27.8494 39.3091 26.1215L35.667 19.8132ZM35.5356 15.2105C35.8489 15.7532 35.9322 16.3854 35.77 16.9906C35.6216 17.5446 35.2833 18.0148 34.811 18.3308L32.4711 14.278C33.5683 13.7387 34.9154 14.1363 35.5356 15.2105ZM8.90329 35.6645C7.14853 35.6644 5.43933 34.7544 4.50053 33.1285C3.82614 31.9604 3.64859 30.5938 4.00062 29.2802C4.35256 27.9667 5.18963 26.8718 6.3577 26.1975L10.2649 23.9416L15.3388 32.7299L11.4316 34.9858C10.6633 35.4307 9.79113 35.6649 8.90329 35.6645ZM20.9142 40.7264L19.5028 42.0071C19.4282 42.0748 19.3597 42.0978 19.2598 42.0887C19.1594 42.0796 19.0965 42.0449 19.0352 41.965L14.0457 35.4507L16.2822 34.1595L20.9536 40.2971C21.0024 40.3604 21.0254 40.4398 21.0181 40.5194C21.0108 40.599 20.9737 40.673 20.9142 40.7264ZM16.5793 31.4588L11.986 23.503C16.7707 19.8728 20.4239 15.6335 22.4439 11.3833L32.3043 28.462C27.6135 28.0863 22.1153 29.1303 16.5793 31.4588ZM37.1298 29.5834C36.2182 30.1098 35.0488 29.7961 34.5226 28.8849L23.1868 9.25067C22.6606 8.33922 22.974 7.1697 23.8854 6.64354C24.1727 6.47707 24.4989 6.38942 24.8309 6.38947C24.998 6.38947 25.1665 6.41153 25.3328 6.45607C25.8273 6.58857 26.2393 6.90324 26.4926 7.34212L37.8283 26.9762C38.3545 27.8877 38.0411 29.0572 37.1298 29.5834ZM38.0594 13.7534C37.8233 13.3446 37.9634 12.8217 38.3723 12.5857L41.804 10.6044C42.2129 10.3683 42.7357 10.5085 42.9718 10.9173C43.2079 11.3262 43.0678 11.849 42.6589 12.085L39.2272 14.0663C39.13 14.1225 39.0226 14.159 38.9113 14.1736C38.8 14.1883 38.6869 14.1809 38.5785 14.1518C38.47 14.1228 38.3684 14.0727 38.2793 14.0043C38.1902 13.9359 38.1155 13.8507 38.0594 13.7534ZM34.1032 8.24775L36.1931 4.62779C36.4291 4.219 36.9519 4.07872 37.3608 4.31491C37.7697 4.55094 37.9098 5.07377 37.6737 5.48264L35.5838 9.10261C35.5277 9.19985 35.4529 9.28508 35.3639 9.35344C35.2748 9.42179 35.1732 9.47193 35.0647 9.50099C34.9563 9.53004 34.8432 9.53744 34.7319 9.52277C34.6206 9.5081 34.5133 9.47165 34.416 9.41548C34.0071 9.17946 33.8671 8.65663 34.1032 8.24775ZM45.8842 19.0778C45.8842 19.5499 45.5014 19.9327 45.0293 19.9327H40.8494C40.3774 19.9327 39.9946 19.5499 39.9946 19.0778C39.9946 18.6057 40.3774 18.223 40.8494 18.223H45.0293C45.5014 18.223 45.8842 18.6057 45.8842 19.0778Z" fill="url(#paint0_linear_134_1400)" stroke="url(#paint1_linear_134_1400)"/>
<defs>
<linearGradient id="paint0_linear_134_1400" x1="2.48763" y1="30.8542" x2="46.6324" y2="30.8542" gradientUnits="userSpaceOnUse">
<stop stop-color="#841524"/>
<stop offset="1" stop-color="#E83A3D"/>
</linearGradient>
<linearGradient id="paint1_linear_134_1400" x1="2.48763" y1="30.8542" x2="46.6324" y2="30.8542" gradientUnits="userSpaceOnUse">
<stop stop-color="#841524"/>
<stop offset="1" stop-color="#E83A3D"/>
</linearGradient>
</defs>
</svg>
