<svg width="18" height="19" viewBox="0 0 18 19" fill="none" xmlns="http://www.w3.org/2000/svg">
<path d="M14.25 14H3.75C3.33579 14 3 14.3358 3 14.75C3 15.1642 3.33579 15.5 3.75 15.5H14.25C14.6642 15.5 15 15.1642 15 14.75C15 14.3358 14.6642 14 14.25 14Z" fill="url(#paint0_linear_379_2028)"/>
<path d="M3 13.25V14.75C3 15.1642 3.33579 15.5 3.75 15.5C4.16421 15.5 4.5 15.1642 4.5 14.75V13.25C4.5 12.8358 4.16421 12.5 3.75 12.5C3.33579 12.5 3 12.8358 3 13.25Z" fill="url(#paint1_linear_379_2028)"/>
<path d="M13.5 13.25V14.75C13.5 15.1642 13.8358 15.5 14.25 15.5C14.6642 15.5 15 15.1642 15 14.75V13.25C15 12.8358 14.6642 12.5 14.25 12.5C13.8358 12.5 13.5 12.8358 13.5 13.25Z" fill="url(#paint2_linear_379_2028)"/>
<path d="M9.00008 11.75C8.8446 11.7512 8.69258 11.704 8.56508 11.615L5.56509 9.5C5.40339 9.3853 5.29369 9.21125 5.25996 9.0159C5.22623 8.82054 5.27122 8.61978 5.38509 8.4575C5.44192 8.37639 5.51427 8.30734 5.59794 8.25433C5.68161 8.20133 5.77495 8.16542 5.87257 8.14869C5.9702 8.13195 6.07017 8.13472 6.16671 8.15683C6.26326 8.17894 6.35447 8.21995 6.43509 8.2775L9.00008 10.07L11.5501 8.15C11.7092 8.03066 11.9092 7.97941 12.1062 8.00754C12.3031 8.03567 12.4807 8.14087 12.6001 8.3C12.7194 8.45913 12.7707 8.65916 12.7425 8.85607C12.7144 9.05298 12.6092 9.23066 12.4501 9.35L9.45009 11.6C9.32026 11.6974 9.16236 11.75 9.00008 11.75Z" fill="url(#paint3_linear_379_2028)"/>
<path d="M9 10.25C8.80109 10.25 8.61032 10.171 8.46967 10.0303C8.32902 9.88968 8.25 9.69891 8.25 9.5V3.5C8.25 3.30109 8.32902 3.11032 8.46967 2.96967C8.61032 2.82902 8.80109 2.75 9 2.75C9.19891 2.75 9.38968 2.82902 9.53033 2.96967C9.67098 3.11032 9.75 3.30109 9.75 3.5V9.5C9.75 9.69891 9.67098 9.88968 9.53033 10.0303C9.38968 10.171 9.19891 10.25 9 10.25Z" fill="url(#paint4_linear_379_2028)"/>
<defs>
<linearGradient id="paint0_linear_379_2028" x1="3.10256" y1="15.0096" x2="15.2051" y2="15.0096" gradientUnits="userSpaceOnUse">
<stop stop-color="#841524"/>
<stop offset="1" stop-color="#E83A3D"/>
</linearGradient>
<linearGradient id="paint1_linear_379_2028" x1="4.00962" y1="15.4744" x2="4.00962" y2="12.4487" gradientUnits="userSpaceOnUse">
<stop stop-color="#841524"/>
<stop offset="1" stop-color="#E83A3D"/>
</linearGradient>
<linearGradient id="paint2_linear_379_2028" x1="14.5096" y1="15.4744" x2="14.5096" y2="12.4487" gradientUnits="userSpaceOnUse">
<stop stop-color="#841524"/>
<stop offset="1" stop-color="#E83A3D"/>
</linearGradient>
<linearGradient id="paint3_linear_379_2028" x1="5.31314" y1="10.5241" x2="12.8783" y2="10.5241" gradientUnits="userSpaceOnUse">
<stop stop-color="#841524"/>
<stop offset="1" stop-color="#E83A3D"/>
</linearGradient>
<linearGradient id="paint4_linear_379_2028" x1="8.26282" y1="7.79808" x2="9.77564" y2="7.79808" gradientUnits="userSpaceOnUse">
<stop stop-color="#841524"/>
<stop offset="1" stop-color="#E83A3D"/>
</linearGradient>
</defs>
</svg>
