<svg width="40" height="40" viewBox="0 0 40 40" fill="none" xmlns="http://www.w3.org/2000/svg">
<g clip-path="url(#clip0_379_602)">
<path d="M15.7437 29.2204L0 16.8767V34.6294C0.00129629 35.7414 0.443605 36.8074 1.22991 37.5937C2.01621 38.38 3.08229 38.8224 4.19429 38.8237H35.8098C36.9218 38.8226 37.9879 38.3803 38.7741 37.5939C39.5603 36.8076 40.0024 35.7414 40.0033 34.6294V16.8767L24.2563 29.2204C23.0431 30.1753 21.544 30.6946 20 30.6946C18.456 30.6946 16.9569 30.1753 15.7437 29.2204Z" fill="white" fill-opacity="0.4"/>
<path d="M31.8816 5.23926H8.11918C7.02004 5.23991 5.96609 5.67671 5.18873 6.45377C4.41137 7.23082 3.97414 8.28461 3.97306 9.38375V18.7168L16.3616 28.4311C17.3981 29.2474 18.679 29.6913 19.9984 29.6913C21.3177 29.6913 22.5987 29.2474 23.6351 28.4311L36.0245 18.7168V9.38375C36.0234 8.28518 35.5866 7.23188 34.81 6.45492C34.0333 5.67796 32.9802 5.24077 31.8816 5.23926ZM27.6212 14.1813L20.1469 21.6466C19.5888 22.2045 18.832 22.5179 18.0429 22.5179C17.2537 22.5179 16.4969 22.2045 15.9388 21.6466L12.3812 18.0891C11.9703 17.6775 11.7394 17.1196 11.7394 16.538C11.7394 15.9564 11.9703 15.3986 12.3812 14.987C12.7928 14.5761 13.3506 14.3452 13.9322 14.3452C14.5139 14.3452 15.0717 14.5761 15.4833 14.987L17.3535 16.8572C17.4445 16.9485 17.5526 17.021 17.6717 17.0704C17.7908 17.1199 17.9184 17.1453 18.0473 17.1453C18.1763 17.1453 18.3039 17.1199 18.423 17.0704C18.5421 17.021 18.6502 16.9485 18.7412 16.8572L24.5175 11.0809C24.929 10.6697 25.4869 10.4388 26.0686 10.4388C26.6503 10.4388 27.2081 10.6697 27.6196 11.0809C27.8236 11.2844 27.9853 11.5261 28.0956 11.7923C28.2058 12.0585 28.2624 12.3438 28.262 12.6319C28.2625 12.9196 28.2061 13.2046 28.0961 13.4705C27.9862 13.7364 27.8248 13.9779 27.6212 14.1813Z" fill="#EF3D3F"/>
<path d="M24.3306 4.23516H15.6702C15.6197 4.23495 15.5713 4.21473 15.5357 4.17893C15.5 4.14313 15.48 4.09466 15.48 4.04414C15.4801 4.01549 15.4867 3.98724 15.4993 3.96151C15.5118 3.93577 15.5301 3.91322 15.5527 3.89557L16.3641 3.25965C17.4005 2.44352 18.6813 1.99976 20.0004 1.99976C21.3196 1.99976 22.6004 2.44352 23.6367 3.25965L24.4473 3.89557C24.4671 3.91081 24.4836 3.92983 24.4959 3.9515C24.5083 3.97317 24.5162 3.99707 24.5192 4.02182C24.5222 4.04657 24.5203 4.07167 24.5136 4.09568C24.5069 4.11969 24.4955 4.14213 24.48 4.16169C24.4623 4.18451 24.4397 4.20299 24.4138 4.21572C24.3879 4.22845 24.3595 4.2351 24.3306 4.23516Z" fill="white" fill-opacity="0.4"/>
<path d="M39.2678 16.1755L37.7094 17.4C37.6661 17.4342 37.6164 17.4594 37.5633 17.4744C37.5102 17.4893 37.4547 17.4936 37.3999 17.487C37.3452 17.4804 37.2922 17.463 37.2442 17.4359C37.1962 17.4088 37.154 17.3725 37.12 17.329C37.0621 17.2552 37.0308 17.164 37.031 17.0702V14.6261C37.031 14.5149 37.0752 14.4081 37.1539 14.3294C37.2326 14.2508 37.3393 14.2065 37.4506 14.2065C37.5445 14.2066 37.6356 14.2382 37.7094 14.2963L39.2678 15.5208C39.3552 15.5897 39.4118 15.6904 39.4251 15.8008C39.4384 15.9113 39.4074 16.0226 39.3388 16.1102C39.3178 16.1367 39.294 16.1608 39.2678 16.1821V16.1755Z" fill="white" fill-opacity="0.4"/>
<path d="M2.97061 14.6228V17.0669C2.97061 17.1781 2.92641 17.2849 2.84772 17.3636C2.76903 17.4422 2.6623 17.4865 2.55102 17.4865C2.45699 17.4865 2.36563 17.4552 2.29143 17.3975L0.73306 16.173C0.645629 16.1041 0.589057 16.0034 0.575744 15.893C0.562431 15.7825 0.593464 15.6712 0.66204 15.5836C0.682752 15.5569 0.706596 15.5328 0.73306 15.5118L2.29224 14.2873C2.33558 14.2533 2.3852 14.2282 2.43825 14.2134C2.49131 14.1986 2.54676 14.1944 2.60143 14.2011C2.65611 14.2078 2.70893 14.2251 2.75687 14.2523C2.80481 14.2794 2.84693 14.3157 2.88082 14.3591C2.93891 14.4329 2.97053 14.524 2.97061 14.6179V14.6228Z" fill="white" fill-opacity="0.4"/>
</g>
<defs>
<clipPath id="clip0_379_602">
<rect width="40" height="36.8237" fill="white" transform="translate(0 2)"/>
</clipPath>
</defs>
</svg>
