<svg width="350" height="309" viewBox="0 0 350 309" fill="none" xmlns="http://www.w3.org/2000/svg">
<g clip-path="url(#clip0_391_9267)">
<path d="M37.8265 193.223H4.52148V268.11H37.8265V193.223Z" fill="#FFE9E9"/>
<path d="M87.2425 157.102H53.9375V268.11H87.2425V157.102Z" fill="#FFE9E9"/>
<path d="M136.658 130.007H103.354V268.11H136.658V130.007Z" fill="#FFE9E9"/>
<path d="M186.075 193.223H152.77V268.11H186.075V193.223Z" fill="#FFE9E9"/>
<path d="M235.481 166.128H202.176V268.101H235.481V166.128Z" fill="#FFE9E9"/>
<path d="M284.897 120.972H251.592V268.101H284.897V120.972Z" fill="#FFE9E9"/>
<path d="M334.313 39.6953H301.008V268.11H334.313V39.6953Z" fill="#FFE9E9"/>
<path d="M21.1738 170.496L69.8406 134.086L120.006 107.533L169.413 170.496L217.845 142.607L268.732 98.2904L320.097 15.7771" stroke="#FED7D7" stroke-width="5" stroke-miterlimit="10"/>
<path d="M27.1308 170.496C27.1308 173.782 24.4682 176.453 21.1738 176.453C17.8794 176.453 15.2168 173.791 15.2168 170.496C15.2168 167.202 17.8794 164.539 21.1738 164.539C24.4682 164.539 27.1308 167.202 27.1308 170.496Z" fill="#FAFAFA" stroke="#FED7D7" stroke-width="5" stroke-miterlimit="10"/>
<path d="M69.8398 140.043C73.1297 140.043 75.7968 137.376 75.7968 134.086C75.7968 130.796 73.1297 128.129 69.8398 128.129C66.5498 128.129 63.8828 130.796 63.8828 134.086C63.8828 137.376 66.5498 140.043 69.8398 140.043Z" fill="#FAFAFA" stroke="#FED7D7" stroke-width="5" stroke-miterlimit="10"/>
<path d="M125.953 107.569C125.953 110.854 123.29 113.526 119.996 113.526C116.702 113.526 114.039 110.863 114.039 107.569C114.039 104.274 116.702 101.612 119.996 101.612C123.29 101.612 125.953 104.274 125.953 107.569Z" fill="#FAFAFA" stroke="#FED7D7" stroke-width="5" stroke-miterlimit="10"/>
<path d="M175.369 169.449C175.369 172.735 172.706 175.406 169.412 175.406C166.118 175.406 163.455 172.744 163.455 169.449C163.455 166.155 166.118 163.492 169.412 163.492C172.706 163.492 175.369 166.155 175.369 169.449Z" fill="#FAFAFA" stroke="#FED7D7" stroke-width="5" stroke-miterlimit="10"/>
<path d="M218.828 147.986C222.118 147.986 224.785 145.319 224.785 142.029C224.785 138.739 222.118 136.072 218.828 136.072C215.538 136.072 212.871 138.739 212.871 142.029C212.871 145.319 215.538 147.986 218.828 147.986Z" fill="#FAFAFA" stroke="#FED7D7" stroke-width="5" stroke-miterlimit="10"/>
<path d="M268.678 103.634C271.968 103.634 274.635 100.967 274.635 97.6767C274.635 94.3868 271.968 91.7197 268.678 91.7197C265.388 91.7197 262.721 94.3868 262.721 97.6767C262.721 100.967 265.388 103.634 268.678 103.634Z" fill="#FAFAFA" stroke="#FED7D7" stroke-width="5" stroke-miterlimit="10"/>
<path d="M319.031 23.2594C322.321 23.2594 324.988 20.5924 324.988 17.3024C324.988 14.0125 322.321 11.3455 319.031 11.3455C315.741 11.3455 313.074 14.0125 313.074 17.3024C313.074 20.5924 315.741 23.2594 319.031 23.2594Z" fill="#FAFAFA" stroke="#FED7D7" stroke-width="5" stroke-miterlimit="10"/>
<path d="M175 308.87C271.65 308.87 350 304.295 350 298.653C350 293.01 271.65 288.436 175 288.436C78.3502 288.436 0 293.01 0 298.653C0 304.295 78.3502 308.87 175 308.87Z" fill="#F5F5F5"/>
<path d="M310.9 235.12C310.9 235.12 304.925 230.138 299.798 235.12C294.671 240.103 293.688 270.962 293.688 270.962" stroke="#EE7C7D" stroke-width="0.94" stroke-miterlimit="10"/>
<path d="M293.264 276.918C293.264 276.918 296.784 240.698 283.525 225.481" stroke="#EE7C7D" stroke-width="0.94" stroke-miterlimit="10"/>
<path d="M294.527 273.1C294.527 273.1 291.81 231.871 301.756 222.728" stroke="#EE7C7D" stroke-width="0.94" stroke-miterlimit="10"/>
<path d="M293.264 273.1C293.264 273.1 293.029 245.852 285.646 241.619C278.254 237.386 274.49 251.195 274.49 251.195" stroke="#EE7C7D" stroke-width="0.94" stroke-miterlimit="10"/>
<path d="M296.179 273.1C296.179 273.1 294.969 252.188 300.701 244.705C306.423 237.232 312.452 247.91 312.452 247.91" stroke="#EE7C7D" stroke-width="0.94" stroke-miterlimit="10"/>
<path d="M294.184 275.908C294.184 275.908 297.884 226.997 291.756 218.702" stroke="#EE7C7D" stroke-width="0.94" stroke-miterlimit="10"/>
<path d="M279.31 245.59C279.31 245.59 282.993 246.953 281.9 250.157C280.808 253.361 269.156 258.641 269.156 258.641C269.156 258.641 264.273 254.165 268.759 246.89C273.245 239.615 279.22 243.289 279.319 245.59H279.31Z" fill="#EE7C7D"/>
<path opacity="0.4" d="M279.31 245.59C279.31 245.59 282.993 246.953 281.9 250.157C280.808 253.361 269.156 258.641 269.156 258.641C269.156 258.641 264.273 254.165 268.759 246.89C273.245 239.615 279.22 243.289 279.319 245.59H279.31Z" fill="white"/>
<path d="M295.33 239.489C295.33 239.489 291.404 239.326 291.178 242.711C290.952 246.096 299.68 255.446 299.68 255.446C299.68 255.446 305.908 253.199 304.572 244.76C303.237 236.321 296.305 237.413 295.33 239.498V239.489Z" fill="#EE7C7D"/>
<path opacity="0.4" d="M295.33 239.489C295.33 239.489 291.404 239.326 291.178 242.711C290.952 246.096 299.68 255.446 299.68 255.446C299.68 255.446 305.908 253.199 304.572 244.76C303.237 236.321 296.305 237.413 295.33 239.498V239.489Z" fill="white"/>
<path d="M298.652 223.297C298.652 223.297 296.035 223.017 296.242 221.419C296.45 219.822 306.414 215.724 312.29 222.358C312.29 222.358 308.526 228.82 303.084 228.902C297.641 228.983 298.643 223.288 298.643 223.288L298.652 223.297Z" fill="#EE7C7D"/>
<path opacity="0.4" d="M298.652 223.297C298.652 223.297 296.035 223.017 296.242 221.419C296.45 219.822 306.414 215.724 312.29 222.358C312.29 222.358 308.526 228.82 303.084 228.902C297.641 228.983 298.643 223.288 298.643 223.288L298.652 223.297Z" fill="white"/>
<path d="M293.779 219.425C293.779 219.425 296.144 220.571 296.811 219.109C297.479 217.647 291.188 208.892 282.695 211.419C282.695 211.419 282.47 218.892 287.046 221.843C291.622 224.795 293.779 219.434 293.779 219.434V219.425Z" fill="#EE7C7D"/>
<path opacity="0.4" d="M293.779 219.425C293.779 219.425 296.144 220.571 296.811 219.109C297.479 217.647 291.188 208.892 282.695 211.419C282.695 211.419 282.47 218.892 287.046 221.843C291.622 224.795 293.779 219.434 293.779 219.434V219.425Z" fill="white"/>
<path d="M306.171 244.308C306.171 244.308 304.366 242.846 306.315 242.142C308.265 241.429 317.823 241.637 317.922 251.105C317.922 251.105 306.785 252.955 305.404 249.345C304.023 245.735 306.162 244.308 306.162 244.308H306.171Z" fill="#EE7C7D"/>
<path opacity="0.4" d="M306.171 244.308C306.171 244.308 304.366 242.846 306.315 242.142C308.265 241.429 317.823 241.637 317.922 251.105C317.922 251.105 306.785 252.955 305.404 249.345C304.023 245.735 306.162 244.308 306.162 244.308H306.171Z" fill="white"/>
<path d="M283.462 223.062C283.462 223.062 285.268 221.6 283.318 220.896C281.368 220.183 271.81 220.39 271.711 229.858C271.711 229.858 282.849 231.709 284.23 228.098C285.611 224.488 283.471 223.062 283.471 223.062H283.462Z" fill="#EE7C7D"/>
<path opacity="0.4" d="M283.462 223.062C283.462 223.062 285.268 221.6 283.318 220.896C281.368 220.183 271.81 220.39 271.711 229.858C271.711 229.858 282.849 231.709 284.23 228.098C285.611 224.488 283.471 223.062 283.471 223.062H283.462Z" fill="white"/>
<path d="M289.347 230.689C289.347 230.689 289.509 228.92 288.074 229.615C286.639 230.31 281.657 235.689 286.829 240.789C286.829 240.789 293.787 235.635 292.533 232.954C291.278 230.274 289.356 230.689 289.356 230.689H289.347Z" fill="#EE7C7D"/>
<path opacity="0.4" d="M289.347 230.689C289.347 230.689 289.509 228.92 288.074 229.615C286.639 230.31 281.657 235.689 286.829 240.789C286.829 240.789 293.787 235.635 292.533 232.954C291.278 230.274 289.356 230.689 289.356 230.689H289.347Z" fill="white"/>
<path d="M307.787 233.216C307.787 233.216 306.704 231.799 308.292 231.627C309.872 231.456 316.957 233.342 315.305 240.419C315.305 240.419 306.677 239.769 306.307 236.835C305.937 233.902 307.787 233.225 307.787 233.225V233.216Z" fill="#EE7C7D"/>
<path opacity="0.4" d="M307.787 233.216C307.787 233.216 306.704 231.799 308.292 231.627C309.872 231.456 316.957 233.342 315.305 240.419C315.305 240.419 306.677 239.769 306.307 236.835C305.937 233.902 307.787 233.225 307.787 233.225V233.216Z" fill="white"/>
<path d="M279.96 299.356H307.858L311.568 272.225H276.25L279.96 299.356Z" fill="#263238"/>
<path opacity="0.2" d="M279.96 299.356H307.858L311.568 272.225H276.25L279.96 299.356Z" fill="white"/>
<path d="M315.061 270.023V272.604C315.061 274.328 313.662 275.727 311.938 275.727H275.519C273.795 275.727 272.396 274.328 272.396 272.604V270.023H315.061Z" fill="#263238"/>
<path d="M312.219 73.8576H304.863C304.366 91.6563 298.508 186.3 230.797 239.408C170.623 286.594 107.668 292.037 70.6267 292.037C64.1372 292.037 58.451 291.874 53.7034 291.73C50.4722 291.64 47.6743 291.558 45.5352 291.558V255.455C48.2068 255.455 51.2484 255.546 54.7685 255.645C85.0589 256.529 148.086 258.389 208.522 210.995C262.072 168.998 268.056 89.6617 268.724 73.8576H261.485L286.856 39.5327L312.219 73.8576Z" fill="#EE7C7D"/>
<path opacity="0.2" d="M312.219 73.8576H304.863C304.366 91.6563 298.508 186.3 230.797 239.408C170.623 286.594 107.668 292.037 70.6267 292.037C64.1372 292.037 58.451 291.874 53.7034 291.73C50.4722 291.64 47.6743 291.558 45.5352 291.558V278.272C127.2 277.361 182.067 260.916 225.969 223.234C286.252 171.48 289.817 74.688 289.817 74.688L302.796 71.0777L286.856 39.5327L312.219 73.8576Z" fill="black"/>
<path d="M268.678 74.688H304.781" stroke="#EE7C7D" stroke-width="3" stroke-linecap="round" stroke-linejoin="round"/>
<path opacity="0.4" d="M268.678 74.688H304.781" stroke="white" stroke-width="3" stroke-linecap="round" stroke-linejoin="round"/>
<path d="M72.5672 47.1323H46.6362C42.2226 47.1323 38.6484 50.7065 38.6484 55.1201V77.6844C38.6484 82.098 42.2226 85.6722 46.6362 85.6722H54.2088L54.1817 94.6077L59.5791 85.6722H72.5672C76.9807 85.6722 80.5549 82.098 80.5549 77.6844V55.1201C80.5549 50.7065 76.9807 47.1323 72.5672 47.1323Z" fill="#EE7C7D"/>
<path opacity="0.7" d="M72.5672 47.1323H46.6362C42.2226 47.1323 38.6484 50.7065 38.6484 55.1201V77.6844C38.6484 82.098 42.2226 85.6722 46.6362 85.6722H54.2088L54.1817 94.6077L59.5791 85.6722H72.5672C76.9807 85.6722 80.5549 82.098 80.5549 77.6844V55.1201C80.5549 50.7065 76.9807 47.1323 72.5672 47.1323Z" fill="white"/>
<path d="M72.1268 69.2596C73.7596 62.3414 69.475 55.4094 62.5568 53.7765C55.6386 52.1437 48.7066 56.4283 47.0737 63.3465C45.4409 70.2647 49.7255 77.1967 56.6437 78.8296C63.5619 80.4624 70.4939 76.1778 72.1268 69.2596Z" fill="#EE7C7D"/>
<path d="M58.2432 72.0523C57.9002 72.0523 57.5662 71.8989 57.3406 71.6371L52.2952 65.6891C51.871 65.1927 51.9342 64.4436 52.4306 64.0194C52.927 63.5952 53.6762 63.6584 54.1004 64.1548L58.2522 69.0377L65.1027 60.9687C65.5269 60.4723 66.2761 60.4091 66.7725 60.8333C67.2689 61.2575 67.3321 62.0066 66.9079 62.5031L59.1548 71.6371C58.9291 71.8989 58.6042 72.0523 58.2522 72.0523H58.2432Z" fill="white"/>
<path d="M102.017 96.7649L101.277 98.3083C101.277 98.3083 97.6483 101.512 99.1556 103.624L102.098 105.141L106.015 102.984C106.62 102.65 107.044 102.063 107.17 101.386L107.694 98.534C107.911 97.3516 107.18 96.2053 106.015 95.8985L104.679 95.5465C103.614 95.2667 102.495 95.7811 102.017 96.774V96.7649Z" fill="#E4897B"/>
<path d="M97.8008 105.06L98.6311 102.74L102.72 104.834L101.763 106.973L97.8008 105.06Z" fill="#EE7C7D"/>
<path opacity="0.7" d="M97.8008 105.06L98.6311 102.74L102.72 104.834L101.763 106.973L97.8008 105.06Z" fill="white"/>
<path d="M102.378 106.377C100.852 110.258 99.1734 114.031 97.3141 117.759C96.3754 119.618 95.4187 121.486 94.3446 123.328C94.0829 123.788 93.8031 124.248 93.5143 124.718C93.2345 125.178 92.9547 125.647 92.6207 126.117L92.1424 126.83L91.5828 127.57L91.303 127.94C91.1766 128.093 91.0051 128.265 90.8517 128.427C90.5358 128.779 90.247 128.996 89.9311 129.258C88.7306 130.214 87.6205 130.801 86.5284 131.324C85.4362 131.839 84.3712 132.263 83.3152 132.633C81.2032 133.382 79.1092 133.951 77.0333 134.447C75.4086 134.836 73.8021 135.169 72.1865 135.467C70.3813 135.801 68.5671 136.081 66.7259 136.307C65.9767 136.406 65.2276 136.496 64.4695 136.577L63.5488 128.301C67.4118 127.786 71.4193 127.155 75.2462 126.378C77.1596 125.999 79.046 125.548 80.8331 125.043C81.7267 124.781 82.5841 124.492 83.3693 124.176C84.1456 123.878 84.8857 123.517 85.3099 123.228C85.4001 123.165 85.5265 123.093 85.5536 123.066C85.5806 123.039 85.5987 123.039 85.6438 123.003L85.8424 122.777L86.2486 122.317L86.6728 121.784C86.9616 121.432 87.2594 121.062 87.5483 120.674C87.8371 120.295 88.1259 119.907 88.4147 119.501C89.561 117.894 90.7163 116.242 91.8445 114.564C94.119 111.215 97.9459 104.211 97.9459 104.211L102.378 106.377Z" fill="#263238"/>
<path opacity="0.3" d="M72.1864 135.467C70.3812 135.801 68.5671 136.081 66.7258 136.307L65.5254 131.622C65.5254 131.622 68.8739 132.326 72.1864 135.467Z" fill="black"/>
<path d="M36.166 143.762C39.6499 148.807 42.1591 153.464 44.7224 158.699C46.5998 162.544 48.2334 166.281 49.6414 169.711C52.9449 177.762 54.9757 184.098 55.9595 186.138C59.7773 184.405 74.6247 177.672 83.0276 173.854C75.9244 141.18 62.9273 128.526 62.9273 128.526C62.9273 128.526 59.642 129.294 56.0407 130.693C55.5714 130.873 55.093 131.072 54.6146 131.279C51.5368 132.615 46.7893 135.341 43.5942 137.29C42.9263 137.697 42.2584 138.13 41.6176 138.554C38.3773 140.729 36.166 143.762 36.166 143.762Z" fill="#EE7C7D"/>
<path opacity="0.7" d="M36.166 143.762C39.6499 148.807 42.1591 153.464 44.7224 158.699C46.5998 162.544 48.2334 166.281 49.6414 169.711C52.9449 177.762 54.9757 184.098 55.9595 186.138C59.7773 184.405 74.6247 177.672 83.0276 173.854C75.9244 141.18 62.9273 128.526 62.9273 128.526C62.9273 128.526 59.642 129.294 56.0407 130.693C55.5714 130.873 55.093 131.072 54.6146 131.279C51.5368 132.615 46.7893 135.341 43.5942 137.29C42.9263 137.697 42.2584 138.13 41.6176 138.554C38.3773 140.729 36.166 143.762 36.166 143.762Z" fill="white"/>
<path d="M37.2207 294.284L42.4285 296.017L47.9343 284.455L42.7264 282.713L37.2207 294.284Z" fill="#E4897B"/>
<path d="M130.142 295.981L135.377 294.311L132.985 281.729L127.75 283.399L130.142 295.981Z" fill="#E4897B"/>
<path d="M75.842 169.964C75.842 169.964 76.6994 226.095 74.795 238.839C72.8996 251.574 47.4831 290.746 47.4831 290.746L38.2949 286.134C38.2949 286.134 58.5938 244.155 59.1534 238.704C59.713 233.252 54.4329 188.629 54.4329 188.629L75.833 169.964H75.842Z" fill="#263238"/>
<path opacity="0.1" d="M54.4329 188.62C54.4329 188.62 54.6315 190.299 54.9474 193.051C55.3716 196.752 56.0124 202.393 56.6623 208.494C58.0252 221.149 59.4603 235.725 59.1534 238.695C58.5938 244.146 38.2949 286.125 38.2949 286.125L47.4831 290.728C47.4831 290.728 72.8906 251.556 74.786 238.821C76.6904 226.077 75.833 169.955 75.833 169.955L54.4329 188.611V188.62Z" fill="white"/>
<path d="M79.353 167.491C79.353 167.491 104.914 202.574 113.272 216.347C122.424 231.429 135.565 285.259 135.565 285.259L126.901 290.367C126.901 290.367 111.819 241.601 101.8 227.223C90.59 211.139 62.502 180.036 62.502 180.036L79.362 167.5L79.353 167.491Z" fill="#263238"/>
<g opacity="0.1">
<path d="M79.353 167.491C79.353 167.491 104.914 202.574 113.272 216.347C122.424 231.429 135.565 285.259 135.565 285.259L126.901 290.367C126.901 290.367 111.819 241.601 101.8 227.223C90.59 211.139 62.502 180.036 62.502 180.036L79.362 167.5L79.353 167.491Z" fill="white"/>
</g>
<path d="M135.908 292.993L129.211 293.011C128.985 293.011 128.787 293.165 128.741 293.391L127.622 298.273C127.505 298.779 127.902 299.257 128.417 299.248C130.574 299.203 132.144 299.077 134.852 299.068C136.522 299.068 141.549 299.23 143.86 299.221C146.116 299.221 146.486 296.938 145.538 296.73C141.314 295.818 138.137 294.546 136.792 293.327C136.549 293.111 136.233 292.993 135.908 292.993Z" fill="#263238"/>
<path d="M56.2662 138.671C57.8096 140.395 61.9614 144.692 65.0392 149.574C65.1927 150.811 66.0501 153.501 66.0952 154.791C65.0031 153.988 62.8911 152.255 61.7178 151.488C59.1725 146.596 57.0153 141.442 55.2012 139.177L56.2572 138.662L56.2662 138.671Z" fill="#EE7C7D"/>
<path d="M56.9157 140.314L56.7352 137.381L54.578 137.399L53.5762 138.834L56.9157 140.314Z" fill="#EE7C7D"/>
<path d="M54.4963 137.435C50.4076 139.366 46.9057 138.96 44.1709 137.859C45.1095 135.603 44.0355 132.245 42.5192 129.221C41.6256 127.416 40.5696 125.719 39.7031 124.465L49.3155 127.335C49.6314 129.212 50.1279 130.963 51.2741 131.947C52.0594 132.642 53.1695 132.967 54.731 132.696C55.9675 133.608 57.6282 135.955 54.4963 137.435Z" fill="#E4897B"/>
<path d="M54.5785 137.399C54.5785 137.399 54.0641 139.457 53.342 141.596C50.7787 141.442 44.5961 140.711 43.5401 137.904C43.4498 136.984 44.2802 136.027 44.2802 136.027C44.2802 136.027 48.6667 137.534 54.5785 137.399Z" fill="white"/>
<path d="M54.578 137.399C54.578 137.399 56.7984 137.976 58.6306 139.168C59.6415 137.444 55.9319 132.85 55.1196 132.552C52.9444 131.884 51.5273 132.182 51.5273 132.182C51.5273 132.182 54.199 134.204 54.578 137.399Z" fill="white"/>
<path opacity="0.2" d="M51.2741 131.947C47.9075 131.839 44.929 130.801 42.5192 129.221C41.6256 127.416 40.5696 125.719 39.7031 124.465L49.3155 127.335C49.6314 129.212 50.1278 130.963 51.2741 131.947Z" fill="black"/>
<path d="M92.3777 183.574L83.0271 186.147L74.7595 176.39L74.3985 189.604L53.5851 196.03C53.5851 196.03 54.0996 187.663 52.1861 179.468C52.141 179.278 52.0959 179.089 52.0327 178.881C51.0038 175.108 47.7816 168.176 44.424 161.47C39.9202 152.454 35.1816 143.843 35.1816 143.843C35.1816 143.843 38.0789 140.386 42.4744 138.003C42.4744 138.003 54.5689 145.937 66.1038 154.8C66.1038 154.8 63.3871 135.467 54.2711 131.433C54.2711 131.433 58.9554 128.824 63.5676 128.265C63.5676 128.265 77.0972 143.338 81.5649 167.707L92.3777 183.574Z" fill="#263238"/>
<path opacity="0.1" d="M51.2929 145.784L50.5618 153.122C50.5618 153.122 63.7213 153.772 73.2615 162.779L68.2883 157.138L69.0013 141.966L62.8548 139.899L64.9759 134.285C64.9759 134.285 57.7192 130.657 54.2804 131.433C63.3873 135.467 66.1131 154.791 66.1131 154.791C54.5782 145.937 42.4747 137.995 42.4747 137.995C42.4747 137.995 40.6966 142.408 42.0686 148.392L51.2929 145.784Z" fill="white"/>
<path d="M50.7682 111.026C52.1942 112.704 53.5391 116.811 50.2898 116.667C47.0406 116.513 48.3222 108.146 50.7682 111.026Z" fill="#263238"/>
<path d="M37.9431 119.519C39.7483 124.609 40.5425 127.687 43.9182 129.573C48.9997 132.407 54.7129 128.138 54.4692 122.597C54.2526 117.605 51.3373 110.114 45.6782 109.554C40.1003 109.004 36.138 114.428 37.9431 119.519Z" fill="#E4897B"/>
<path d="M40.2807 115.349L37.9341 109.798C37.9341 109.798 31.8417 111.856 33.3761 114.771C30.7857 117.777 34.4862 122.218 39.9378 122.858C41.5353 119.916 39.2969 115.385 39.2969 115.385C39.6038 115.385 39.9378 115.385 40.2807 115.358V115.349Z" fill="#263238"/>
<path d="M37.1761 124.411C37.9704 125.629 39.2611 126.36 40.4344 126.577C42.2035 126.902 42.9346 125.277 42.3208 123.68C41.7702 122.244 40.1817 120.349 38.4668 120.746C36.779 121.134 36.2645 123.021 37.1761 124.411Z" fill="#E4897B"/>
<path d="M46.2112 118.634C46.3285 119.058 46.6535 119.329 46.9333 119.248C47.2131 119.167 47.3304 118.761 47.2131 118.336C47.0957 117.912 46.7708 117.641 46.491 117.723C46.2112 117.804 46.0939 118.21 46.2112 118.634Z" fill="#263238"/>
<path d="M50.9847 117.226C51.102 117.65 51.4269 117.921 51.7067 117.84C51.9865 117.759 52.1038 117.353 51.9865 116.928C51.8692 116.504 51.5442 116.233 51.2644 116.315C50.9847 116.396 50.8673 116.802 50.9847 117.226Z" fill="#263238"/>
<path d="M49.5234 117.885C49.5234 117.885 51.1751 119.943 52.5651 120.764C52.0145 121.64 50.6607 121.703 50.6607 121.703L49.5234 117.894V117.885Z" fill="#DE5753"/>
<path d="M48.8199 124.068C49.0004 124.059 49.1899 124.032 49.3885 123.987C49.4607 123.969 49.5058 123.905 49.4878 123.833C49.4697 123.761 49.4065 123.716 49.3343 123.734C47.4389 124.131 46.2927 122.994 46.2836 122.985C46.2295 122.931 46.1482 122.931 46.1031 122.985C46.049 123.039 46.049 123.12 46.1031 123.165C46.1482 123.21 47.1411 124.185 48.8199 124.068Z" fill="#263238"/>
<path d="M43.8541 116.883C43.9353 116.928 44.0346 116.928 44.1158 116.883C45.0996 116.278 45.9661 116.676 45.9751 116.676C46.1015 116.739 46.2549 116.676 46.3181 116.549C46.3813 116.423 46.3181 116.269 46.1918 116.206C46.1466 116.188 45.0635 115.692 43.836 116.441C43.7097 116.513 43.6736 116.676 43.7458 116.793C43.7729 116.829 43.7999 116.865 43.8451 116.883H43.8541Z" fill="#263238"/>
<path d="M52.6731 113.878C52.6731 113.878 52.7092 113.787 52.7001 113.733C52.6821 113.589 52.5557 113.489 52.4113 113.507C50.9943 113.661 50.4618 114.726 50.4347 114.771C50.3715 114.897 50.4256 115.051 50.552 115.123C50.6784 115.186 50.8318 115.141 50.895 115.015C50.913 114.97 51.3372 114.157 52.4745 114.031C52.5647 114.022 52.637 113.968 52.6731 113.896V113.878Z" fill="#263238"/>
<path d="M38.5291 118.517C38.5291 118.517 41.4534 115.782 42.2116 113.083C42.2116 113.083 45.7226 112.578 46.914 113.589C46.914 113.589 47.627 112.208 46.3002 111.359C46.3002 111.359 48.8726 110.863 50.0278 112.271C50.0278 112.271 51.0387 111.368 50.2445 109.69C50.2445 109.69 51.4629 109.645 52.528 111.215C52.528 111.215 52.8439 104.671 43.5564 106.747C43.5564 106.747 44.116 106.17 45.4337 105.547C45.4337 105.547 38.3846 105.664 34.5487 109.906C30.7128 114.148 33.3844 118.048 38.5381 118.508L38.5291 118.517Z" fill="#263238"/>
<path d="M43.7927 292.993L37.0956 293.011C36.8699 293.011 36.6714 293.165 36.6262 293.391L35.507 298.273C35.3897 298.779 35.7868 299.257 36.3013 299.248C38.4584 299.203 40.0289 299.077 42.7366 299.068C44.4064 299.068 49.4337 299.23 51.7443 299.221C54.0008 299.221 54.3708 296.938 53.4231 296.73C49.1991 295.818 46.022 294.546 44.6772 293.327C44.4335 293.111 44.1176 292.993 43.7927 292.993Z" fill="#263238"/>
<path d="M285.42 73.8487L207.131 17.7628C202.916 14.7391 197.852 13.1145 192.663 13.1145H155.928C151.704 13.1145 147.561 14.333 144.005 16.6165C140.422 18.9181 137.587 22.2124 135.836 26.0935L75.7612 159.151C75.7612 159.151 65.1559 196.111 68.3149 239.922C69.7591 259.914 66.1849 301.821 24.0527 299.257" stroke="#EE7C7D" stroke-width="3" stroke-linecap="round" stroke-linejoin="round"/>
<path opacity="0.4" d="M285.42 73.8487L207.131 17.7628C202.916 14.7391 197.852 13.1145 192.663 13.1145H155.928C151.704 13.1145 147.561 14.333 144.005 16.6165C140.422 18.9181 137.587 22.2124 135.836 26.0935L75.7612 159.151C75.7612 159.151 65.1559 196.111 68.3149 239.922C69.7591 259.914 66.1849 301.821 24.0527 299.257" stroke="white" stroke-width="3" stroke-linecap="round" stroke-linejoin="round"/>
<path opacity="0.3" d="M73.7936 159.151C73.7936 159.151 62.1955 173.727 52.0325 178.881C51.0036 175.108 47.7814 168.176 44.4238 161.47C45.7867 157.652 47.0954 154.8 47.0954 154.8C47.0954 154.8 50.1642 157.328 52.5741 160.775C52.5741 160.775 61.0041 160.423 71.6184 156.795L73.7936 159.151Z" fill="black"/>
<path d="M75.1309 155.414C75.1309 155.414 70.2119 154.485 69.8418 157.03L70.9249 160.126L75.7446 161.344C76.1327 161.444 76.5479 161.407 76.9089 161.236L79.021 160.243C79.5715 159.981 79.9416 159.458 80.0048 158.862L80.2394 156.723C80.3658 155.559 79.3279 154.611 78.1816 154.828L75.1219 155.414H75.1309Z" fill="#E4897B"/>
<path d="M70.7701 161.507L72.151 160.794L69.5606 156.795L68.1797 157.725L70.7701 161.507Z" fill="#EE7C7D"/>
<path opacity="0.7" d="M70.7701 161.507L72.151 160.794L69.5606 156.795L68.1797 157.725L70.7701 161.507Z" fill="white"/>
<path d="M35.1734 143.843C33.6932 146.542 42.5294 169.964 46.0314 172.789C50.3728 176.291 72.1338 162.147 72.1338 162.147L68.2798 157.138C68.2798 157.138 51.1129 163.294 50.3998 162.779C49.6868 162.265 46.6993 153.744 46.6993 153.744C46.6993 153.744 43.6937 149.123 40.5076 146.732C37.3215 144.34 35.1644 143.843 35.1644 143.843H35.1734Z" fill="#263238"/>
<path d="M154.628 12.5457C144.52 12.5457 136.324 20.741 136.324 30.8498C136.324 40.9587 144.52 49.154 154.628 49.154C164.737 49.154 172.933 40.9587 172.933 30.8498C172.933 20.741 164.737 12.5457 154.628 12.5457ZM143.807 34.063C142.028 34.063 140.593 32.6279 140.593 30.8498C140.593 29.0718 142.028 27.6367 143.807 27.6367C145.585 27.6367 147.02 29.0718 147.02 30.8498C147.02 32.6279 145.585 34.063 143.807 34.063ZM154.628 44.8849C152.85 44.8849 151.415 43.4498 151.415 41.6717C151.415 39.8936 152.85 38.4585 154.628 38.4585C156.406 38.4585 157.842 39.8936 157.842 41.6717C157.842 43.4498 156.406 44.8849 154.628 44.8849ZM154.628 23.2321C152.85 23.2321 151.415 21.797 151.415 20.019C151.415 18.2409 152.85 16.8058 154.628 16.8058C156.406 16.8058 157.842 18.2409 157.842 20.019C157.842 21.797 156.406 23.2321 154.628 23.2321ZM165.45 34.054C163.672 34.054 162.237 32.6189 162.237 30.8408C162.237 29.0627 163.672 27.6277 165.45 27.6277C167.228 27.6277 168.663 29.0627 168.663 30.8408C168.663 32.6189 167.228 34.054 165.45 34.054Z" fill="#263238"/>
<path opacity="0.4" d="M154.628 12.5457C144.52 12.5457 136.324 20.741 136.324 30.8498C136.324 40.9587 144.52 49.154 154.628 49.154C164.737 49.154 172.933 40.9587 172.933 30.8498C172.933 20.741 164.737 12.5457 154.628 12.5457ZM143.807 34.063C142.028 34.063 140.593 32.6279 140.593 30.8498C140.593 29.0718 142.028 27.6367 143.807 27.6367C145.585 27.6367 147.02 29.0718 147.02 30.8498C147.02 32.6279 145.585 34.063 143.807 34.063ZM154.628 44.8849C152.85 44.8849 151.415 43.4498 151.415 41.6717C151.415 39.8936 152.85 38.4585 154.628 38.4585C156.406 38.4585 157.842 39.8936 157.842 41.6717C157.842 43.4498 156.406 44.8849 154.628 44.8849ZM154.628 23.2321C152.85 23.2321 151.415 21.797 151.415 20.019C151.415 18.2409 152.85 16.8058 154.628 16.8058C156.406 16.8058 157.842 18.2409 157.842 20.019C157.842 21.797 156.406 23.2321 154.628 23.2321ZM165.45 34.054C163.672 34.054 162.237 32.6189 162.237 30.8408C162.237 29.0627 163.672 27.6277 165.45 27.6277C167.228 27.6277 168.663 29.0627 168.663 30.8408C168.663 32.6189 167.228 34.054 165.45 34.054Z" fill="white"/>
<path opacity="0.2" d="M154.629 36.906C157.973 36.906 160.685 34.1945 160.685 30.8497C160.685 27.5049 157.973 24.7935 154.629 24.7935C151.284 24.7935 148.572 27.5049 148.572 30.8497C148.572 34.1945 151.284 36.906 154.629 36.906Z" fill="black"/>
<g opacity="0.2">
<path d="M154.628 47.8725C145.241 47.8725 137.605 40.2367 137.605 30.8499C137.605 21.4632 145.241 13.8274 154.628 13.8274C164.015 13.8274 171.651 21.4632 171.651 30.8499C171.651 40.2367 164.015 47.8725 154.628 47.8725ZM154.628 14.9195C145.846 14.9195 138.698 22.0679 138.698 30.8499C138.698 39.632 145.846 46.7804 154.628 46.7804C163.41 46.7804 170.558 39.632 170.558 30.8499C170.558 22.0679 163.41 14.9195 154.628 14.9195Z" fill="black"/>
</g>
<path d="M154.628 35.8862C157.41 35.8862 159.665 33.6313 159.665 30.8498C159.665 28.0683 157.41 25.8135 154.628 25.8135C151.847 25.8135 149.592 28.0683 149.592 30.8498C149.592 33.6313 151.847 35.8862 154.628 35.8862Z" fill="#263238"/>
<path d="M192.771 12.5457C182.662 12.5457 174.467 20.741 174.467 30.8498C174.467 40.9587 182.662 49.154 192.771 49.154C202.88 49.154 211.075 40.9587 211.075 30.8498C211.075 20.741 202.88 12.5457 192.771 12.5457ZM181.949 34.063C180.171 34.063 178.736 32.6279 178.736 30.8498C178.736 29.0718 180.171 27.6367 181.949 27.6367C183.727 27.6367 185.162 29.0718 185.162 30.8498C185.162 32.6279 183.727 34.063 181.949 34.063ZM192.771 44.8849C190.993 44.8849 189.558 43.4498 189.558 41.6717C189.558 39.8936 190.993 38.4585 192.771 38.4585C194.549 38.4585 195.984 39.8936 195.984 41.6717C195.984 43.4498 194.549 44.8849 192.771 44.8849ZM192.771 23.2321C190.993 23.2321 189.558 21.797 189.558 20.019C189.558 18.2409 190.993 16.8058 192.771 16.8058C194.549 16.8058 195.984 18.2409 195.984 20.019C195.984 21.797 194.549 23.2321 192.771 23.2321ZM203.593 34.054C201.815 34.054 200.38 32.6189 200.38 30.8408C200.38 29.0627 201.815 27.6277 203.593 27.6277C205.371 27.6277 206.806 29.0627 206.806 30.8408C206.806 32.6189 205.371 34.054 203.593 34.054Z" fill="#263238"/>
<path opacity="0.4" d="M192.771 12.5457C182.662 12.5457 174.467 20.741 174.467 30.8498C174.467 40.9587 182.662 49.154 192.771 49.154C202.88 49.154 211.075 40.9587 211.075 30.8498C211.075 20.741 202.88 12.5457 192.771 12.5457ZM181.949 34.063C180.171 34.063 178.736 32.6279 178.736 30.8498C178.736 29.0718 180.171 27.6367 181.949 27.6367C183.727 27.6367 185.162 29.0718 185.162 30.8498C185.162 32.6279 183.727 34.063 181.949 34.063ZM192.771 44.8849C190.993 44.8849 189.558 43.4498 189.558 41.6717C189.558 39.8936 190.993 38.4585 192.771 38.4585C194.549 38.4585 195.984 39.8936 195.984 41.6717C195.984 43.4498 194.549 44.8849 192.771 44.8849ZM192.771 23.2321C190.993 23.2321 189.558 21.797 189.558 20.019C189.558 18.2409 190.993 16.8058 192.771 16.8058C194.549 16.8058 195.984 18.2409 195.984 20.019C195.984 21.797 194.549 23.2321 192.771 23.2321ZM203.593 34.054C201.815 34.054 200.38 32.6189 200.38 30.8408C200.38 29.0627 201.815 27.6277 203.593 27.6277C205.371 27.6277 206.806 29.0627 206.806 30.8408C206.806 32.6189 205.371 34.054 203.593 34.054Z" fill="white"/>
<path opacity="0.2" d="M198.827 30.8497C198.827 34.1892 196.12 36.906 192.771 36.906C189.423 36.906 186.715 34.1983 186.715 30.8497C186.715 27.5012 189.423 24.7935 192.771 24.7935C196.12 24.7935 198.827 27.5012 198.827 30.8497Z" fill="black"/>
<g opacity="0.2">
<path d="M192.771 47.8725C183.384 47.8725 175.748 40.2367 175.748 30.8499C175.748 21.4632 183.384 13.8274 192.771 13.8274C202.157 13.8274 209.793 21.4632 209.793 30.8499C209.793 40.2367 202.157 47.8725 192.771 47.8725ZM192.771 14.9195C183.989 14.9195 176.84 22.0679 176.84 30.8499C176.84 39.632 183.989 46.7804 192.771 46.7804C201.553 46.7804 208.701 39.632 208.701 30.8499C208.701 22.0679 201.553 14.9195 192.771 14.9195Z" fill="black"/>
</g>
<path d="M192.771 35.8862C195.552 35.8862 197.807 33.6313 197.807 30.8498C197.807 28.0683 195.552 25.8135 192.771 25.8135C189.989 25.8135 187.734 28.0683 187.734 30.8498C187.734 33.6313 189.989 35.8862 192.771 35.8862Z" fill="#263238"/>
<path d="M192.745 21.5445C188.738 21.5445 185.308 18.6563 184.631 14.703L182.338 1.30884H165.081L162.789 14.703C162.112 18.6563 158.682 21.5445 154.675 21.5445C149.629 21.5445 145.297 25.4888 145.207 30.5342C145.116 35.6698 149.25 39.8668 154.368 39.8668H193.052C198.17 39.8668 202.312 35.6698 202.213 30.5342C202.123 25.4888 197.79 21.5445 192.745 21.5445Z" fill="#263238"/>
<path opacity="0.2" d="M192.745 21.5445C188.738 21.5445 185.308 18.6563 184.631 14.703L182.338 1.30884H165.081L162.789 14.703C162.112 18.6563 158.682 21.5445 154.675 21.5445C149.629 21.5445 145.297 25.4888 145.207 30.5342C145.116 35.6698 149.25 39.8668 154.368 39.8668H193.052C198.17 39.8668 202.312 35.6698 202.213 30.5342C202.123 25.4888 197.79 21.5445 192.745 21.5445Z" fill="white"/>
<path opacity="0.4" d="M154.63 35.8864C157.412 35.8864 159.666 33.6316 159.666 30.8501C159.666 28.0686 157.412 25.8137 154.63 25.8137C151.849 25.8137 149.594 28.0686 149.594 30.8501C149.594 33.6316 151.849 35.8864 154.63 35.8864Z" fill="white"/>
<path opacity="0.4" d="M192.773 35.8864C195.554 35.8864 197.809 33.6316 197.809 30.8501C197.809 28.0686 195.554 25.8137 192.773 25.8137C189.991 25.8137 187.736 28.0686 187.736 30.8501C187.736 33.6316 189.991 35.8864 192.773 35.8864Z" fill="white"/>
<path d="M159.666 0H187.745V4.49482C187.745 5.35226 187.05 6.03822 186.202 6.03822H161.218C160.361 6.03822 159.675 5.34324 159.675 4.49482V0H159.666Z" fill="#263238"/>
<path opacity="0.4" d="M159.666 0H187.745V4.49482C187.745 5.35226 187.05 6.03822 186.202 6.03822H161.218C160.361 6.03822 159.675 5.34324 159.675 4.49482V0H159.666Z" fill="white"/>
</g>
<defs>
<clipPath id="clip0_391_9267">
<rect width="350" height="308.87" fill="white"/>
</clipPath>
</defs>
</svg>
