<svg width="40" height="40" viewBox="0 0 40 40" fill="none" xmlns="http://www.w3.org/2000/svg">
<g clip-path="url(#clip0_379_594)">
<path d="M31.9075 2.42993H22.5175C20.3435 2.43258 18.2594 3.29737 16.7222 4.83459C15.1849 6.37182 14.3201 8.45592 14.3175 10.6299C14.3196 12.597 15.0271 14.4982 16.3116 15.9882C17.596 17.4781 19.3721 18.4579 21.3175 18.7499V22.35C21.3177 22.5818 21.3874 22.8081 21.5175 22.9999C21.6439 23.192 21.8251 23.3418 22.0375 23.4299C22.2521 23.5174 22.4875 23.5403 22.7148 23.4958C22.9422 23.4514 23.1516 23.3417 23.3175 23.1799L27.6575 18.83H31.8675C34.0497 18.8301 36.1437 17.9686 37.6943 16.4331C39.2448 14.8976 40.1264 12.812 40.1475 10.6299C40.1265 8.45469 39.2504 6.37511 37.7085 4.8407C36.1666 3.30628 34.0828 2.44034 31.9075 2.42993ZM22.5275 11.7999C22.2172 11.7999 21.9196 11.6767 21.7002 11.4573C21.4808 11.2379 21.3575 10.9402 21.3575 10.6299C21.3575 10.3196 21.4808 10.022 21.7002 9.80261C21.9196 9.58319 22.2172 9.45996 22.5275 9.45996C22.8378 9.45996 23.1354 9.58319 23.3548 9.80261C23.5743 10.022 23.6975 10.3196 23.6975 10.6299C23.6975 10.7844 23.6669 10.9373 23.6075 11.08C23.548 11.2226 23.461 11.352 23.3513 11.4608C23.2416 11.5696 23.1114 11.6555 22.9683 11.7137C22.8252 11.772 22.672 11.8012 22.5175 11.7999H22.5275ZM27.2175 11.7999C26.9072 11.7999 26.6096 11.6767 26.3902 11.4573C26.1708 11.2379 26.0475 10.9402 26.0475 10.6299C26.0475 10.3196 26.1708 10.022 26.3902 9.80261C26.6096 9.58319 26.9072 9.45996 27.2175 9.45996C27.5278 9.45996 27.8254 9.58319 28.0448 9.80261C28.2643 10.022 28.3875 10.3196 28.3875 10.6299C28.3875 10.7835 28.3572 10.9357 28.2984 11.0776C28.2396 11.2196 28.1535 11.3486 28.0448 11.4573C27.9362 11.5659 27.8072 11.652 27.6653 11.7108C27.5233 11.7696 27.3712 11.7999 27.2175 11.7999ZM31.9075 11.7999C31.753 11.8012 31.5998 11.772 31.4567 11.7137C31.3136 11.6555 31.1834 11.5696 31.0737 11.4608C30.964 11.352 30.8769 11.2226 30.8175 11.08C30.7581 10.9373 30.7275 10.7844 30.7275 10.6299C30.7275 10.4754 30.7581 10.3224 30.8175 10.1798C30.8769 10.0372 30.964 9.90785 31.0737 9.79907C31.1834 9.6903 31.3136 9.60435 31.4567 9.54614C31.5998 9.48794 31.753 9.45864 31.9075 9.45996C32.2178 9.45996 32.5154 9.58319 32.7348 9.80261C32.9542 10.022 33.0775 10.3196 33.0775 10.6299C33.0775 10.7835 33.0472 10.9357 32.9884 11.0776C32.9297 11.2196 32.8434 11.3486 32.7348 11.4573C32.6261 11.5659 32.4972 11.652 32.3553 11.7108C32.2133 11.7696 32.0612 11.7999 31.9075 11.7999Z" fill="#EF3D3F"/>
<path d="M26.5175 37.5801C27.4493 37.5801 28.3431 37.2106 29.0029 36.5527C29.6628 35.8947 30.0348 35.0019 30.0375 34.0701V29.38C30.039 29.1341 29.9624 28.8941 29.8186 28.6946C29.6748 28.4951 29.4712 28.3464 29.2374 28.2701L22.2374 25.9201C22.0707 25.8687 21.8947 25.8545 21.7219 25.8787C21.5491 25.9029 21.3837 25.9649 21.2374 26.0601L18.2374 28.0601C14.6672 26.1414 11.7419 23.2126 9.82747 19.6401L11.8275 16.6401C11.9252 16.4932 11.9869 16.3253 12.0075 16.1501C12.0362 15.972 12.019 15.7896 11.9575 15.62L9.61745 8.62004C9.54074 8.38522 9.38984 8.18172 9.18746 8.04008C8.99056 7.89511 8.75196 7.81795 8.50746 7.82011H3.73744C3.27782 7.8188 2.82244 7.90801 2.39729 8.08269C1.97215 8.25736 1.58559 8.5141 1.25966 8.83818C0.933727 9.16226 0.674802 9.54734 0.497698 9.97148C0.320594 10.3956 0.228806 10.8505 0.227495 11.3101C0.187495 24.8201 13.0075 37.5801 26.5175 37.5801Z" fill="white" fill-opacity="0.4"/>
</g>
<defs>
<clipPath id="clip0_379_594">
<rect width="40" height="40" fill="white"/>
</clipPath>
</defs>
</svg>
