<svg width="60" height="60" viewBox="0 0 60 60" fill="none" xmlns="http://www.w3.org/2000/svg">
<circle cx="30" cy="30" r="30" fill="url(#paint0_linear_379_8761)"/>
<g clip-path="url(#clip0_379_8761)">
<path d="M29.9993 18.3333C27.5401 18.3331 25.1801 19.3036 23.4325 21.0338C21.6848 22.764 20.6906 25.1141 20.666 27.5733C20.666 33.9666 28.891 41.0833 29.241 41.3866C29.4523 41.5673 29.7213 41.6667 29.9993 41.6667C30.2774 41.6667 30.5464 41.5673 30.7577 41.3866C31.166 41.0833 39.3327 33.9666 39.3327 27.5733C39.3081 25.1141 38.3139 22.764 36.5662 21.0338C34.8186 19.3036 32.4586 18.3331 29.9993 18.3333ZM29.9993 38.9249C28.051 37.0699 22.9993 31.9249 22.9993 27.5733C22.9993 25.7167 23.7368 23.9363 25.0496 22.6235C26.3624 21.3107 28.1428 20.5733 29.9993 20.5733C31.8559 20.5733 33.6363 21.3107 34.9491 22.6235C36.2619 23.9363 36.9993 25.7167 36.9993 27.5733C36.9993 31.8899 31.9477 37.0699 29.9993 38.9249Z" fill="white"/>
<path d="M29.9994 23C29.1917 23 28.4023 23.2395 27.7308 23.6882C27.0593 24.1368 26.5359 24.7746 26.2268 25.5207C25.9178 26.2668 25.8369 27.0879 25.9945 27.88C26.152 28.672 26.5409 29.3996 27.112 29.9707C27.6831 30.5417 28.4106 30.9307 29.2027 31.0882C29.9948 31.2458 30.8158 31.1649 31.562 30.8558C32.3081 30.5468 32.9458 30.0234 33.3945 29.3519C33.8432 28.6804 34.0827 27.8909 34.0827 27.0833C34.0827 26.0004 33.6525 24.9618 32.8867 24.196C32.1209 23.4302 31.0823 23 29.9994 23ZM29.9994 28.8333C29.6532 28.8333 29.3149 28.7307 29.0271 28.5384C28.7393 28.3461 28.515 28.0728 28.3826 27.753C28.2501 27.4333 28.2155 27.0814 28.283 26.7419C28.3505 26.4025 28.5172 26.0906 28.7619 25.8459C29.0067 25.6012 29.3185 25.4345 29.6579 25.367C29.9974 25.2994 30.3493 25.3341 30.669 25.4665C30.9888 25.599 31.2621 25.8233 31.4544 26.1111C31.6467 26.3989 31.7494 26.7372 31.7494 27.0833C31.7494 27.5475 31.565 27.9926 31.2368 28.3208C30.9086 28.649 30.4635 28.8333 29.9994 28.8333Z" fill="white"/>
</g>
<defs>
<linearGradient id="paint0_linear_379_8761" x1="0.51282" y1="40.3846" x2="61.0256" y2="40.3846" gradientUnits="userSpaceOnUse">
<stop stop-color="#841524"/>
<stop offset="1" stop-color="#E83A3D"/>
</linearGradient>
<clipPath id="clip0_379_8761">
<rect width="28" height="28" fill="white" transform="translate(16 16)"/>
</clipPath>
</defs>
</svg>
