<svg width="91" height="75" viewBox="0 0 91 75" fill="none" xmlns="http://www.w3.org/2000/svg">
<path d="M87.9761 1.44319C86.992 9.4514 84.448 32.33 72.1725 33.4436C67.0646 33.9069 59.7904 31.65 56.3149 27.5564C48.8514 18.7655 57.6408 3.26551 66.7967 15.431C71.9315 22.2536 68.4422 32.4663 65.8718 39.664C62.0829 50.2738 54.0149 55.5947 44.3622 60.3458C39.4601 62.7586 14.3354 68.7453 15.0189 67.2182" stroke="#1D222D" stroke-width="2" stroke-linecap="round"/>
<path d="M6.07184 70.6331C6.8298 69.0866 13.0145 57.433 12.0736 58.7561C10.8421 60.4879 9.75066 62.4017 8.31187 63.9695C6.60963 65.8243 5.40122 68.0796 3.50719 69.7328C1.84518 71.1835 13.2464 73.3565 15.2785 73.2693" stroke="#1D222D" stroke-width="2" stroke-linecap="round"/>
</svg>
