<svg width="60" height="60" viewBox="0 0 60 60" fill="none" xmlns="http://www.w3.org/2000/svg">
<circle cx="30" cy="30" r="30" fill="url(#paint0_linear_379_8737)"/>
<g clip-path="url(#clip0_379_8737)">
<path d="M36.3006 41.6667C31.5375 41.6605 26.9712 39.7656 23.6031 36.3976C20.2351 33.0295 18.3402 28.4632 18.334 23.7001C18.334 22.2767 18.8994 20.9117 19.9058 19.9052C20.9123 18.8988 22.2773 18.3334 23.7007 18.3334C24.002 18.3311 24.3029 18.3584 24.599 18.4151C24.8852 18.4574 25.1665 18.5277 25.439 18.6251C25.6306 18.6923 25.8014 18.8084 25.9344 18.9618C26.0674 19.1153 26.158 19.3008 26.1973 19.5001L27.7957 26.5001C27.8387 26.6901 27.8335 26.8878 27.7806 27.0753C27.7276 27.2628 27.6285 27.434 27.4923 27.5734C27.3407 27.7367 27.329 27.7484 25.894 28.4951C27.0431 31.0161 29.0594 33.0406 31.5757 34.2001C32.334 32.7534 32.3456 32.7417 32.509 32.5901C32.6483 32.4539 32.8196 32.3548 33.0071 32.3018C33.1945 32.2488 33.3923 32.2436 33.5823 32.2867L40.5823 33.8851C40.7752 33.9298 40.9535 34.0229 41.1004 34.1556C41.2474 34.2882 41.3581 34.4561 41.4223 34.6434C41.5208 34.9203 41.595 35.2053 41.644 35.4951C41.6909 35.7883 41.7143 36.0848 41.714 36.3817C41.6925 37.799 41.1112 39.1501 40.097 40.1403C39.0827 41.1305 37.718 41.6792 36.3006 41.6667ZM23.7007 20.6667C22.8971 20.6698 22.1274 20.9904 21.5592 21.5586C20.991 22.1268 20.6704 22.8965 20.6673 23.7001C20.6704 27.8453 22.3185 31.8199 25.2496 34.7511C28.1808 37.6822 32.1554 39.3303 36.3006 39.3334C37.1042 39.3303 37.8739 39.0097 38.4421 38.4415C39.0103 37.8734 39.3309 37.1036 39.334 36.3001V35.9151L33.9207 34.6667L33.5823 35.3084C33.0573 36.3234 32.6723 37.0584 31.6923 36.6617C29.759 35.9697 28.0041 34.8558 26.5552 33.4007C25.1062 31.9457 23.9996 30.1862 23.3157 28.2501C22.8957 27.3401 23.689 26.9201 24.6923 26.3951L25.334 26.0801L24.0857 20.6667H23.7007Z" fill="white"/>
</g>
<defs>
<linearGradient id="paint0_linear_379_8737" x1="0.51282" y1="40.3846" x2="61.0256" y2="40.3846" gradientUnits="userSpaceOnUse">
<stop stop-color="#841524"/>
<stop offset="1" stop-color="#E83A3D"/>
</linearGradient>
<clipPath id="clip0_379_8737">
<rect width="28" height="28" fill="white" transform="translate(16 16)"/>
</clipPath>
</defs>
</svg>
