<svg width="60" height="60" viewBox="0 0 60 60" fill="none" xmlns="http://www.w3.org/2000/svg">
<circle cx="30" cy="30" r="30" fill="url(#paint0_linear_379_8749)"/>
<g clip-path="url(#clip0_379_8749)">
<path d="M38.1673 20.6667H21.834C20.9057 20.6667 20.0155 21.0355 19.3591 21.6919C18.7027 22.3483 18.334 23.2385 18.334 24.1667V35.8334C18.334 36.7617 18.7027 37.6519 19.3591 38.3083C20.0155 38.9647 20.9057 39.3334 21.834 39.3334H38.1673C39.0956 39.3334 39.9858 38.9647 40.6422 38.3083C41.2986 37.6519 41.6673 36.7617 41.6673 35.8334V24.1667C41.6673 23.2385 41.2986 22.3483 40.6422 21.6919C39.9858 21.0355 39.0956 20.6667 38.1673 20.6667ZM37.3857 23.0001L30.0007 28.5417L22.6157 23.0001H37.3857ZM38.1673 37.0001H21.834C21.5246 37.0001 21.2278 36.8772 21.009 36.6584C20.7902 36.4396 20.6673 36.1428 20.6673 35.8334V24.4584L29.3007 30.9334C29.5026 31.0849 29.7482 31.1667 30.0007 31.1667C30.2531 31.1667 30.4987 31.0849 30.7007 30.9334L39.334 24.4584V35.8334C39.334 36.1428 39.2111 36.4396 38.9923 36.6584C38.7735 36.8772 38.4767 37.0001 38.1673 37.0001Z" fill="white"/>
</g>
<defs>
<linearGradient id="paint0_linear_379_8749" x1="0.51282" y1="40.3846" x2="61.0256" y2="40.3846" gradientUnits="userSpaceOnUse">
<stop stop-color="#841524"/>
<stop offset="1" stop-color="#E83A3D"/>
</linearGradient>
<clipPath id="clip0_379_8749">
<rect width="28" height="28" fill="white" transform="translate(16 16)"/>
</clipPath>
</defs>
</svg>
