<svg width="50" height="50" viewBox="0 0 50 50" fill="none" xmlns="http://www.w3.org/2000/svg">
<circle cx="25" cy="25" r="25" fill="url(#paint0_linear_391_10831)"/>
<g clip-path="url(#clip0_391_10831)">
<path d="M34.3721 26.4833C34.2497 26.3356 34.0994 26.2135 33.9297 26.124C33.76 26.0346 33.5744 25.9795 33.3833 25.9618C33.1923 25.9442 32.9997 25.9645 32.8166 26.0214C32.6334 26.0784 32.4632 26.1709 32.3159 26.2937L25.9576 31.5874V14.2916C25.9576 13.9048 25.8039 13.5339 25.5304 13.2604C25.2569 12.9869 24.886 12.8333 24.4992 12.8333C24.1124 12.8333 23.7415 12.9869 23.468 13.2604C23.1945 13.5339 23.0409 13.9048 23.0409 14.2916V31.5874L16.6826 26.2937C16.5351 26.1711 16.3649 26.0788 16.1818 26.022C15.9986 25.9652 15.8061 25.945 15.6152 25.9626C15.4242 25.9802 15.2386 26.0352 15.0689 26.1246C14.8993 26.2139 14.7489 26.3358 14.6263 26.4833C14.5037 26.6307 14.4114 26.8009 14.3546 26.984C14.2978 27.1672 14.2776 27.3597 14.2952 27.5506C14.3128 27.7416 14.3679 27.9272 14.4572 28.0969C14.5465 28.2665 14.6684 28.4169 14.8159 28.5395L23.5659 35.8312L23.7846 35.9624L23.9742 36.0645C24.3121 36.1949 24.6864 36.1949 25.0242 36.0645L25.2138 35.9624L25.4326 35.8312L34.1826 28.5395C34.3302 28.4171 34.4523 28.2667 34.5418 28.097C34.6312 27.9274 34.6863 27.7417 34.704 27.5507C34.7216 27.3597 34.7013 27.1671 34.6444 26.9839C34.5874 26.8008 34.4949 26.6306 34.3721 26.4833Z" fill="white"/>
</g>
<defs>
<linearGradient id="paint0_linear_391_10831" x1="14.6739" y1="-1.12109e-05" x2="30.7065" y2="47.8261" gradientUnits="userSpaceOnUse">
<stop stop-color="#841524"/>
<stop offset="1" stop-color="#E83A3D"/>
</linearGradient>
<clipPath id="clip0_391_10831">
<rect width="35" height="35" fill="white" transform="translate(7 7)"/>
</clipPath>
</defs>
</svg>
