<svg width="100" height="100" viewBox="0 0 100 100" fill="none" xmlns="http://www.w3.org/2000/svg">
<circle cx="50" cy="50" r="49.5" stroke="url(#paint0_linear_379_470)"/>
<path d="M52.0682 48.8939C54.2197 48.8939 55.9773 47.1439 55.9773 44.9848C55.9773 42.8257 54.2273 41.0757 52.0682 41.0757C49.9091 41.0757 48.1591 42.8257 48.1591 44.9848C48.1591 47.1439 49.9167 48.8939 52.0682 48.8939ZM52.0682 42.5984C53.3864 42.5984 54.4621 43.6742 54.4621 44.9924C54.4621 46.3105 53.3864 47.3863 52.0682 47.3863C50.75 47.3863 49.6742 46.3105 49.6742 44.9924C49.6742 43.6742 50.75 42.5984 52.0682 42.5984Z" fill="url(#paint1_linear_379_470)"/>
<path d="M71.1364 25.7727H33C31.7121 25.7727 30.6667 26.8182 30.6667 28.106V36.5985C30.6667 37.8863 31.7121 38.9394 33 38.9394H41.2803V47.3788L35.7121 52.8939C35.5682 53.0379 35.447 53.2045 35.3561 53.3939L31.2576 62.0076L30.9545 61.7045C30.6288 61.3788 30.1894 61.1969 29.7197 61.1894H29.7121C29.2424 61.1894 28.8106 61.3712 28.4773 61.6969L27.0455 63.1288C26.3636 63.8106 26.3636 64.9242 27.0455 65.606L35.1515 73.7121C35.4848 74.0454 35.9242 74.2273 36.3939 74.2273C36.8636 74.2273 37.303 74.0454 37.6364 73.7121L39.0682 72.2803C39.3939 71.9545 39.5758 71.5151 39.5758 71.0454C39.5758 70.5757 39.3939 70.1363 39.0606 69.803L38.8712 69.6136L43.8258 64.7121C44.0152 64.5227 44.0758 64.2576 44.0152 64.0076H60.3409C61.7348 64.0076 62.8636 62.8712 62.8636 61.4848V38.9394H65.9773C66.3939 38.9394 66.7348 38.5985 66.7348 38.1818C66.7348 37.7651 66.3939 37.4242 65.9773 37.4242H62.8636V34.8182H64.5758C65.2348 34.8182 65.8485 34.5606 66.3182 34.0985C66.7879 33.6363 67.0379 33.0151 67.0379 32.356C67.0379 31 65.9318 29.8939 64.5758 29.8939H39.5758C38.9167 29.8939 38.303 30.1515 37.8333 30.6136C37.3636 31.0757 37.1136 31.6969 37.1136 32.356C37.1136 33.7121 38.2197 34.8182 39.5758 34.8182H41.2879V37.4242H33C32.5455 37.4242 32.1818 37.053 32.1818 36.5985V28.106C32.1818 27.6515 32.5455 27.2879 33 27.2879H71.1364C71.5909 27.2879 71.9545 27.6515 71.9545 28.106V36.5985C71.9545 37.053 71.5909 37.4242 71.1364 37.4242C70.7197 37.4242 70.3788 37.7651 70.3788 38.1818C70.3788 38.5985 70.7197 38.9394 71.1364 38.9394C72.4242 38.9394 73.4697 37.8863 73.4697 36.5985V28.106C73.4697 26.8257 72.4242 25.7727 71.1364 25.7727ZM37.9848 71.2045L36.553 72.6363C36.4394 72.75 36.3409 72.7576 36.2197 72.6363L28.1136 64.5303C28.0227 64.4394 28.0227 64.2879 28.1136 64.197L29.5455 62.7651C29.5909 62.7197 29.6439 62.7045 29.7045 62.7045C29.7652 62.7045 29.8258 62.7273 29.8712 62.7727L37.9773 70.8788C38.0379 70.9394 38.0455 71 38.0455 71.0454C38.053 71.0833 38.0379 71.1515 37.9848 71.2045ZM62.8561 31.4091H64.5682C65.0909 31.4091 65.5152 31.8333 65.5152 32.356C65.5152 32.606 65.4167 32.8485 65.2348 33.0227C65.053 33.1969 64.8182 33.303 64.5682 33.303H62.8561V31.4091ZM42.7955 31.4091H61.3333V61.4773C61.3333 62.0303 60.8788 62.4848 60.3258 62.4848H44.7273L45.5909 59.9015C45.7727 59.3636 46.0833 58.8636 46.4848 58.4621L47.25 57.7045C47.7803 58.1288 48.0909 58.7576 48.0909 59.4545C48.0909 59.8712 48.4318 60.2121 48.8485 60.2121H55.2727C55.6894 60.2121 56.0303 59.8712 56.0303 59.4545C56.0303 58.2045 57.0455 57.1818 58.303 57.1818C58.7197 57.1818 59.0606 56.8409 59.0606 56.4242V37.3257C59.0606 36.9091 58.7197 36.5682 58.303 36.5682C57.053 36.5682 56.0303 35.553 56.0303 34.2954C56.0303 33.8788 55.6894 33.5379 55.2727 33.5379H48.8485C48.4318 33.5379 48.0909 33.8788 48.0909 34.2954C48.0909 35.5454 47.0758 36.5682 45.8182 36.5682C45.4015 36.5682 45.0606 36.9091 45.0606 37.3257V53.053L42.7879 55.303V31.4091H42.7955ZM48.5 53.0682C48.0455 52.606 47.4394 52.356 46.7879 52.3485C46.7879 52.3485 46.7803 52.3485 46.7727 52.3485C46.7045 52.3485 46.6439 52.3636 46.5833 52.3636V38.0076C48.0682 37.7045 49.2348 36.5379 49.5379 35.053H54.5985C54.9015 36.5379 56.0682 37.7045 57.553 38.0076V55.75C56.0682 56.053 54.9015 57.2197 54.5985 58.7045H49.5379C49.3712 57.9015 48.947 57.1818 48.3333 56.6439L48.4848 56.5C48.947 56.0454 49.197 55.4394 49.2045 54.7879C49.2045 54.1439 48.9545 53.5303 48.5 53.0682ZM39.5682 33.303C39.0455 33.303 38.6212 32.8788 38.6212 32.356C38.6212 32.106 38.7197 31.8636 38.9015 31.6894C39.0833 31.5151 39.3182 31.4091 39.5682 31.4091H41.2803V33.303H39.5682ZM41.75 57.8257C42.0303 57.9469 42.3561 57.8788 42.5758 57.6666L46.1439 54.1363C46.3182 53.9621 46.5152 53.8788 46.7879 53.8712C47.0303 53.8712 47.2576 53.9697 47.4242 54.1363C47.7727 54.4924 47.7727 55.0682 47.4167 55.4166L45.4242 57.3863C44.8561 57.9545 44.4167 58.6591 44.1591 59.4166L43.053 62.7197C43.0379 62.7651 43.0227 62.803 43 62.8409L42.9621 62.9394C42.8939 63.1136 42.8182 63.553 42.75 63.6212L37.8182 68.5L32.4242 63.0682L36.7273 54.0454C36.7424 54.0227 36.7576 53.9924 36.7803 53.9697L41.2879 49.5076V57.1212C41.2803 57.4318 41.4697 57.7045 41.75 57.8257Z" fill="url(#paint2_linear_379_470)"/>
<defs>
<linearGradient id="paint0_linear_379_470" x1="0.854701" y1="67.3077" x2="101.709" y2="67.3077" gradientUnits="userSpaceOnUse">
<stop stop-color="#841524"/>
<stop offset="1" stop-color="#E83A3D"/>
</linearGradient>
<linearGradient id="paint1_linear_379_470" x1="48.2259" y1="46.3379" x2="56.1109" y2="46.3379" gradientUnits="userSpaceOnUse">
<stop stop-color="#841524"/>
<stop offset="1" stop-color="#E83A3D"/>
</linearGradient>
<linearGradient id="paint2_linear_379_470" x1="26.9353" y1="58.3863" x2="74.272" y2="58.3863" gradientUnits="userSpaceOnUse">
<stop stop-color="#841524"/>
<stop offset="1" stop-color="#E83A3D"/>
</linearGradient>
</defs>
</svg>
