<svg width="100" height="100" viewBox="0 0 100 100" fill="none" xmlns="http://www.w3.org/2000/svg">
<circle cx="50" cy="50" r="49.5" stroke="url(#paint0_linear_379_462)"/>
<path fill-rule="evenodd" clip-rule="evenodd" d="M64.2612 57.0983C64.2606 56.9335 64.3254 56.7752 64.4415 56.6582C64.5576 56.5412 64.7154 56.4751 64.8802 56.4745C65.045 56.4738 65.2033 56.5387 65.3203 56.6548C65.4373 56.7708 65.5034 56.9286 65.504 57.0934L65.5057 57.3384C65.9925 57.471 66.4226 57.7594 66.73 58.1596C67.0375 58.5597 67.2055 59.0495 67.2083 59.5541C67.209 59.7189 67.1441 59.8772 67.028 59.9942C66.912 60.1112 66.7542 60.1773 66.5894 60.1779C66.4246 60.1786 66.2662 60.1137 66.1493 59.9976C66.0323 59.8816 65.9662 59.7238 65.9655 59.559C65.9641 59.3481 65.9001 59.1424 65.7817 58.9679C65.6633 58.7934 65.4958 58.658 65.3004 58.5787C65.1049 58.4995 64.8904 58.48 64.6839 58.5227C64.4774 58.5655 64.2882 58.6686 64.1403 58.8189C63.9924 58.9692 63.8924 59.16 63.8531 59.3672C63.8137 59.5743 63.8366 59.7885 63.919 59.9827C64.0014 60.1768 64.1396 60.3421 64.316 60.4576C64.4924 60.5732 64.6991 60.6338 64.91 60.6318V60.6343C66.9616 60.6229 68.0028 63.1096 66.566 64.5655C66.2869 64.8486 65.9393 65.0549 65.557 65.1642L65.5587 65.413C65.5593 65.5778 65.4945 65.7361 65.3784 65.8531C65.2623 65.9701 65.1045 66.0361 64.9397 66.0368C64.7749 66.0374 64.6166 65.9726 64.4996 65.8565C64.3827 65.7404 64.3166 65.5827 64.3159 65.4179L64.3144 65.1729C63.8275 65.0403 63.3974 64.7519 63.09 64.3517C62.7825 63.9516 62.6145 63.4618 62.6117 62.9572C62.6104 62.875 62.6254 62.7933 62.6559 62.717C62.6864 62.6406 62.7318 62.5711 62.7893 62.5123C62.8469 62.4536 62.9155 62.4069 62.9913 62.3749C63.067 62.3429 63.1484 62.3263 63.2306 62.326C63.3128 62.3257 63.3943 62.3417 63.4703 62.3731C63.5463 62.4044 63.6153 62.4506 63.6733 62.5089C63.7313 62.5671 63.7772 62.6363 63.8083 62.7124C63.8394 62.7886 63.855 62.8701 63.8544 62.9523C63.8562 63.1633 63.9205 63.369 64.0392 63.5434C64.1579 63.7179 64.3257 63.8532 64.5214 63.9322C64.717 64.0112 64.9317 64.0304 65.1383 63.9874C65.3448 63.9443 65.534 63.841 65.6818 63.6904C65.8296 63.5399 65.9294 63.3488 65.9686 63.1415C66.0078 62.9342 65.9846 62.7199 65.902 62.5258C65.8194 62.3316 65.681 62.1663 65.5044 62.0509C65.3278 61.9354 65.1209 61.8749 64.91 61.877V61.8795C62.2309 61.8795 61.7055 58.077 64.2628 57.347L64.2611 57.0983H64.2612ZM57.7913 60.7054C57.8577 59.8245 58.0881 58.9637 58.4706 58.1674C56.338 58.0954 53.8434 57.6758 52.3364 56.6975L52.3543 58.7424C52.4312 59.1349 52.9891 59.5391 53.8666 59.8953C54.8715 60.3031 56.2369 60.5934 57.7913 60.7058V60.7054ZM58.5823 64.5658C56.8778 64.5095 55.3546 64.241 54.2133 63.8328C53.0881 63.4304 52.3914 62.945 52.3871 62.472L52.37 60.5262C53.7079 61.3883 55.8563 61.8223 57.8044 61.953C57.8925 62.866 58.1567 63.7533 58.5824 64.5658H58.5823ZM37.3292 61.4454C37.3768 61.9595 38.1213 62.461 39.3048 62.8821C42.5114 64.0242 48.0113 64.1723 51.1471 62.7865L51.1216 59.8885C47.6067 61.1241 42.2587 61.0793 38.9749 59.9097C38.3939 59.712 37.8408 59.4403 37.3292 59.1012V61.4449V61.4454ZM51.1588 64.1242L51.1778 66.2999C51.1798 66.5093 51.2209 66.7164 51.2991 66.9106C50.5651 67.2191 49.801 67.4505 49.0192 67.6012C46.0089 68.2175 42.0426 68.1084 39.3892 67.1634C38.1562 66.7239 37.3774 66.1879 37.3292 65.6523V63.3009C40.439 65.3835 47.6319 65.4553 51.1588 64.1242ZM39.5265 71.4166C43.1543 72.394 47.2679 72.6239 50.8546 71.293C52.1056 70.8289 52.8956 70.2737 52.8956 69.7002V68.4287C52.6115 68.284 52.3423 68.1117 52.092 67.9142C48.5113 69.6534 40.625 69.7967 37.3292 67.5294L37.3268 69.8108C37.3333 70.4153 38.2766 70.9925 39.5265 71.4166ZM69.1059 65.398C69.9251 64.5682 70.4799 63.514 70.7001 62.3689C70.9202 61.2237 70.7959 60.039 70.3427 58.9645C69.8895 57.89 69.1279 56.974 68.1542 56.3324C67.1805 55.6908 66.0383 55.3523 64.8722 55.3597C63.7061 55.3672 62.5684 55.7203 61.603 56.3744C60.6376 57.0284 59.8878 57.9541 59.4484 59.0343C59.009 60.1145 58.8999 61.3007 59.1347 62.4429C59.3695 63.5852 59.9377 64.6322 60.7676 65.4514C61.3185 65.9956 61.9712 66.4259 62.6885 66.7178C63.4057 67.0096 64.1734 67.1573 64.9478 67.1523C65.7221 67.1473 66.4879 66.9898 67.2014 66.6888C67.9148 66.3878 68.562 65.9492 69.1059 65.398ZM58.6651 51.4044C60.7452 51.3524 62.9443 51.501 64.9118 52.2015C66.0003 52.5892 66.8143 53.1123 67.2397 53.7303V27.8321H58.6655V51.4044H58.6651ZM58.1371 52.675C56.5814 52.7799 55.2202 53.0425 54.1362 53.4447C53.0112 53.8621 52.3169 54.3578 52.3198 54.8328C52.3405 55.5075 53.6403 56.0116 54.1521 56.1939C55.4495 56.656 57.2387 56.9387 59.2234 56.9369C60.0066 55.9059 61.0553 55.1073 62.2574 54.6262C63.4594 54.1452 64.7696 54 66.0478 54.206C65.743 53.9124 65.2043 53.6279 64.4974 53.376C62.5931 52.6977 60.2103 52.5407 58.1369 52.6749L58.1371 52.675ZM58.6651 69.631V71.3952H67.2394V68.0065C66.8403 68.1441 66.4297 68.2458 66.0126 68.3105C65.2781 68.7083 64.3045 69.0381 63.1747 69.2688C61.6898 69.5586 60.1769 69.6802 58.6647 69.6313L58.6651 69.631ZM58.0259 68.3581C59.6206 68.4625 61.2222 68.3679 62.7936 68.0766C61.4737 67.6665 60.3013 66.8822 59.4184 65.8189L59.3935 65.8217V65.8192C56.9565 65.8348 54.0712 65.4234 52.4036 64.3397L52.4208 66.2929C52.4238 66.7669 53.1201 67.2527 54.2463 67.6552C55.2539 68.0152 56.5597 68.2662 58.0256 68.3583L58.0259 68.3581ZM57.4175 71.3952V69.5586C56.3069 69.4703 55.2092 69.2617 54.1437 68.9366L54.1402 69.7667C54.1207 70.3633 53.7965 70.9137 53.2297 71.3954L57.4175 71.3952ZM48.8433 53.7284V36.0581H57.4175V51.4859C55.9892 51.6226 54.7115 51.9007 53.7024 52.2751C52.3563 52.7745 51.4368 53.4774 51.1634 54.3029C50.4071 54.0482 49.6311 53.856 48.8434 53.7284H48.8433ZM48.0994 54.8751C49.1834 55.0866 50.029 55.1887 51.0844 55.6019L51.1103 58.5609C47.8613 59.8866 42.4677 59.8318 39.3895 58.7353C38.8158 58.531 37.3271 57.9429 37.3271 57.1773C37.3045 56.4508 38.8037 55.7949 39.3708 55.5845C41.8641 54.6594 45.3747 54.5005 48.0994 54.8751ZM27.9508 72.017C27.9506 72.099 27.9665 72.1804 27.9978 72.2563C28.029 72.3321 28.0749 72.4011 28.1329 72.4593C28.1908 72.5174 28.2597 72.5635 28.3355 72.595C28.4113 72.6265 28.4925 72.6427 28.5746 72.6428H39.2676C42.5712 73.715 47.4494 73.6899 50.7626 72.6428H67.8636C68.029 72.6428 68.1877 72.577 68.3047 72.46C68.4217 72.343 68.4874 72.1844 68.4874 72.0189V67.4359C69.0388 67.1161 69.5451 66.7242 69.9928 66.2705C73.2806 62.9391 72.5156 57.411 68.4874 55.0749V27.2079C68.4874 27.0424 68.4217 26.8838 68.3047 26.7668C68.1877 26.6498 68.029 26.5841 67.8636 26.5841H58.0413C57.8759 26.5841 57.7172 26.6498 57.6002 26.7668C57.4832 26.8838 57.4175 27.0424 57.4175 27.2079V34.8104H48.219C48.1371 34.8104 48.056 34.8266 47.9803 34.8579C47.9046 34.8893 47.8359 34.9352 47.7779 34.9931C47.72 35.0511 47.674 35.1198 47.6427 35.1955C47.6113 35.2712 47.5952 35.3523 47.5952 35.4343V42.6503H38.3968C38.2313 42.6503 38.0727 42.716 37.9557 42.833C37.8388 42.95 37.773 43.1087 37.773 43.2741V52.8528H28.5742C28.4088 52.8528 28.2501 52.9185 28.1331 53.0355C28.0161 53.1525 27.9504 53.3112 27.9504 53.4766V72.017H27.9508ZM37.7734 54.1005V54.9475C36.9573 55.4097 36.0791 56.1538 36.084 57.1773V69.8108C36.078 70.3807 36.3856 70.9346 36.8963 71.3952H29.1984V54.1003L37.7734 54.1005ZM39.021 54.3837V43.8979H47.5952V53.5605C44.8533 53.2789 41.5302 53.4771 39.021 54.3842V54.3837ZM51.4117 27.7876L52.5843 28.1017L46.1656 31.6029C46.0673 31.6523 45.984 31.7271 45.9242 31.8194L42.4707 37.1596L34.3035 39.6456C34.184 39.6707 34.0744 39.7303 33.9884 39.8171C33.9025 39.9039 33.8439 40.0141 33.8199 40.1339L32.419 47.1574L28.8407 47.9471C28.7593 47.9629 28.6818 47.9949 28.6129 48.0411C28.544 48.0873 28.485 48.1468 28.4395 48.2162C28.394 48.2855 28.3628 48.3633 28.3478 48.4449C28.3328 48.5265 28.3343 48.6103 28.3522 48.6913C28.3701 48.7723 28.404 48.8489 28.452 48.9166C28.5 48.9842 28.5611 49.0416 28.6316 49.0853C28.7021 49.129 28.7806 49.1582 28.8626 49.1711C28.9446 49.1839 29.0283 49.1802 29.1088 49.1602L33.0859 48.283C33.2038 48.257 33.3115 48.1972 33.3959 48.1111C33.4803 48.0249 33.5378 47.916 33.5614 47.7976L34.9707 40.7415L43.0499 38.2822C43.1902 38.2398 43.3109 38.1491 43.3906 38.0261L46.8824 32.6279L53.27 29.1437L52.9289 30.4167C52.8879 30.5758 52.9113 30.7446 52.9942 30.8865C53.0771 31.0284 53.2126 31.1318 53.3714 31.1742C53.5301 31.2166 53.6992 31.1946 53.8418 31.113C53.9843 31.0314 54.0889 30.8967 54.1327 30.7384L54.8494 28.0634C54.8706 27.9843 54.8759 27.9019 54.8652 27.8208C54.8545 27.7397 54.8279 27.6615 54.7869 27.5906C54.746 27.5198 54.6914 27.4578 54.6265 27.408C54.5616 27.3582 54.4874 27.3218 54.4084 27.3007L51.7334 26.5839C51.5738 26.5412 51.4037 26.5637 51.2607 26.6464C51.1177 26.7291 51.0134 26.8653 50.9707 27.0249C50.928 27.1845 50.9505 27.3545 51.0333 27.4976C51.116 27.6406 51.2521 27.7449 51.4117 27.7876Z" fill="url(#paint1_linear_379_462)"/>
<defs>
<linearGradient id="paint0_linear_379_462" x1="0.854701" y1="67.3077" x2="101.709" y2="67.3077" gradientUnits="userSpaceOnUse">
<stop stop-color="#841524"/>
<stop offset="1" stop-color="#E83A3D"/>
</linearGradient>
<linearGradient id="paint1_linear_379_462" x1="28.3273" y1="58.1131" x2="72.8031" y2="58.1131" gradientUnits="userSpaceOnUse">
<stop stop-color="#841524"/>
<stop offset="1" stop-color="#E83A3D"/>
</linearGradient>
</defs>
</svg>
