<svg width="100" height="100" viewBox="0 0 100 100" fill="none" xmlns="http://www.w3.org/2000/svg">
<circle cx="50" cy="50" r="49.5" stroke="url(#paint0_linear_379_499)"/>
<path d="M33.4895 73.5031C25.7432 73.5594 23.9476 62.7425 30.781 60.057C28.7831 56.2362 27.9693 51.9065 28.4436 47.621C28.9179 43.3355 30.6587 39.2886 33.4437 35.997H30.6376C30.4331 35.9929 30.2384 35.9088 30.0952 35.7627C29.952 35.6167 29.8718 35.4203 29.8718 35.2157C29.8718 35.0112 29.952 34.8148 30.0952 34.6688C30.2384 34.5227 30.4331 34.4386 30.6376 34.4345H35.2229C35.3255 34.4344 35.4271 34.4546 35.5219 34.4938C35.6168 34.5331 35.7029 34.5906 35.7755 34.6632C35.848 34.7357 35.9056 34.8219 35.9448 34.9167C35.9841 35.0115 36.0042 35.1131 36.0042 35.2157V39.7995C36.0042 40.0067 35.9218 40.2054 35.7753 40.3519C35.6288 40.4984 35.4301 40.5807 35.2229 40.5807C35.0157 40.5807 34.817 40.4984 34.6705 40.3519C34.524 40.2054 34.4417 40.0067 34.4417 39.7995V37.2406C31.8989 40.3392 30.3394 44.1265 29.9632 48.1171C29.5869 52.1078 30.411 56.1198 32.3298 59.639C33.4286 59.4397 34.5593 59.5094 35.6253 59.8421C36.6913 60.1749 37.6608 60.7608 38.451 61.5499C39.2413 62.3389 39.8287 63.3076 40.1631 64.3731C40.4975 65.4385 40.5689 66.5691 40.3712 67.6682C43.1542 69.1875 46.257 70.0275 49.4263 70.1195C52.5957 70.2115 55.742 69.553 58.6085 68.1977C58.7958 68.1098 59.0102 68.0997 59.2049 68.1697C59.3996 68.2397 59.5586 68.384 59.6471 68.571C59.7355 68.758 59.7462 68.9725 59.6768 69.1673C59.6074 69.3622 59.4636 69.5216 59.2768 69.6107C56.2445 71.0451 52.9205 71.7558 49.5667 71.687C46.2129 71.6182 42.9209 70.7716 39.95 69.2139C39.4316 70.4972 38.5371 71.5936 37.3841 72.3592C36.231 73.1247 34.8733 73.5235 33.4895 73.5031ZM30.6956 71.1807C31.5526 71.6469 32.5123 71.8921 33.4879 71.8943C34.4635 71.8964 35.4243 71.6553 36.2833 71.1929V69.3497C36.2847 69.0551 36.1691 68.7721 35.962 68.5627C35.7549 68.3533 35.4732 68.2346 35.1787 68.2327H31.8003C30.2758 68.2836 30.7726 70.2028 30.6956 71.1807ZM28.1077 65.8615C27.9478 67.2666 28.313 68.6812 29.1331 69.8334C29.0369 69.1592 29.1906 68.4732 29.5653 67.9046C29.94 67.336 30.5097 66.9241 31.1671 66.7465C29.6372 62.1053 37.3502 62.113 35.8058 66.7449C36.4624 66.9202 37.0324 67.3295 37.4082 67.8959C37.7839 68.4622 37.9396 69.1464 37.8458 69.8196C38.4431 69.0333 38.8144 68.0989 38.9196 67.1171C39.0248 66.1353 38.86 65.1434 38.4429 64.2484C38.0259 63.3534 37.3724 62.5892 36.5529 62.0383C35.7335 61.4874 34.7792 61.1706 33.793 61.1222C33.1083 61.0591 32.4179 61.1317 31.7613 61.3358C31.1047 61.54 30.4949 61.8717 29.9668 62.312C29.4386 62.7522 29.0025 63.2924 28.6835 63.9015C28.3645 64.5106 28.1688 65.1766 28.1077 65.8615ZM32.5205 65.7059C32.5238 65.9619 32.6282 66.2062 32.811 66.3855C32.9939 66.5648 33.2402 66.6644 33.4963 66.6626C33.7523 66.6608 33.9972 66.5577 34.1775 66.3759C34.3578 66.194 34.4588 65.9482 34.4584 65.6922C34.4552 65.4361 34.3507 65.1918 34.1679 65.0125C33.9851 64.8332 33.7387 64.7336 33.4827 64.7354C33.2266 64.7373 32.9817 64.8403 32.8014 65.0222C32.6211 65.204 32.5201 65.4498 32.5205 65.7059ZM69.3629 65.5655H64.7776C64.675 65.5655 64.5734 65.5454 64.4786 65.5061C64.3837 65.4669 64.2976 65.4093 64.225 65.3368C64.1525 65.2642 64.0949 65.1781 64.0557 65.0833C64.0165 64.9884 63.9963 64.8868 63.9963 64.7842V60.1989C64.0002 59.9943 64.0842 59.7994 64.2303 59.656C64.3764 59.5127 64.5729 59.4324 64.7776 59.4324C64.9823 59.4324 65.1788 59.5127 65.3249 59.656C65.4709 59.7994 65.555 59.9943 65.5588 60.1989V62.7563C68.0977 59.6624 69.6551 55.8811 70.0316 51.8967C70.4081 47.9123 69.5866 43.9062 67.6722 40.3915C66.5707 40.5836 65.4392 40.5075 64.3734 40.1698C63.3075 39.832 62.3387 39.2426 61.5488 38.4512C60.759 37.6599 60.1714 36.6899 59.8356 35.6234C59.4999 34.557 59.426 33.4253 59.6201 32.3242C56.8435 30.808 53.747 29.9716 50.5845 29.8835C47.4221 29.7954 44.2838 30.4583 41.4271 31.8176C41.24 31.9047 41.026 31.9143 40.8319 31.8444C40.6377 31.7744 40.4791 31.6306 40.3905 31.4442C40.3019 31.2578 40.2906 31.0439 40.359 30.8492C40.4274 30.6545 40.57 30.4947 40.7557 30.4047C43.78 28.966 47.0976 28.251 50.446 28.3164C53.7944 28.3818 57.0816 29.2258 60.0474 30.7816C60.5929 29.4429 61.5483 28.3113 62.7767 27.5493C64.0051 26.7872 65.4432 26.4337 66.8849 26.5396C73.939 26.699 76.2547 36.9534 69.2165 39.9628C71.2127 43.7806 72.0257 48.1069 71.5514 52.389C71.0771 56.671 69.3372 60.7145 66.5538 64.003H69.3629C69.5674 64.0071 69.7622 64.0912 69.9053 64.2373C70.0485 64.3833 70.1287 64.5797 70.1287 64.7843C70.1287 64.9888 70.0485 65.1852 69.9053 65.3312C69.7621 65.4773 69.5674 65.5614 69.3629 65.5655ZM63.7156 38.1531C64.5716 38.6217 65.5311 38.869 66.507 38.8725C67.4828 38.8759 68.4441 38.6355 69.3034 38.1729V36.3297C69.3047 36.0352 69.1891 35.7521 68.982 35.5427C68.7749 35.3333 68.4932 35.2146 68.1987 35.2127H64.8203C63.2979 35.264 63.7918 37.1756 63.7156 38.1531ZM61.1186 32.8522C60.9579 34.2553 61.3269 35.6679 62.1531 36.8133C62.0569 36.1392 62.2107 35.4532 62.5853 34.8846C62.96 34.316 63.5297 33.9041 64.1871 33.7265C62.6572 29.0854 70.3702 29.093 68.8258 33.725C69.4834 33.9008 70.0539 34.3111 70.4298 34.8787C70.8056 35.4462 70.9607 36.1317 70.8659 36.8057C71.4578 36.0164 71.8242 35.0811 71.926 34.0997C72.0278 33.1183 71.861 32.1277 71.4436 31.2337C71.0262 30.3397 70.3738 29.5759 69.5561 29.0238C68.7383 28.4717 67.786 28.1522 66.8008 28.0992C65.4178 27.98 64.0439 28.4129 62.9792 29.3035C61.9145 30.1941 61.2456 31.4699 61.1186 32.8522ZM65.5406 32.6859C65.5438 32.942 65.6482 33.1863 65.8311 33.3656C66.0139 33.5448 66.2602 33.6445 66.5163 33.6426C66.7723 33.6408 67.0173 33.5378 67.1976 33.3559C67.3778 33.1741 67.4788 32.9283 67.4784 32.6722C67.4752 32.4162 67.3707 32.1718 67.1879 31.9926C67.0051 31.8133 66.7587 31.7137 66.5027 31.7155C66.2466 31.7173 66.0017 31.8204 65.8214 32.0022C65.6411 32.1841 65.5402 32.4299 65.5406 32.6859ZM53.6585 65.0512C53.3542 65.0518 53.0528 64.9923 52.7716 64.876C52.4903 64.7597 52.2348 64.5891 52.0197 64.3738L45.5668 57.9208C43.4017 60.2809 40.7237 60.7519 38.7186 58.7507C38.3297 58.3829 38.0176 57.9416 37.8002 57.4524C37.5829 56.9632 37.4646 56.4358 37.4523 55.9007C37.4399 55.3655 37.5338 54.8332 37.7283 54.3345C37.9229 53.8359 38.2144 53.3807 38.5859 52.9953C39.1194 52.4096 39.6004 51.8412 40.0859 51.2695C43.4587 47.5012 46.03 43.0864 47.6436 38.2935C46.1618 36.4328 49.1631 33.7385 50.8205 35.5225L54.2537 38.9557C54.8486 38.6204 55.537 38.4891 56.2136 38.5817C56.8902 38.6744 57.5179 38.986 58.0007 39.4689C58.4836 39.9518 58.7952 40.5794 58.8879 41.256C58.9805 41.9326 58.8492 42.621 58.5139 43.2159L61.9502 46.6537C63.7275 48.3036 61.0415 51.3082 59.1777 49.826C56.5218 50.6614 53.994 51.8593 51.6657 53.3859C52.4652 54.0203 52.9142 55.0281 52.1112 55.864L51.089 56.8864L55.2973 61.0962C55.6139 61.4231 55.828 61.8354 55.9132 62.2824C55.9985 62.7294 55.951 63.1916 55.7768 63.612C55.6027 64.0324 55.3093 64.3926 54.9329 64.6483C54.5565 64.9041 54.1135 65.0441 53.6585 65.0512ZM46.7692 56.9137L53.1245 63.269C53.2661 63.4107 53.4582 63.4902 53.6585 63.4902C53.8588 63.4902 54.051 63.4107 54.1926 63.269C54.3342 63.1274 54.4138 62.9353 54.4138 62.735C54.4138 62.5346 54.3342 62.3425 54.1926 62.2009L47.9594 55.9677C47.5651 56.2734 47.1638 56.5889 46.7692 56.9137ZM39.7471 54.0405C39.5105 54.2797 39.3244 54.5639 39.1999 54.8764C39.0753 55.1889 39.0147 55.5232 39.0219 55.8595C39.029 56.1958 39.1036 56.5273 39.2413 56.8342C39.379 57.1411 39.5769 57.4172 39.8234 57.6462C41.3389 59.153 43.0078 58.3338 44.4651 56.8069L40.6626 53.0044C40.3681 53.3463 40.063 53.6916 39.7471 54.0405ZM41.6728 51.8051L45.6645 55.7969C46.302 55.2732 46.9462 54.7694 47.5611 54.3076C50.6909 51.8717 54.182 49.9396 57.9081 48.581L48.8917 39.5645C47.236 44.0432 44.7911 48.189 41.6728 51.8051ZM49.2259 55.0247L49.9842 55.7815L50.9181 54.8477L50.3276 54.2572C49.9674 54.5013 49.6002 54.7572 49.2259 55.0247ZM59.9482 48.4115C60.3764 49.0747 61.2558 48.1158 60.8546 47.7676L49.705 36.6165C49.3628 36.2108 48.3925 37.0898 49.058 37.5213L59.9482 48.4115ZM55.4423 40.1444L57.3253 42.0273C57.3897 41.7672 57.3858 41.4949 57.314 41.2368C57.2423 40.9787 57.105 40.7435 56.9155 40.554C56.7261 40.3646 56.4909 40.2273 56.2328 40.1555C55.9746 40.0837 55.7024 40.0799 55.4423 40.1444Z" fill="url(#paint1_linear_379_499)"/>
<defs>
<linearGradient id="paint0_linear_379_499" x1="0.854701" y1="67.3077" x2="101.709" y2="67.3077" gradientUnits="userSpaceOnUse">
<stop stop-color="#841524"/>
<stop offset="1" stop-color="#E83A3D"/>
</linearGradient>
<linearGradient id="paint1_linear_379_499" x1="26.9398" y1="58.1442" x2="74.2788" y2="58.1442" gradientUnits="userSpaceOnUse">
<stop stop-color="#841524"/>
<stop offset="1" stop-color="#E83A3D"/>
</linearGradient>
</defs>
</svg>
