<svg width="33" height="33" viewBox="0 0 33 33" fill="none" xmlns="http://www.w3.org/2000/svg">
<path d="M32.9026 9.70018C32.8251 7.94706 32.543 6.74191 32.1355 5.69751C31.7165 4.589 31.0731 3.59654 30.2285 2.77147C29.4037 1.93359 28.404 1.28248 27.3086 0.870117C26.2578 0.464068 25.0585 0.180474 23.3065 0.103253C21.5397 0.019334 20.9788 0 16.5 0C12.0211 0 11.4602 0.019334 9.70004 0.096687C7.94645 0.174023 6.74219 0.45775 5.69796 0.863535C4.58937 1.28248 3.59628 1.92701 2.77144 2.77147C1.93341 3.59647 1.28344 4.5955 0.869376 5.69121C0.463554 6.74191 0.179816 7.94061 0.102274 9.6936C0.0197977 11.4598 0 12.0205 0 16.5C0 20.9795 0.0197977 21.5402 0.0973273 23.2997C0.173221 25.0528 0.456959 26.2581 0.864429 27.3023C1.28344 28.4109 1.93341 29.4033 2.77144 30.2285C3.59628 31.0664 4.59598 31.7175 5.69135 32.1298C6.74219 32.5359 7.93986 32.8195 9.69345 32.8967C11.4536 32.9742 12.0145 32.9934 16.4934 32.9934C20.9722 32.9934 21.5331 32.9742 23.2933 32.8967C25.0469 32.8193 26.2512 32.5359 27.2954 32.1298C28.3924 31.7058 29.3888 31.0575 30.2203 30.226C31.05 29.3948 31.7 28.399 32.124 27.3023C32.5298 26.2518 32.8135 25.0528 32.8911 23.2997C32.967 21.5402 32.9868 20.9795 32.9868 16.5C32.9868 12.0205 32.9802 11.4597 32.9026 9.70018ZM29.9316 23.1709C29.8606 24.7821 29.5901 25.6523 29.3641 26.2324C28.8098 27.6697 27.6699 28.8105 26.233 29.3649C25.6523 29.5904 24.7764 29.8611 23.1712 29.9319C21.4308 30.0094 20.9079 30.0286 16.5066 30.0286C12.1036 30.0286 11.5757 30.0094 9.84192 29.9319C8.23019 29.8611 7.36081 29.5904 6.78014 29.3649C6.06583 29.1005 5.41421 28.6816 4.88466 28.1338C4.33697 27.5988 3.91796 26.9543 3.65401 26.239C3.42801 25.6589 3.15747 24.7821 3.08653 23.1775C3.00899 21.4373 2.99085 20.915 2.99085 16.5128C2.99085 12.1106 3.00899 11.5821 3.08653 9.84848C3.15747 8.23715 3.42801 7.36704 3.65401 6.78696C3.91796 6.0714 4.33697 5.42049 4.89126 4.89186C5.42741 4.344 6.07078 3.92505 6.78673 3.66099C7.36742 3.4354 8.24339 3.16471 9.84852 3.09374C11.5889 3.0164 12.1102 2.99707 16.5132 2.99707C20.9211 2.99707 21.444 3.0164 23.1778 3.09374C24.7879 3.16477 25.6589 3.43535 26.238 3.66093C26.9539 3.92505 27.6055 4.344 28.1334 4.89186C28.6811 5.42688 29.1001 6.0714 29.3641 6.78696C29.5901 7.36704 29.8606 8.24341 29.9316 9.84848C30.0091 11.5887 30.0289 12.1106 30.0289 16.5128C30.0289 20.915 30.0091 21.4307 29.9316 23.1709Z" fill="url(#paint0_linear_379_8810)"/>
<path d="M16.4994 8.02321C11.821 8.02321 8.02344 11.8194 8.02344 16.4988C8.02344 21.1781 11.821 24.9743 16.4994 24.9743C21.1779 24.9743 24.9754 21.1781 24.9754 16.4988C24.9754 11.8194 21.1779 8.02321 16.4994 8.02321ZM16.4994 21.9967C13.464 21.9967 11.0011 19.5346 11.0011 16.4988C11.0011 13.463 13.464 11.0009 16.4994 11.0009C19.5348 11.0009 21.9978 13.463 21.9978 16.4988C21.9978 19.5346 19.5348 21.9967 16.4994 21.9967ZM27.2883 7.68805C27.2883 8.78079 26.4024 9.66676 25.3103 9.66676C24.2166 9.66676 23.3307 8.78079 23.3307 7.68805C23.3307 6.59518 24.2166 5.70947 25.3103 5.70947C26.4024 5.70947 27.2883 6.59511 27.2883 7.68805Z" fill="url(#paint1_linear_379_8810)"/>
<defs>
<linearGradient id="paint0_linear_379_8810" x1="-0.136309" y1="32.9934" x2="32.8499" y2="32.8528" gradientUnits="userSpaceOnUse">
<stop stop-color="#FF00B0"/>
<stop offset="0.1875" stop-color="#FF870B"/>
<stop offset="0.473958" stop-color="#E80346"/>
<stop offset="0.770833" stop-color="#A800E4"/>
<stop offset="1" stop-color="#0096F1"/>
</linearGradient>
<linearGradient id="paint1_linear_379_8810" x1="7.94383" y1="24.9744" x2="27.2083" y2="24.8923" gradientUnits="userSpaceOnUse">
<stop stop-color="#FF00B0"/>
<stop offset="0.1875" stop-color="#FF870B"/>
<stop offset="0.473958" stop-color="#E80346"/>
<stop offset="0.770833" stop-color="#A800E4"/>
<stop offset="1" stop-color="#0096F1"/>
</linearGradient>
</defs>
</svg>
