<svg width="30" height="29" viewBox="0 0 30 29" fill="none" xmlns="http://www.w3.org/2000/svg">
<g filter="url(#filter0_d_379_1323)">
<mask id="mask0_379_1323" style="mask-type:alpha" maskUnits="userSpaceOnUse" x="5" y="2" width="21" height="20">
<rect opacity="0.8" x="5.5" y="2.5" width="19.8003" height="19" rx="2.97944" fill="#F7F7FC" stroke="url(#paint0_linear_379_1323)"/>
</mask>
<g mask="url(#mask0_379_1323)">
<rect x="4.77734" y="7.70935" width="29.8312" height="21.5809" rx="2.87845" fill="#C4C4C4" stroke="url(#paint1_linear_379_1323)"/>
<g filter="url(#filter1_f_379_1323)">
<path d="M-32.4357 8.10669C-45.0443 4.43978 -49.0473 16.5609 -49.4727 23.0799C-47.9616 26.0338 -41.4547 41.965 -34.4151 44.4096C-27.9861 46.6421 -17.1346 30.5716 2.44678 28.7636C9.66667 28.097 20.2777 35.7901 28.3947 33.8145C58.5261 26.4807 24.339 -16.5937 14.5419 -10.1766C4.74475 -3.75952 -16.6748 12.6903 -32.4357 8.10669Z" fill="#FFA5A5"/>
<path d="M-32.4357 8.10669C-45.0443 4.43978 -49.0473 16.5609 -49.4727 23.0799C-47.9616 26.0338 -41.4547 41.965 -34.4151 44.4096C-27.9861 46.6421 -17.1346 30.5716 2.44678 28.7636C9.66667 28.097 20.2777 35.7901 28.3947 33.8145C58.5261 26.4807 24.339 -16.5937 14.5419 -10.1766C4.74475 -3.75952 -16.6748 12.6903 -32.4357 8.10669Z" stroke="url(#paint2_linear_379_1323)"/>
</g>
<g filter="url(#filter2_f_379_1323)">
<path d="M13.6534 41.6764C6.41019 47.3196 10.6578 55.2725 13.687 58.5435C15.7942 59.0334 26.4507 62.6317 30.6905 59.6653C34.5626 56.9562 30.653 42.5574 38.2043 30.3138C40.9886 25.7995 50.0232 23.8124 52.5492 18.1685C61.9259 -2.78252 15.383 7.63784 14.3215 16.3201C13.2599 25.0025 22.7075 34.6223 13.6534 41.6764Z" fill="#AAA4F9"/>
<path d="M13.6534 41.6764C6.41019 47.3196 10.6578 55.2725 13.687 58.5435C15.7942 59.0334 26.4507 62.6317 30.6905 59.6653C34.5626 56.9562 30.653 42.5574 38.2043 30.3138C40.9886 25.7995 50.0232 23.8124 52.5492 18.1685C61.9259 -2.78252 15.383 7.63784 14.3215 16.3201C13.2599 25.0025 22.7075 34.6223 13.6534 41.6764Z" stroke="url(#paint3_linear_379_1323)"/>
</g>
<rect x="16.8312" y="13.8885" width="0.0374166" height="0.0374166" stroke="url(#paint4_linear_379_1323)" stroke-width="0.0374166"/>
</g>
</g>
<g clip-path="url(#clip0_379_1323)">
<path d="M14.3951 16.5001C14.2922 16.4997 14.1906 16.4782 14.0964 16.437C14.0022 16.3957 13.9175 16.3355 13.8476 16.2601L10.2026 12.3826C10.0663 12.2373 9.99332 12.044 9.99965 11.8449C10.006 11.6459 10.0911 11.4576 10.2363 11.3213C10.3815 11.1851 10.5749 11.1121 10.7739 11.1184C10.973 11.1247 11.1613 11.2098 11.2976 11.3551L14.3876 14.6476L20.6951 7.74755C20.7591 7.66785 20.8387 7.60207 20.9291 7.55425C21.0194 7.50644 21.1186 7.4776 21.2205 7.46951C21.3224 7.46143 21.4249 7.47426 21.5217 7.50722C21.6184 7.54018 21.7074 7.59258 21.7832 7.66119C21.859 7.7298 21.92 7.81318 21.9623 7.90621C22.0047 7.99924 22.0276 8.09995 22.0297 8.20216C22.0317 8.30437 22.0129 8.40591 21.9742 8.50056C21.9356 8.59521 21.878 8.68097 21.8051 8.75256L14.9501 16.2526C14.8808 16.3293 14.7964 16.3909 14.7022 16.4335C14.608 16.4761 14.506 16.4988 14.4026 16.5001H14.3951Z" fill="white"/>
</g>
<defs>
<filter id="filter0_d_379_1323" x="0.824676" y="0.608225" width="29.1509" height="28.3506" filterUnits="userSpaceOnUse" color-interpolation-filters="sRGB">
<feFlood flood-opacity="0" result="BackgroundImageFix"/>
<feColorMatrix in="SourceAlpha" type="matrix" values="0 0 0 0 0 0 0 0 0 0 0 0 0 0 0 0 0 0 127 0" result="hardAlpha"/>
<feOffset dy="2.78355"/>
<feGaussianBlur stdDeviation="2.08766"/>
<feComposite in2="hardAlpha" operator="out"/>
<feColorMatrix type="matrix" values="0 0 0 0 0.670833 0 0 0 0 0.449906 0 0 0 0 0.245972 0 0 0 0.13 0"/>
<feBlend mode="normal" in2="BackgroundImageFix" result="effect1_dropShadow_379_1323"/>
<feBlend mode="normal" in="SourceGraphic" in2="effect1_dropShadow_379_1323" result="shape"/>
</filter>
<filter id="filter1_f_379_1323" x="-56.9251" y="-18.2705" width="104.916" height="70.3371" filterUnits="userSpaceOnUse" color-interpolation-filters="sRGB">
<feFlood flood-opacity="0" result="BackgroundImageFix"/>
<feBlend mode="normal" in="SourceGraphic" in2="BackgroundImageFix" result="shape"/>
<feGaussianBlur stdDeviation="3.47229" result="effect1_foregroundBlur_379_1323"/>
</filter>
<filter id="filter2_f_379_1323" x="-9.0132" y="-12.8237" width="81.4859" height="92.3838" filterUnits="userSpaceOnUse" color-interpolation-filters="sRGB">
<feFlood flood-opacity="0" result="BackgroundImageFix"/>
<feBlend mode="normal" in="SourceGraphic" in2="BackgroundImageFix" result="shape"/>
<feGaussianBlur stdDeviation="9.10304" result="effect1_foregroundBlur_379_1323"/>
</filter>
<linearGradient id="paint0_linear_379_1323" x1="5" y1="19.237" x2="28.0458" y2="6.17633" gradientUnits="userSpaceOnUse">
<stop offset="0.223958" stop-color="#EED3A0"/>
<stop offset="0.776042" stop-color="#F68F73"/>
<stop offset="1" stop-color="#FF3A3A" stop-opacity="0.54"/>
</linearGradient>
<linearGradient id="paint1_linear_379_1323" x1="4.27734" y1="26.6707" x2="33.3273" y2="5.05695" gradientUnits="userSpaceOnUse">
<stop offset="0.223958" stop-color="#EED3A0"/>
<stop offset="0.776042" stop-color="#F68F73"/>
<stop offset="1" stop-color="#FF3A3A" stop-opacity="0.54"/>
</linearGradient>
<linearGradient id="paint2_linear_379_1323" x1="-49.4727" y1="36.9618" x2="24.4457" y2="-28.4321" gradientUnits="userSpaceOnUse">
<stop offset="0.223958" stop-color="#EED3A0"/>
<stop offset="0.776042" stop-color="#F68F73"/>
<stop offset="1" stop-color="#FF3A3A" stop-opacity="0.54"/>
</linearGradient>
<linearGradient id="paint3_linear_379_1323" x1="20.2955" y1="64.7625" x2="19.8432" y2="-8.91104" gradientUnits="userSpaceOnUse">
<stop offset="0.223958" stop-color="#EED3A0"/>
<stop offset="0.776042" stop-color="#F68F73"/>
<stop offset="1" stop-color="#FF3A3A" stop-opacity="0.54"/>
</linearGradient>
<linearGradient id="paint4_linear_379_1323" x1="16.8125" y1="13.9342" x2="16.897" y2="13.8882" gradientUnits="userSpaceOnUse">
<stop offset="0.223958" stop-color="#EED3A0"/>
<stop offset="0.776042" stop-color="#F68F73"/>
<stop offset="1" stop-color="#FF3A3A" stop-opacity="0.54"/>
</linearGradient>
<clipPath id="clip0_379_1323">
<rect width="18" height="18" fill="white" transform="translate(7 3)"/>
</clipPath>
</defs>
</svg>
