<svg width="40" height="40" viewBox="0 0 40 40" fill="none" xmlns="http://www.w3.org/2000/svg">
<g clip-path="url(#clip0_379_585)">
<path d="M27.125 13.5149C27.1227 11.5762 26.3516 9.71755 24.9807 8.34669C23.6098 6.97582 21.7512 6.20467 19.8125 6.20239C17.8738 6.20467 16.0152 6.97582 14.6443 8.34669C13.2734 9.71755 12.5023 11.5762 12.5 13.5149C12.5023 15.4536 13.2734 17.3122 14.6443 18.6831C16.0152 20.054 17.8738 20.8251 19.8125 20.8274C21.7512 20.8251 23.6098 20.054 24.9807 18.6831C26.3516 17.3122 27.1227 15.4536 27.125 13.5149ZM15.7187 14.6868V12.343H18.6406V9.41802H20.9844V12.343H23.9094V14.6868H20.9844V17.6118H18.6406V14.6868H15.7187Z" fill="#EF3D3F"/>
<path d="M33.6307 13.482C33.6307 6.04765 27.5831 0 20.1487 0C12.7143 0 6.66666 6.04765 6.66666 13.482C6.66666 21.9844 17.276 31.2484 20.1487 33.6C23.0214 31.2484 33.6307 21.9844 33.6307 13.482ZM10.4924 13.5148C10.4953 10.9547 11.5136 8.50031 13.3239 6.69004C15.1342 4.87977 17.5886 3.86149 20.1487 3.85859C22.7088 3.86149 25.1632 4.87977 26.9735 6.69004C28.7838 8.50031 29.802 10.9547 29.8049 13.5148C29.802 16.075 28.7838 18.5294 26.9735 20.3396C25.1632 22.1499 22.7088 23.1682 20.1487 23.1711C17.5886 23.1682 15.1342 22.1499 13.3239 20.3396C11.5136 18.5294 10.4953 16.075 10.4924 13.5148Z" fill="white" fill-opacity="0.4"/>
<path d="M30.774 34.0823C30.1341 33.7042 29.2536 33.3737 28.1552 33.0995C27.1202 32.8487 26.0705 32.6629 25.0122 32.5432C22.7771 34.6526 21.0755 35.9542 20.9716 36.0331L20.263 36.5706L19.5544 36.0331C19.4505 35.9549 17.749 34.6549 15.5138 32.5432C14.4561 32.663 13.4069 32.8488 12.3724 33.0995C11.2747 33.3737 10.3943 33.7042 9.75442 34.0823C8.58255 34.7768 8.33333 35.5838 8.33333 36.1385C8.33333 36.6932 8.5802 37.4995 9.75442 38.194C10.3943 38.5721 11.2747 38.9026 12.3724 39.1768C14.495 39.7081 17.2943 40.0002 20.263 40.0002C23.2318 40.0002 26.0333 39.7081 28.1536 39.1768C29.2521 38.9026 30.1325 38.5721 30.7724 38.194C31.9443 37.4995 32.1935 36.6924 32.1935 36.1385C32.1935 35.5846 31.9466 34.7768 30.7724 34.0823H30.774Z" fill="white" fill-opacity="0.4"/>
</g>
<defs>
<clipPath id="clip0_379_585">
<rect width="40" height="40" fill="white"/>
</clipPath>
</defs>
</svg>
