<svg width="18" height="18" viewBox="0 0 18 18" fill="none" xmlns="http://www.w3.org/2000/svg">
<path d="M13.5004 5.2875C13.5004 5.08859 13.4214 4.89782 13.2808 4.75717C13.1401 4.61652 12.9494 4.5375 12.7504 4.5375L6.75044 4.5C6.55153 4.5 6.36077 4.57902 6.22011 4.71967C6.07946 4.86032 6.00044 5.05109 6.00044 5.25C6.00044 5.44891 6.07946 5.63968 6.22011 5.78033C6.36077 5.92098 6.55153 6 6.75044 6H10.9204L4.71794 12.2175C4.64765 12.2872 4.59185 12.3702 4.55377 12.4616C4.5157 12.553 4.49609 12.651 4.49609 12.75C4.49609 12.849 4.5157 12.947 4.55377 13.0384C4.59185 13.1298 4.64765 13.2128 4.71794 13.2825C4.78766 13.3528 4.87062 13.4086 4.96201 13.4467C5.0534 13.4847 5.15143 13.5044 5.25044 13.5044C5.34945 13.5044 5.44748 13.4847 5.53888 13.4467C5.63027 13.4086 5.71322 13.3528 5.78294 13.2825L12.0004 7.065V11.25C12.0004 11.4489 12.0795 11.6397 12.2201 11.7803C12.3608 11.921 12.5515 12 12.7504 12C12.9494 12 13.1401 11.921 13.2808 11.7803C13.4214 11.6397 13.5004 11.4489 13.5004 11.25V5.2875Z" fill="url(#paint0_linear_379_8158)"/>
<defs>
<linearGradient id="paint0_linear_379_8158" x1="4.57305" y1="10.5606" x2="13.6544" y2="10.5606" gradientUnits="userSpaceOnUse">
<stop stop-color="#841524"/>
<stop offset="1" stop-color="#E83A3D"/>
</linearGradient>
</defs>
</svg>
