<svg width="20" height="20" viewBox="0 0 20 20" fill="none" xmlns="http://www.w3.org/2000/svg">
<path d="M13.11 18.3334H6.0575C5.12483 18.3428 4.22653 17.9818 3.55962 17.3298C2.89272 16.6777 2.51165 15.7877 2.5 14.8551V10.7401C2.50589 9.99705 2.75009 9.27552 3.19667 8.68163C3.64325 8.08774 4.26863 7.65285 4.98083 7.44092V6.16676C4.99665 4.96259 5.48817 3.81356 6.34811 2.97048C7.20806 2.12741 8.36658 1.65873 9.57083 1.66676C10.7889 1.66108 11.9604 2.13389 12.8333 2.98342C13.2614 3.39574 13.6018 3.8902 13.8342 4.43719C14.0666 4.98418 14.1862 5.57245 14.1858 6.16676V7.44092C14.898 7.65285 15.5234 8.08774 15.97 8.68163C16.4166 9.27552 16.6608 9.99705 16.6667 10.7401V14.8543C16.6552 15.7869 16.2744 16.6769 15.6076 17.3292C14.9409 17.9814 14.0427 18.3425 13.11 18.3334ZM9.58333 11.1534C9.39009 11.1514 9.20395 11.2262 9.06582 11.3614C8.92769 11.4965 8.84887 11.681 8.84667 11.8743V13.7126C8.84667 13.9091 8.92472 14.0975 9.06365 14.2364C9.20259 14.3754 9.39102 14.4534 9.5875 14.4534C9.78398 14.4534 9.97242 14.3754 10.1113 14.2364C10.2503 14.0975 10.3283 13.9091 10.3283 13.7126V11.8743C10.3248 11.68 10.2444 11.495 10.1048 11.3599C9.96514 11.2248 9.77763 11.1505 9.58333 11.1534ZM9.59167 3.11592C8.77587 3.10631 7.98933 3.41946 7.40338 3.98714C6.81743 4.55483 6.47955 5.33107 6.46333 6.14676V7.26176H12.7042V6.16676C12.6999 5.76177 12.6159 5.36159 12.457 4.98907C12.2981 4.61655 12.0673 4.27899 11.7779 3.99568C11.4884 3.71237 11.146 3.48886 10.7702 3.3379C10.3944 3.18695 9.99249 3.11152 9.5875 3.11592H9.59167Z" fill="#1D222D"/>
</svg>
