<svg width="154" height="50" viewBox="0 0 154 50" fill="none" xmlns="http://www.w3.org/2000/svg">
<g clip-path="url(#clip0_134_728)">
<path d="M14.3618 32.4557C12.4758 32.4573 10.608 32.0874 8.86527 31.3671C7.12249 30.6468 5.53891 29.5904 4.20506 28.258C2.87121 26.9257 1.81326 25.3438 1.09172 23.6026C0.370185 21.8614 -0.000791814 19.9952 1.26892e-06 18.1106V0H9.04393V18.1106C9.04711 19.5254 9.61094 20.8813 10.6121 21.8816C11.6132 22.882 12.9701 23.4454 14.3859 23.4486C15.0843 23.4593 15.7774 23.3256 16.4217 23.0561C17.066 22.7865 17.6476 22.3869 18.1301 21.8822C18.6357 21.3941 19.0357 20.8076 19.3054 20.1589C19.575 19.5101 19.7086 18.813 19.6977 18.1106V0H28.7416V18.1106C28.7432 21.9115 27.2346 25.5575 24.5472 28.2474C21.8599 30.9373 18.2137 32.4509 14.41 32.4557H14.3618Z" fill="url(#paint0_linear_134_728)"/>
<path d="M59.3825 0V9.03723H40.4385V12.6521H53.3894V19.8819H40.4385V32.4979H31.3945V0H59.3825Z" fill="url(#paint1_linear_134_728)"/>
<path d="M76.4695 32.4557C74.5841 32.4565 72.717 32.086 70.9749 31.3654C69.2328 30.6447 67.6499 29.5881 66.3167 28.2559C64.9835 26.9237 63.9261 25.342 63.2049 23.6012C62.4838 21.8604 62.113 19.9947 62.1138 18.1106V0H71.1276V18.1106C71.1307 19.5254 71.6946 20.8813 72.6957 21.8816C73.6968 22.882 75.0537 23.4454 76.4695 23.4486C77.168 23.4596 77.8612 23.3262 78.5055 23.0566C79.1499 22.787 79.7315 22.3872 80.2137 21.8822C80.7193 21.3941 81.1194 20.8076 81.389 20.1589C81.6587 19.5101 81.7922 18.813 81.7813 18.1106V0H90.8252V18.1106C90.8268 21.9115 89.3182 25.5575 86.6308 28.2474C83.9435 30.9373 80.2973 32.4509 76.4936 32.4557H76.4695Z" fill="url(#paint2_linear_134_728)"/>
<path d="M121.496 0V32.4557H113.381L102.528 17.0021V32.4557H93.4841V0H101.66L112.476 15.4537V0H121.496Z" fill="url(#paint3_linear_134_728)"/>
<path d="M153.994 16.2309C153.983 20.5316 152.268 24.6529 149.224 27.6934C146.18 30.7339 142.055 32.4462 137.751 32.4557H124.221V0H137.757C142.061 0.0111395 146.185 1.72493 149.228 4.76657C152.271 7.80821 153.984 11.9302 153.994 16.2309ZM133.235 23.4607H137.751C139.67 23.4607 141.51 22.699 142.867 21.3431C144.224 19.9873 144.986 18.1483 144.986 16.2309C144.986 14.3134 144.224 12.4745 142.867 11.1186C141.51 9.76279 139.67 9.00109 137.751 9.00109H133.235V23.4607Z" fill="url(#paint4_linear_134_728)"/>
<path d="M16.0318 50H13.4573V40.7218H17.9672C18.8898 40.7218 19.7747 41.088 20.4271 41.74C21.0795 42.3919 21.4461 43.2761 21.4461 44.1981C21.449 44.7968 21.296 45.386 21.0021 45.9078C20.7082 46.4296 20.2836 46.8661 19.7699 47.1743L21.4461 50H18.4314L17.0568 47.6744H16.0077L16.0318 50ZM16.0318 45.1018H17.9672C18.146 45.1033 18.3212 45.0515 18.4704 44.953C18.6195 44.8545 18.7359 44.7137 18.8045 44.5487C18.8731 44.3837 18.8909 44.202 18.8556 44.0269C18.8203 43.8517 18.7335 43.691 18.6063 43.5655C18.5246 43.4787 18.4253 43.4102 18.3152 43.3645C18.205 43.3188 18.0864 43.2969 17.9672 43.3004H16.0318V45.1018Z" fill="url(#paint5_linear_134_728)"/>
<path d="M31.5452 40.7218V43.3004H26.1188V44.3306H29.8208V46.3911H26.1188V47.4214H31.5452V50H23.5564V40.7218H31.5452Z" fill="url(#paint6_linear_134_728)"/>
<path d="M40.2455 40.7218L43.7727 50H41.0173L40.5229 48.7047H36.9053L36.3989 50H33.6375L37.255 40.7218H40.2455ZM37.9303 46.1441H39.5401L38.7503 44.0535L37.9303 46.1441Z" fill="url(#paint7_linear_134_728)"/>
<path d="M48.4814 40.7218V47.4214H53.9078V50H45.8828V40.7218H48.4814Z" fill="url(#paint8_linear_134_728)"/>
<path d="M68.6013 47.0358C68.5997 47.8204 68.2875 48.5725 67.7328 49.1279C67.1782 49.6833 66.4261 49.9968 65.6409 50H60.6064V40.7218H65.6409C66.4266 40.7234 67.1796 41.0364 67.7346 41.5921C68.2896 42.1478 68.6013 42.9009 68.6013 43.686C68.26 44.1779 68.0772 44.7623 68.0772 45.3609C68.0772 45.9595 68.26 46.5438 68.6013 47.0358ZM63.1749 44.2523H65.5866C65.6497 44.2535 65.7122 44.2406 65.7696 44.2146C65.8269 44.1885 65.8778 44.1499 65.9183 44.1017C65.9653 44.0542 66.0024 43.9977 66.0273 43.9356C66.0521 43.8735 66.0643 43.8071 66.063 43.7402C66.0644 43.6724 66.0523 43.605 66.0275 43.5419C66.0026 43.4788 65.9655 43.4213 65.9183 43.3727C65.8778 43.3244 65.8269 43.2858 65.7696 43.2598C65.7122 43.2337 65.6497 43.2208 65.5866 43.2221H63.1749V44.2523ZM65.5866 47.4997C65.6503 47.5011 65.7134 47.4877 65.771 47.4605C65.8285 47.4333 65.879 47.3931 65.9183 47.343C66.0112 47.2456 66.063 47.1162 66.063 46.9816C66.063 46.847 66.0112 46.7175 65.9183 46.6201C65.8778 46.5718 65.8269 46.5332 65.7696 46.5072C65.7122 46.4811 65.6497 46.4682 65.5866 46.4694H63.1749V47.4997H65.5866Z" fill="url(#paint9_linear_134_728)"/>
<path d="M74.8113 50C73.7223 50 72.678 49.5677 71.9079 48.7983C71.1379 48.0288 70.7053 46.9852 70.7053 45.8971V40.7218H73.2859V45.8971C73.3103 46.284 73.4812 46.6471 73.7641 46.9125C74.0469 47.1779 74.4203 47.3256 74.8083 47.3256C75.1962 47.3256 75.5696 47.1779 75.8524 46.9125C76.1353 46.6471 76.3063 46.284 76.3307 45.8971V40.7218H78.9052V45.8971C78.9052 46.9831 78.4742 48.0249 77.7068 48.794C76.9394 49.5631 75.8982 49.9968 74.8113 50Z" fill="url(#paint10_linear_134_728)"/>
<path d="M83.982 46.6622C83.1953 46.6622 82.4408 46.3499 81.8845 45.794C81.3282 45.2381 81.0156 44.4842 81.0156 43.698C81.0156 42.9119 81.3282 42.1579 81.8845 41.602C82.4408 41.0461 83.1953 40.7338 83.982 40.7338H89.1311V43.3124H83.982C83.8791 43.3124 83.7804 43.3529 83.707 43.425C83.6337 43.4971 83.5917 43.5952 83.5901 43.698C83.5916 43.7999 83.6327 43.8971 83.7047 43.9692C83.7405 44.0063 83.7836 44.0357 83.8314 44.0554C83.8791 44.0751 83.9304 44.0847 83.982 44.0836H86.6892C87.4759 44.0836 88.2304 44.3959 88.7868 44.9518C89.3431 45.5077 89.6556 46.2617 89.6556 47.0478C89.6556 47.834 89.3431 48.5879 88.7868 49.1438C88.2304 49.6997 87.4759 50.012 86.6892 50.012H81.5281V47.4334H86.6892C86.791 47.4319 86.8883 47.3908 86.9603 47.3188C87.0324 47.2468 87.0735 47.1496 87.0751 47.0478C87.0762 46.9962 87.0666 46.945 87.0468 46.8973C87.0271 46.8496 86.9977 46.8065 86.9605 46.7707C86.9251 46.735 86.8828 46.707 86.8361 46.6884C86.7894 46.6697 86.7394 46.6608 86.6892 46.6622H83.982Z" fill="url(#paint11_linear_134_728)"/>
<path d="M91.7598 40.7218H94.3403V50H91.7598V40.7218Z" fill="url(#paint12_linear_134_728)"/>
<path d="M104.439 40.7218V50H102.142L99.049 45.5778V50H96.4685V40.7218H98.7958L101.883 45.1379V40.7218H104.439Z" fill="url(#paint13_linear_134_728)"/>
<path d="M114.538 40.7218V43.3004H109.112V44.3306H112.808V46.3911H109.112V47.4214H114.538V50H106.543V40.7218H114.538Z" fill="url(#paint14_linear_134_728)"/>
<path d="M119.627 46.6622C118.84 46.6622 118.086 46.3499 117.529 45.794C116.973 45.2381 116.661 44.4842 116.661 43.698C116.661 42.9119 116.973 42.1579 117.529 41.602C118.086 41.0461 118.84 40.7338 119.627 40.7338H124.782V43.3124H119.627C119.525 43.314 119.428 43.3551 119.356 43.4271C119.284 43.4991 119.243 43.5963 119.241 43.698C119.241 43.7487 119.25 43.7989 119.27 43.8455C119.29 43.8922 119.319 43.9343 119.356 43.9692C119.39 44.0068 119.432 44.0365 119.479 44.0563C119.526 44.0761 119.576 44.0854 119.627 44.0836H122.334C123.121 44.0836 123.875 44.3959 124.432 44.9518C124.988 45.5077 125.301 46.2617 125.301 47.0478C125.301 47.834 124.988 48.5879 124.432 49.1438C123.875 49.6997 123.121 50.012 122.334 50.012H117.155V47.4334H122.316C122.367 47.4352 122.418 47.4259 122.464 47.4061C122.511 47.3863 122.553 47.3566 122.587 47.319C122.626 47.2851 122.657 47.2433 122.677 47.1965C122.698 47.1497 122.709 47.099 122.708 47.0478C122.708 46.9959 122.697 46.9444 122.677 46.8967C122.656 46.8491 122.625 46.8062 122.587 46.7707C122.552 46.735 122.51 46.707 122.463 46.6884C122.416 46.6697 122.366 46.6608 122.316 46.6622H119.627Z" fill="url(#paint15_linear_134_728)"/>
<path d="M130.359 46.6622C129.572 46.6622 128.818 46.3499 128.262 45.794C127.705 45.2381 127.393 44.4842 127.393 43.698C127.393 42.9119 127.705 42.1579 128.262 41.602C128.818 41.0461 129.572 40.7338 130.359 40.7338H135.514V43.3124H130.359C130.308 43.3107 130.258 43.32 130.211 43.3397C130.164 43.3595 130.122 43.3893 130.088 43.4269C130.049 43.4608 130.019 43.5025 129.998 43.5493C129.977 43.5961 129.967 43.6468 129.967 43.698C129.968 43.7491 129.979 43.7994 130 43.846C130.02 43.8927 130.05 43.9346 130.088 43.9692C130.122 44.0068 130.164 44.0365 130.211 44.0563C130.258 44.0761 130.308 44.0854 130.359 44.0836H133.066C133.853 44.0836 134.608 44.3959 135.164 44.9518C135.72 45.5077 136.033 46.2617 136.033 47.0478C136.033 47.834 135.72 48.5879 135.164 49.1438C134.608 49.6997 133.853 50.012 133.066 50.012H127.905V47.4334H133.066C133.168 47.4319 133.265 47.3908 133.338 47.3188C133.41 47.2468 133.451 47.1496 133.452 47.0478C133.453 46.9962 133.444 46.945 133.424 46.8973C133.404 46.8496 133.375 46.8065 133.338 46.7707C133.302 46.735 133.26 46.707 133.213 46.6884C133.167 46.6697 133.117 46.6608 133.066 46.6622H130.359Z" fill="url(#paint16_linear_134_728)"/>
</g>
<defs>
<linearGradient id="paint0_linear_134_728" x1="-9.96641" y1="18.695" x2="156.913" y2="-4.61875" gradientUnits="userSpaceOnUse">
<stop stop-color="#7A1122"/>
<stop offset="1" stop-color="#EF3D3F"/>
</linearGradient>
<linearGradient id="paint1_linear_134_728" x1="-9.42975" y1="22.5569" x2="157.456" y2="-0.762833" gradientUnits="userSpaceOnUse">
<stop stop-color="#7A1122"/>
<stop offset="1" stop-color="#EF3D3F"/>
</linearGradient>
<linearGradient id="paint2_linear_134_728" x1="-8.7786" y1="27.196" x2="158.101" y2="3.88227" gradientUnits="userSpaceOnUse">
<stop stop-color="#7A1122"/>
<stop offset="1" stop-color="#EF3D3F"/>
</linearGradient>
<linearGradient id="paint3_linear_134_728" x1="-8.06107" y1="32.3533" x2="158.825" y2="9.03351" gradientUnits="userSpaceOnUse">
<stop stop-color="#7A1122"/>
<stop offset="1" stop-color="#EF3D3F"/>
</linearGradient>
<linearGradient id="paint4_linear_134_728" x1="-7.59685" y1="35.6489" x2="159.283" y2="12.3351" gradientUnits="userSpaceOnUse">
<stop stop-color="#7A1122"/>
<stop offset="1" stop-color="#EF3D3F"/>
</linearGradient>
<linearGradient id="paint5_linear_134_728" x1="-5.7882" y1="48.6022" x2="161.092" y2="25.2824" gradientUnits="userSpaceOnUse">
<stop stop-color="#7A1122"/>
<stop offset="1" stop-color="#EF3D3F"/>
</linearGradient>
<linearGradient id="paint6_linear_134_728" x1="-5.5952" y1="49.9819" x2="161.285" y2="26.6681" gradientUnits="userSpaceOnUse">
<stop stop-color="#7A1122"/>
<stop offset="1" stop-color="#EF3D3F"/>
</linearGradient>
<linearGradient id="paint7_linear_134_728" x1="-5.3479" y1="51.7592" x2="161.532" y2="28.4454" gradientUnits="userSpaceOnUse">
<stop stop-color="#7A1122"/>
<stop offset="1" stop-color="#EF3D3F"/>
</linearGradient>
<linearGradient id="paint8_linear_134_728" x1="-5.16713" y1="53.0425" x2="161.713" y2="29.7227" gradientUnits="userSpaceOnUse">
<stop stop-color="#7A1122"/>
<stop offset="1" stop-color="#EF3D3F"/>
</linearGradient>
<linearGradient id="paint9_linear_134_728" x1="-4.91384" y1="54.868" x2="161.972" y2="31.5481" gradientUnits="userSpaceOnUse">
<stop stop-color="#7A1122"/>
<stop offset="1" stop-color="#EF3D3F"/>
</linearGradient>
<linearGradient id="paint10_linear_134_728" x1="-4.72709" y1="56.1935" x2="162.153" y2="32.8736" gradientUnits="userSpaceOnUse">
<stop stop-color="#7A1122"/>
<stop offset="1" stop-color="#EF3D3F"/>
</linearGradient>
<linearGradient id="paint11_linear_134_728" x1="-4.4918" y1="57.8925" x2="162.394" y2="34.5727" gradientUnits="userSpaceOnUse">
<stop stop-color="#7A1122"/>
<stop offset="1" stop-color="#EF3D3F"/>
</linearGradient>
<linearGradient id="paint12_linear_134_728" x1="-4.34098" y1="58.9468" x2="162.539" y2="35.633" gradientUnits="userSpaceOnUse">
<stop stop-color="#7A1122"/>
<stop offset="1" stop-color="#EF3D3F"/>
</linearGradient>
<linearGradient id="paint13_linear_134_728" x1="-4.20247" y1="59.959" x2="162.683" y2="36.6391" gradientUnits="userSpaceOnUse">
<stop stop-color="#7A1122"/>
<stop offset="1" stop-color="#EF3D3F"/>
</linearGradient>
<linearGradient id="paint14_linear_134_728" x1="-4.0096" y1="61.3447" x2="162.876" y2="38.0248" gradientUnits="userSpaceOnUse">
<stop stop-color="#7A1122"/>
<stop offset="1" stop-color="#EF3D3F"/>
</linearGradient>
<linearGradient id="paint15_linear_134_728" x1="-3.81064" y1="62.7666" x2="163.075" y2="39.4528" gradientUnits="userSpaceOnUse">
<stop stop-color="#7A1122"/>
<stop offset="1" stop-color="#EF3D3F"/>
</linearGradient>
<linearGradient id="paint16_linear_134_728" x1="-3.60533" y1="64.2367" x2="163.28" y2="40.923" gradientUnits="userSpaceOnUse">
<stop stop-color="#7A1122"/>
<stop offset="1" stop-color="#EF3D3F"/>
</linearGradient>
<clipPath id="clip0_134_728">
<rect width="154" height="50" fill="white"/>
</clipPath>
</defs>
</svg>
