<svg width="33" height="32" viewBox="0 0 33 32" fill="none" xmlns="http://www.w3.org/2000/svg">
<path d="M33 32V20.28C33 14.52 31.7212 10.12 24.7913 10.12C21.45 10.12 19.2225 11.88 18.315 13.56H18.2325V10.64H11.6738V32H18.5212V21.4C18.5212 18.6 19.0575 15.92 22.605 15.92C26.1113 15.92 26.1525 19.08 26.1525 21.56V31.96H33V32ZM0.536251 10.64H7.38375V32H0.536251V10.64ZM3.96 0C1.77375 0 0 1.72 0 3.84C0 5.96 1.77375 7.72 3.96 7.72C6.14625 7.72 7.92 5.96 7.92 3.84C7.92 1.72 6.14625 0 3.96 0Z" fill="url(#paint0_linear_379_8808)"/>
<defs>
<linearGradient id="paint0_linear_379_8808" x1="-0.136364" y1="32" x2="32.863" y2="31.855" gradientUnits="userSpaceOnUse">
<stop stop-color="#FF00B0"/>
<stop offset="0.1875" stop-color="#FF870B"/>
<stop offset="0.473958" stop-color="#E80346"/>
<stop offset="0.770833" stop-color="#A800E4"/>
<stop offset="1" stop-color="#0096F1"/>
</linearGradient>
</defs>
</svg>
