<svg width="33" height="32" viewBox="0 0 33 32" fill="none" xmlns="http://www.w3.org/2000/svg">
<path d="M16.5002 0C7.38745 0 0 7.19354 0 16.0671C0 24.0255 5.94861 30.6165 13.7481 31.8927V19.419H9.7679V14.9302H13.7481V11.6204C13.7481 7.78004 16.157 5.68726 19.6758 5.68726C21.3611 5.68726 22.8093 5.80952 23.2297 5.8634V9.8776L20.7892 9.87876C18.876 9.87876 18.5072 10.7639 18.5072 12.0632V14.9279H23.0723L22.4768 19.4167H18.5072V32C26.6709 31.0326 33 24.2737 33 16.0624C33 7.19354 25.6126 0 16.5002 0Z" fill="url(#paint0_linear_379_8807)"/>
<defs>
<linearGradient id="paint0_linear_379_8807" x1="-0.136364" y1="32" x2="32.863" y2="31.855" gradientUnits="userSpaceOnUse">
<stop stop-color="#FF00B0"/>
<stop offset="0.1875" stop-color="#FF870B"/>
<stop offset="0.473958" stop-color="#E80346"/>
<stop offset="0.770833" stop-color="#A800E4"/>
<stop offset="1" stop-color="#0096F1"/>
</linearGradient>
</defs>
</svg>
