<svg width="48" height="48" viewBox="0 0 48 48" fill="none" xmlns="http://www.w3.org/2000/svg">
<g clip-path="url(#clip0_134_1414)">
<mask id="mask0_134_1414" style="mask-type:luminance" maskUnits="userSpaceOnUse" x="0" y="0" width="48" height="48">
<path d="M48 0H0V48H48V0Z" fill="white"/>
</mask>
<g mask="url(#mask0_134_1414)">
<path d="M46.125 34.0312C45.6277 34.0312 45.1508 33.8337 44.7992 33.4821C44.4475 33.1304 44.25 32.6535 44.25 32.1562V25.6875H37.6875C37.1902 25.6875 36.7133 25.49 36.3617 25.1383C36.01 24.7867 35.8125 24.3098 35.8125 23.8125C35.8125 23.3152 36.01 22.8383 36.3617 22.4867C36.7133 22.135 37.1902 21.9375 37.6875 21.9375H46.125C46.6223 21.9375 47.0992 22.135 47.4508 22.4867C47.8025 22.8383 48 23.3152 48 23.8125V32.1562C48 32.6535 47.8025 33.1304 47.4508 33.4821C47.0992 33.8337 46.6223 34.0312 46.125 34.0312Z" fill="url(#paint0_linear_134_1414)"/>
<path d="M46.125 48C45.6277 48 45.1508 47.8025 44.7992 47.4508C44.4475 47.0992 44.25 46.6223 44.25 46.125V39.6562C44.25 39.159 44.4475 38.6821 44.7992 38.3304C45.1508 37.9788 45.6277 37.7812 46.125 37.7812C46.6223 37.7812 47.0992 37.9788 47.4508 38.3304C47.8025 38.6821 48 39.159 48 39.6562V46.125C48 46.6223 47.8025 47.0992 47.4508 47.4508C47.0992 47.8025 46.6223 48 46.125 48Z" fill="url(#paint1_linear_134_1414)"/>
<path d="M38.625 48C38.1277 48 37.6508 47.8025 37.2992 47.4508C36.9475 47.0992 36.75 46.6223 36.75 46.125V39.6562C36.75 39.159 36.9475 38.6821 37.2992 38.3304C37.6508 37.9788 38.1277 37.7812 38.625 37.7812C39.1223 37.7812 39.5992 37.9788 39.9508 38.3304C40.3025 38.6821 40.5 39.159 40.5 39.6562V46.125C40.5 46.6223 40.3025 47.0992 39.9508 47.4508C39.5992 47.8025 39.1223 48 38.625 48Z" fill="url(#paint2_linear_134_1414)"/>
<path d="M31.125 48C30.6277 48 30.1508 47.8025 29.7992 47.4508C29.4475 47.0992 29.25 46.6223 29.25 46.125V39.6562C29.25 39.159 29.4475 38.6821 29.7992 38.3304C30.1508 37.9788 30.6277 37.7812 31.125 37.7812C31.6223 37.7812 32.0992 37.9788 32.4508 38.3304C32.8025 38.6821 33 39.159 33 39.6562V46.125C33 46.6223 32.8025 47.0992 32.4508 47.4508C32.0992 47.8025 31.6223 48 31.125 48Z" fill="url(#paint3_linear_134_1414)"/>
<path d="M23.625 48C23.1277 48 22.6508 47.8025 22.2992 47.4508C21.9475 47.0992 21.75 46.6223 21.75 46.125V45.375C21.75 44.8777 21.9475 44.4008 22.2992 44.0492C22.6508 43.6975 23.1277 43.5 23.625 43.5C24.1223 43.5 24.5992 43.6975 24.9508 44.0492C25.3025 44.4008 25.5 44.8777 25.5 45.375V46.125C25.5 46.6223 25.3025 47.0992 24.9508 47.4508C24.5992 47.8025 24.1223 48 23.625 48Z" fill="url(#paint4_linear_134_1414)"/>
<path d="M13.6876 48C13.4413 48.0004 13.1974 47.9521 12.9698 47.8578C12.7423 47.7635 12.5357 47.6251 12.362 47.4506C12.0105 47.099 11.813 46.6222 11.813 46.125C11.813 45.6278 12.0105 45.151 12.362 44.7993L25.3932 31.7681C25.7448 31.4164 26.2216 31.2188 26.7188 31.2187H36.1801L44.6682 22.7306C44.8423 22.5564 45.0491 22.4182 45.2766 22.324C45.5041 22.2297 45.748 22.1812 45.9943 22.1812C46.2406 22.1812 46.4845 22.2297 46.712 22.324C46.9396 22.4182 47.1463 22.5564 47.3204 22.7306C47.4946 22.9047 47.6328 23.1115 47.727 23.339C47.8213 23.5665 47.8698 23.8104 47.8698 24.0567C47.8698 24.303 47.8213 24.5469 47.727 24.7744C47.6328 25.0019 47.4946 25.2087 47.3204 25.3828L38.2829 34.4193C37.9314 34.771 37.4545 34.9686 36.9573 34.9687H27.4951L15.0132 47.4506C14.8395 47.6251 14.6329 47.7635 14.4053 47.8578C14.1778 47.9521 13.9339 48.0004 13.6876 48Z" fill="url(#paint5_linear_134_1414)"/>
</g>
<path d="M19.7812 31.7813C19.284 31.7813 18.8071 31.5838 18.4554 31.2322C18.1038 30.8805 17.9062 30.4036 17.9062 29.9063V27.272C17.9062 26.7747 18.1038 26.2978 18.4554 25.9461C18.8071 25.5945 19.284 25.397 19.7812 25.397C20.2785 25.397 20.7555 25.5945 21.1071 25.9461C21.4587 26.2978 21.6562 26.7747 21.6562 27.272V29.9063C21.6562 30.4036 21.4587 30.8805 21.1071 31.2322C20.7555 31.5838 20.2785 31.7813 19.7812 31.7813Z" fill="url(#paint6_linear_134_1414)"/>
<path d="M19.7812 13.7897C19.284 13.7897 18.8071 13.5921 18.4554 13.2405C18.1038 12.8889 17.9062 12.412 17.9062 11.9147V9.375C17.9062 8.87772 18.1038 8.4008 18.4554 8.04917C18.8071 7.69754 19.284 7.5 19.7812 7.5C20.2785 7.5 20.7555 7.69754 21.1071 8.04917C21.4587 8.4008 21.6562 8.87772 21.6562 9.375V11.9147C21.6562 12.412 21.4587 12.8889 21.1071 13.2405C20.7555 13.5921 20.2785 13.7897 19.7812 13.7897Z" fill="url(#paint7_linear_134_1414)"/>
<path d="M19.7811 29.0758C17.5892 29.0758 15.508 27.722 14.6023 25.7064C14.3983 25.2533 14.3824 24.7378 14.5581 24.273C14.7339 23.8082 15.087 23.4323 15.5398 23.2276C15.9929 23.0236 16.5084 23.0077 16.9732 23.1835C17.438 23.3592 17.814 23.7123 18.0186 24.1651C18.1745 24.503 18.4218 24.7904 18.7327 24.9949C19.0435 25.1993 19.4054 25.3127 19.7773 25.322C20.2746 25.322 20.7515 25.1245 21.1032 24.7729C21.4548 24.4212 21.6523 23.9443 21.6523 23.447C21.6533 22.9482 21.4565 22.4694 21.1051 22.1155C20.7536 21.7615 20.2761 21.5614 19.7773 21.5589C18.2878 21.5589 16.859 20.9681 15.8045 19.916C14.75 18.864 14.1558 17.4366 14.1523 15.947C14.1541 14.4557 14.7473 13.026 15.8018 11.9715C16.8563 10.9169 18.286 10.3238 19.7773 10.322C20.8672 10.3118 21.9352 10.6276 22.8442 11.229C23.7532 11.8304 24.4615 12.6899 24.8783 13.697C24.9758 13.924 25.0274 14.168 25.0303 14.4151C25.0332 14.6621 24.9872 14.9073 24.8951 15.1365C24.8029 15.3657 24.6663 15.5744 24.4932 15.7507C24.3201 15.927 24.1139 16.0673 23.8864 16.1636C23.6598 16.2599 23.4164 16.3106 23.1701 16.3128C22.9239 16.315 22.6796 16.2687 22.4512 16.1765C22.2229 16.0843 22.0149 15.9481 21.8392 15.7755C21.6636 15.6029 21.5236 15.3974 21.4273 15.1708C21.2981 14.8411 21.0705 14.5591 20.7755 14.3632C20.4805 14.1673 20.1323 14.0669 19.7783 14.0758C19.281 14.0758 18.8041 14.2733 18.4524 14.6249C18.1008 14.9766 17.9033 15.4535 17.9033 15.9508C17.9067 16.4458 18.1058 16.9193 18.4571 17.2681C18.8083 17.6169 19.2833 17.8127 19.7783 17.8126C21.2713 17.8161 22.702 18.4117 23.7565 19.4686C24.8111 20.5256 25.4033 21.9577 25.4033 23.4508C25.4015 24.9416 24.8087 26.3709 23.7548 27.4253C22.7009 28.4798 21.2719 29.0733 19.7811 29.0758Z" fill="url(#paint8_linear_134_1414)"/>
<path d="M13.3125 38.2012C13.083 38.2011 12.8554 38.1585 12.6413 38.0756C8.96666 36.6699 5.79868 34.1933 3.54756 30.9666C1.23021 27.6627 -0.00889003 23.7231 4.80164e-05 19.6875C4.80164e-05 8.83219 8.83224 0 19.6875 0C24.3498 0.000571618 28.8607 1.65491 32.4179 4.66875C35.9235 7.64085 38.2803 11.7446 39.0807 16.2703C39.1664 16.7601 39.0541 17.264 38.7684 17.671C38.4827 18.078 38.0471 18.3548 37.5572 18.4406C37.0674 18.5264 36.5636 18.4141 36.1566 18.1284C35.7496 17.8427 35.4727 17.407 35.3869 16.9172C34.7422 13.2239 32.8132 9.87719 29.9407 7.46795C27.0681 5.0587 23.4367 3.74189 19.6875 3.75C10.8994 3.75 3.75005 10.8994 3.75005 19.6875C3.75005 26.25 7.86286 32.2275 13.9838 34.575C14.4479 34.7531 14.8224 35.1083 15.0247 35.5624C15.2271 36.0165 15.2408 36.5323 15.0629 36.9966C14.9272 37.3509 14.6873 37.6557 14.3748 37.8708C14.0623 38.0859 13.6919 38.2011 13.3125 38.2012Z" fill="url(#paint9_linear_134_1414)"/>
</g>
<defs>
<linearGradient id="paint0_linear_134_1414" x1="35.9167" y1="30.0775" x2="48.2083" y2="30.0775" gradientUnits="userSpaceOnUse">
<stop stop-color="#841524"/>
<stop offset="1" stop-color="#E83A3D"/>
</linearGradient>
<linearGradient id="paint1_linear_134_1414" x1="44.2821" y1="44.6593" x2="48.0641" y2="44.6593" gradientUnits="userSpaceOnUse">
<stop stop-color="#841524"/>
<stop offset="1" stop-color="#E83A3D"/>
</linearGradient>
<linearGradient id="paint2_linear_134_1414" x1="36.7821" y1="44.6593" x2="40.5641" y2="44.6593" gradientUnits="userSpaceOnUse">
<stop stop-color="#841524"/>
<stop offset="1" stop-color="#E83A3D"/>
</linearGradient>
<linearGradient id="paint3_linear_134_1414" x1="29.2821" y1="44.6593" x2="33.0641" y2="44.6593" gradientUnits="userSpaceOnUse">
<stop stop-color="#841524"/>
<stop offset="1" stop-color="#E83A3D"/>
</linearGradient>
<linearGradient id="paint4_linear_134_1414" x1="21.7821" y1="46.5288" x2="25.5641" y2="46.5288" gradientUnits="userSpaceOnUse">
<stop stop-color="#841524"/>
<stop offset="1" stop-color="#E83A3D"/>
</linearGradient>
<linearGradient id="paint5_linear_134_1414" x1="12.1212" y1="39.5592" x2="48.4862" y2="39.5592" gradientUnits="userSpaceOnUse">
<stop stop-color="#841524"/>
<stop offset="1" stop-color="#E83A3D"/>
</linearGradient>
<linearGradient id="paint6_linear_134_1414" x1="17.9383" y1="29.6941" x2="21.7204" y2="29.6941" gradientUnits="userSpaceOnUse">
<stop stop-color="#841524"/>
<stop offset="1" stop-color="#E83A3D"/>
</linearGradient>
<linearGradient id="paint7_linear_134_1414" x1="17.9383" y1="11.7334" x2="21.7204" y2="11.7334" gradientUnits="userSpaceOnUse">
<stop stop-color="#841524"/>
<stop offset="1" stop-color="#E83A3D"/>
</linearGradient>
<linearGradient id="paint8_linear_134_1414" x1="14.2485" y1="22.9447" x2="25.5956" y2="22.9447" gradientUnits="userSpaceOnUse">
<stop stop-color="#841524"/>
<stop offset="1" stop-color="#E83A3D"/>
</linearGradient>
<linearGradient id="paint9_linear_134_1414" x1="0.334263" y1="25.7124" x2="39.7773" y2="25.7124" gradientUnits="userSpaceOnUse">
<stop stop-color="#841524"/>
<stop offset="1" stop-color="#E83A3D"/>
</linearGradient>
<clipPath id="clip0_134_1414">
<rect width="48" height="48" fill="white"/>
</clipPath>
</defs>
</svg>
