<svg width="48" height="48" viewBox="0 0 48 48" fill="none" xmlns="http://www.w3.org/2000/svg">
<path fill-rule="evenodd" clip-rule="evenodd" d="M24 42.5C24.3978 42.5 24.7794 42.658 25.0607 42.9393C25.342 43.2206 25.5 43.6022 25.5 44C25.5 44.3978 25.342 44.7794 25.0607 45.0607C24.7794 45.342 24.3978 45.5 24 45.5H8C6.542 45.5 5.142 44.92 4.11 43.89C3.07959 42.8576 2.50061 41.4587 2.5 40V8C2.5 6.542 3.08 5.142 4.11 4.11C5.14244 3.07959 6.54134 2.50061 8 2.5H25.172C26.1 2.5 26.99 2.868 27.646 3.526L36.474 12.354C37.132 13.01 37.5 13.9 37.5 14.828V22C37.5 22.3978 37.342 22.7794 37.0607 23.0607C36.7794 23.342 36.3978 23.5 36 23.5C35.6022 23.5 35.2206 23.342 34.9393 23.0607C34.658 22.7794 34.5 22.3978 34.5 22V14.828C34.5001 14.7623 34.4873 14.6972 34.4622 14.6365C34.4372 14.5757 34.4004 14.5205 34.354 14.474L25.526 5.646C25.4795 5.5996 25.4243 5.56282 25.3635 5.53777C25.3028 5.51272 25.2377 5.49988 25.172 5.5H8C7.33728 5.50106 6.70201 5.76479 6.2334 6.2334C5.76479 6.70201 5.50106 7.33728 5.5 8V40C5.50106 40.6627 5.76479 41.298 6.2334 41.7666C6.70201 42.2352 7.33728 42.4989 8 42.5H24Z" fill="url(#paint0_linear_134_1381)"/>
<path fill-rule="evenodd" clip-rule="evenodd" d="M24.5 5C24.5 4.60218 24.658 4.22064 24.9393 3.93934C25.2206 3.65804 25.6022 3.5 26 3.5C26.3978 3.5 26.7794 3.65804 27.0607 3.93934C27.342 4.22064 27.5 4.60218 27.5 5V12C27.5 12.276 27.724 12.5 28 12.5H35C35.3978 12.5 35.7794 12.658 36.0607 12.9393C36.342 13.2206 36.5 13.6022 36.5 14C36.5 14.3978 36.342 14.7794 36.0607 15.0607C35.7794 15.342 35.3978 15.5 35 15.5H28C27.0717 15.5 26.1815 15.1313 25.5251 14.4749C24.8687 13.8185 24.5 12.9283 24.5 12V5ZM12 22.5C11.6022 22.5 11.2206 22.342 10.9393 22.0607C10.658 21.7794 10.5 21.3978 10.5 21C10.5 20.6022 10.658 20.2206 10.9393 19.9393C11.2206 19.658 11.6022 19.5 12 19.5H28C28.3978 19.5 28.7794 19.658 29.0607 19.9393C29.342 20.2206 29.5 20.6022 29.5 21C29.5 21.3978 29.342 21.7794 29.0607 22.0607C28.7794 22.342 28.3978 22.5 28 22.5H12ZM12 29.5C11.6022 29.5 11.2206 29.342 10.9393 29.0607C10.658 28.7794 10.5 28.3978 10.5 28C10.5 27.6022 10.658 27.2206 10.9393 26.9393C11.2206 26.658 11.6022 26.5 12 26.5H21C21.3978 26.5 21.7794 26.658 22.0607 26.9393C22.342 27.2206 22.5 27.6022 22.5 28C22.5 28.3978 22.342 28.7794 22.0607 29.0607C21.7794 29.342 21.3978 29.5 21 29.5H12ZM12 36.5C11.6022 36.5 11.2206 36.342 10.9393 36.0607C10.658 35.7794 10.5 35.3978 10.5 35C10.5 34.6022 10.658 34.2206 10.9393 33.9393C11.2206 33.658 11.6022 33.5 12 33.5H21C21.3978 33.5 21.7794 33.658 22.0607 33.9393C22.342 34.2206 22.5 34.6022 22.5 35C22.5 35.3978 22.342 35.7794 22.0607 36.0607C21.7794 36.342 21.3978 36.5 21 36.5H12Z" fill="url(#paint1_linear_134_1381)"/>
<path d="M35.7219 38.25C37.3788 38.25 38.7219 36.9069 38.7219 35.25C38.7219 33.5931 37.3788 32.25 35.7219 32.25C34.0651 32.25 32.7219 33.5931 32.7219 35.25C32.7219 36.9069 34.0651 38.25 35.7219 38.25Z" fill="url(#paint2_linear_134_1381)"/>
<path fill-rule="evenodd" clip-rule="evenodd" d="M38.7921 26.088L39.5001 27.798C39.7701 27.934 40.0321 28.086 40.2861 28.25L42.1221 28.01C42.367 27.9785 42.616 28.0079 42.8469 28.0954C43.0778 28.183 43.2836 28.326 43.4461 28.512C44.3181 29.512 44.9881 30.674 45.4201 31.93C45.4999 32.1639 45.5207 32.414 45.4806 32.6579C45.4404 32.9018 45.3407 33.132 45.1901 33.328L44.0661 34.796C44.0821 35.098 44.0821 35.402 44.0661 35.702L45.1901 37.172C45.3407 37.368 45.4404 37.5982 45.4806 37.8421C45.5207 38.086 45.4999 38.3361 45.4201 38.57C44.9886 39.8259 44.3183 40.9866 43.4461 41.988C43.2836 42.1739 43.0778 42.317 42.8469 42.4046C42.616 42.4921 42.367 42.5214 42.1221 42.49C42.1221 42.49 40.2861 42.25 40.2881 42.248C40.0345 42.4135 39.7722 42.5651 39.5021 42.702L38.7921 44.412C38.6976 44.6402 38.548 44.8415 38.3568 44.9978C38.1655 45.1542 37.9386 45.2607 37.6961 45.308C36.3925 45.564 35.0517 45.564 33.7481 45.308C33.5056 45.2607 33.2787 45.1542 33.0874 44.9978C32.8962 44.8415 32.7466 44.6402 32.6521 44.412L31.9441 42.702C31.674 42.5659 31.4116 42.415 31.1581 42.25L29.3221 42.49C29.0771 42.5216 28.8282 42.4924 28.5972 42.4048C28.3663 42.3172 28.1605 42.1741 27.9981 41.988C27.1244 40.9876 26.4539 39.8267 26.0241 38.57C25.9444 38.3362 25.9234 38.0863 25.9632 37.8425C26.003 37.5986 26.1022 37.3684 26.2521 37.172L27.3781 35.704C27.3621 35.4022 27.3621 35.0998 27.3781 34.798L26.2521 33.328C26.1022 33.1316 26.003 32.9013 25.9632 32.6575C25.9234 32.4137 25.9444 32.1638 26.0241 31.93C26.4541 30.674 27.1241 29.512 27.9981 28.512C28.1605 28.3259 28.3663 28.1827 28.5972 28.0952C28.8282 28.0076 29.0771 27.9784 29.3221 28.01C29.3221 28.01 31.1581 28.25 31.1561 28.252C31.4101 28.086 31.6721 27.934 31.9421 27.798L32.6521 26.088C32.7466 25.8598 32.8962 25.6585 33.0874 25.5021C33.2787 25.3458 33.5056 25.2392 33.7481 25.192C35.0517 24.936 36.3925 24.936 37.6961 25.192C37.9386 25.2392 38.1655 25.3458 38.3568 25.5021C38.548 25.6585 38.6976 25.8598 38.7921 26.088ZM36.3481 28.028C35.9316 27.991 35.5126 27.991 35.0961 28.028L34.4881 29.49C34.3354 29.8569 34.0434 30.1482 33.6761 30.3C33.2407 30.4797 32.8311 30.7164 32.4581 31.004C32.1426 31.2456 31.7443 31.3528 31.3501 31.302L29.7801 31.096C29.5401 31.44 29.3301 31.802 29.1541 32.182L30.1161 33.438C30.3578 33.7543 30.4642 34.1534 30.4121 34.548C30.3501 35.0139 30.3501 35.486 30.4121 35.952C30.4642 36.3466 30.3578 36.7457 30.1161 37.062L29.1541 38.32C29.3301 38.698 29.5401 39.062 29.7801 39.404L31.3501 39.198C31.7443 39.1472 32.1426 39.2543 32.4581 39.496C32.8321 39.784 33.2401 40.02 33.6761 40.2C34.0434 40.3518 34.3354 40.6431 34.4881 41.01L35.0961 42.472C35.5121 42.51 35.9321 42.51 36.3481 42.472L36.9561 41.01C37.1088 40.6431 37.4008 40.3518 37.7681 40.2C38.2021 40.02 38.6121 39.784 38.9861 39.496C39.3016 39.2543 39.6999 39.1472 40.0941 39.198L41.6641 39.404C41.9041 39.06 42.1141 38.698 42.2901 38.318L41.3281 37.062C41.0864 36.7457 40.98 36.3466 41.0321 35.952C41.0921 35.4859 41.0921 35.0141 41.0321 34.548C40.98 34.1534 41.0864 33.7543 41.3281 33.438L42.2901 32.18C42.1129 31.8014 41.9034 31.4387 41.6641 31.096L40.0941 31.302C39.6999 31.3528 39.3016 31.2456 38.9861 31.004C38.6128 30.7169 38.2032 30.4802 37.7681 30.3C37.4008 30.1482 37.1088 29.8569 36.9561 29.49L36.3481 28.028Z" fill="url(#paint3_linear_134_1381)"/>
<defs>
<linearGradient id="paint0_linear_134_1381" x1="2.79915" y1="31.4423" x2="38.0983" y2="31.4423" gradientUnits="userSpaceOnUse">
<stop stop-color="#841524"/>
<stop offset="1" stop-color="#E83A3D"/>
</linearGradient>
<linearGradient id="paint1_linear_134_1381" x1="10.7222" y1="25.7115" x2="36.9444" y2="25.7115" gradientUnits="userSpaceOnUse">
<stop stop-color="#841524"/>
<stop offset="1" stop-color="#E83A3D"/>
</linearGradient>
<linearGradient id="paint2_linear_134_1381" x1="32.7732" y1="36.2885" x2="38.8245" y2="36.2885" gradientUnits="userSpaceOnUse">
<stop stop-color="#841524"/>
<stop offset="1" stop-color="#E83A3D"/>
</linearGradient>
<linearGradient id="paint3_linear_134_1381" x1="26.1108" y1="38.7981" x2="45.8348" y2="38.7981" gradientUnits="userSpaceOnUse">
<stop stop-color="#841524"/>
<stop offset="1" stop-color="#E83A3D"/>
</linearGradient>
</defs>
</svg>
