<svg width="48" height="48" viewBox="0 0 48 48" fill="none" xmlns="http://www.w3.org/2000/svg">
<g clip-path="url(#clip0_134_1391)">
<path d="M24 48C10.745 48 0 37.255 0 24C0 10.745 10.745 0 24 0C37.255 0 48 10.745 48 24C47.9842 37.2484 37.2484 47.9842 24 48ZM24 3C12.4022 3 3 12.4022 3 24C3 35.5978 12.4022 45 24 45C35.5978 45 45 35.5978 45 24C44.9875 12.4073 35.5928 3.01247 24 3Z" fill="url(#paint0_linear_134_1391)"/>
<path d="M24 27C19.6575 26.7785 16.3081 23.0936 16.5 18.75C16.3081 14.4064 19.6575 10.7215 24 10.5C28.3425 10.7215 31.6919 14.4064 31.5 18.75C31.6919 23.0936 28.3425 26.7785 24 27ZM24 13.5C21.3172 13.7256 19.3125 16.0642 19.5 18.75C19.3125 21.4358 21.3172 23.7744 24 24C26.6829 23.7744 28.6875 21.4358 28.5 18.75C28.6875 16.0642 26.6829 13.7256 24 13.5Z" fill="url(#paint1_linear_134_1391)"/>
<path d="M15 34.5C14.1716 34.5 13.5 33.8284 13.5 33C13.5 28.0364 18.2098 24 24 24C24.8284 24 25.5 24.6716 25.5 25.5C25.5 26.3284 24.8284 27 24 27C19.8644 27 16.5 29.6909 16.5 33C16.5 33.8284 15.8284 34.5 15 34.5ZM28.5 37.5C28.1022 37.4999 27.7207 37.3418 27.4394 37.0605L24.4394 34.0605C23.8711 33.472 23.8792 32.5364 24.4578 31.9577C25.0364 31.3792 25.972 31.3711 26.5606 31.9394L28.5 33.8789L36.4395 25.9394C37.028 25.3711 37.9636 25.3792 38.5423 25.9578C39.1208 26.5364 39.1289 27.472 38.5606 28.0606L29.5606 37.0606C29.2793 37.3418 28.8978 37.5 28.5 37.5Z" fill="url(#paint2_linear_134_1391)"/>
</g>
<defs>
<linearGradient id="paint0_linear_134_1391" x1="0.410256" y1="32.3077" x2="48.8205" y2="32.3077" gradientUnits="userSpaceOnUse">
<stop stop-color="#841524"/>
<stop offset="1" stop-color="#E83A3D"/>
</linearGradient>
<linearGradient id="paint1_linear_134_1391" x1="16.6205" y1="21.6058" x2="31.7646" y2="21.6058" gradientUnits="userSpaceOnUse">
<stop stop-color="#841524"/>
<stop offset="1" stop-color="#E83A3D"/>
</linearGradient>
<linearGradient id="paint2_linear_134_1391" x1="13.7178" y1="33.0865" x2="39.4172" y2="33.0865" gradientUnits="userSpaceOnUse">
<stop stop-color="#841524"/>
<stop offset="1" stop-color="#E83A3D"/>
</linearGradient>
<clipPath id="clip0_134_1391">
<rect width="48" height="48" fill="white"/>
</clipPath>
</defs>
</svg>
