<svg width="14" height="14" viewBox="0 0 14 14" fill="none" xmlns="http://www.w3.org/2000/svg">
<path d="M11.5 0.25H2.5C1.90326 0.25 1.33097 0.487053 0.90901 0.90901C0.487053 1.33097 0.25 1.90326 0.25 2.5V11.5C0.25 12.0967 0.487053 12.669 0.90901 13.091C1.33097 13.5129 1.90326 13.75 2.5 13.75H11.5C12.0967 13.75 12.669 13.5129 13.091 13.091C13.5129 12.669 13.75 12.0967 13.75 11.5V2.5C13.75 1.90326 13.5129 1.33097 13.091 0.90901C12.669 0.487053 12.0967 0.25 11.5 0.25ZM12.25 11.5C12.25 11.6989 12.171 11.8897 12.0303 12.0303C11.8897 12.171 11.6989 12.25 11.5 12.25H2.5C2.30109 12.25 2.11032 12.171 1.96967 12.0303C1.82902 11.8897 1.75 11.6989 1.75 11.5V6.25H12.25V11.5ZM1.75 4.75V2.5C1.75 2.30109 1.82902 2.11032 1.96967 1.96967C2.11032 1.82902 2.30109 1.75 2.5 1.75H11.5C11.6989 1.75 11.8897 1.82902 12.0303 1.96967C12.171 2.11032 12.25 2.30109 12.25 2.5V4.75H1.75Z" fill="url(#paint0_linear_379_1718)"/>
<defs>
<linearGradient id="paint0_linear_379_1718" x1="0.365385" y1="9.33654" x2="13.9808" y2="9.33654" gradientUnits="userSpaceOnUse">
<stop stop-color="#841524"/>
<stop offset="1" stop-color="#E83A3D"/>
</linearGradient>
</defs>
</svg>
