<svg width="12" height="12" viewBox="0 0 12 12" fill="none" xmlns="http://www.w3.org/2000/svg">
<path d="M11.9999 1.05C11.9999 0.784784 11.8946 0.530429 11.707 0.342893C11.5195 0.155357 11.2652 0.0500002 10.9999 0.0500002L2.99994 0C2.73472 0 2.48037 0.105357 2.29283 0.292893C2.1053 0.48043 1.99994 0.734784 1.99994 1C1.99994 1.26522 2.1053 1.51957 2.29283 1.70711C2.48037 1.89464 2.73472 2 2.99994 2H8.55994L0.289939 10.29C0.196211 10.383 0.121816 10.4936 0.0710478 10.6154C0.0202791 10.7373 -0.00585938 10.868 -0.00585938 11C-0.00585938 11.132 0.0202791 11.2627 0.0710478 11.3846C0.121816 11.5064 0.196211 11.617 0.289939 11.71C0.382902 11.8037 0.493503 11.8781 0.615362 11.9289C0.737221 11.9797 0.867927 12.0058 0.999939 12.0058C1.13195 12.0058 1.26266 11.9797 1.38452 11.9289C1.50638 11.8781 1.61698 11.8037 1.70994 11.71L9.99994 3.42V9C9.99994 9.26522 10.1053 9.51957 10.2928 9.70711C10.4804 9.89464 10.7347 10 10.9999 10C11.2652 10 11.5195 9.89464 11.707 9.70711C11.8946 9.51957 11.9999 9.26522 11.9999 9V1.05Z" fill="url(#paint0_linear_379_6535)"/>
<defs>
<linearGradient id="paint0_linear_379_6535" x1="0.0967542" y1="8.08083" x2="12.2052" y2="8.08083" gradientUnits="userSpaceOnUse">
<stop stop-color="#841524"/>
<stop offset="1" stop-color="#E83A3D"/>
</linearGradient>
</defs>
</svg>
